{
.appVersion = "1340";
DisplayStrings = (
"/Lcaron V/dcaron/lcaron/lcaron.ss01 vtv/tcaron v/t.ss01/tcaron.ss01/lcaron.sc"
);
classes = (
{
automatic = 1;

glyphs = (
{
glyphname = A;
lastChange = "2020-06-17 13:05:31 +0000";
layers = (
{
anchors = (
{
name = bottom;
position = "{590, 0}";
},
{
name = ogonek;
position = "{1253, 0}";
},
{
name = top;
position = "{904, 1475}";
}
);
layerId = "3FDD6C00-F7FD-4E85-84B0-0136AF7D7529";
paths = (
{
closed = 1;
nodes = (
"359 0 LINE",
"874 1234 LINE",
"872 1234 LINE",
"858 0 LINE",
"1253 0 LINE",
"1226 1475 LINE",
"585 1475 LINE",
"-72 0 LINE"
);
},
{
closed = 1;
nodes = (
"1022 310 LINE",
"1087 613 LINE",
"359 613 LINE",
"294 310 LINE"
);
}
);
width = 1405;
},
{
anchors = (
{
name = bottom;
position = "{454, 0}";
},
{
name = ogonek;
position = "{913, 0}";
},
{
name = top;
position = "{767, 1475}";
}
);
layerId = "2503C51C-5A6C-4B2C-A968-78FEA18C2585";
paths = (
{
closed = 1;
nodes = (
"23 0 LINE",
"762 1449 LINE",
"760 1449 LINE",
"881 0 LINE",
"913 0 LINE",
"788 1482 LINE",
"747 1482 LINE",
"-13 0 LINE"
);
},
{
closed = 1;
nodes = (
"858 451 LINE",
"864 479 LINE",
"247 479 LINE",
"241 451 LINE"
);
}
);
width = 1126;
},
{
anchors = (
{
name = bottom;
position = "{505, 0}";
},
{
name = ogonek;
position = "{1041, 0}";
},
{
name = top;
position = "{818, 1475}";
}
);
layerId = "BEF1FBB1-ACEC-4AC1-9895-C09886024D55";
paths = (
{
closed = 1;
nodes = (
"149 0 LINE",
"804 1368 LINE",
"802 1368 LINE",
"872 0 LINE",
"1041 0 LINE",
"952 1479 LINE",
"686 1479 LINE",
"-35 0 LINE"
);
},
{
closed = 1;
nodes = (
"920 391 LINE",
"948 541 LINE",
"289 541 LINE",
"261 391 LINE"
);
}
);
width = 1231;
}
);
leftKerningGroup = A;
note = A;
rightKerningGroup = A;
unicode = 0041;
},
{
glyphname = AE;
lastChange = "2020-06-17 13:24:57 +0000";
layers = (
{
anchors = (
{
name = bottom;
position = "{881, 0}";
},
{
name = top;
position = "{1473, 1475}";
}
);
layerId = "3FDD6C00-F7FD-4E85-84B0-0136AF7D7529";
paths = (
{
closed = 1;
nodes = (
"325 0 LINE",
"1125 1127 LINE",
"1100 1151 LINE",
"855 0 LINE",
"1813 0 LINE",
"1877 300 LINE",
"1192 300 LINE",
"1282 186 LINE",
"1390 694 LINE",
"1264 590 LINE",
"1828 590 LINE",
"1891 890 LINE",
"1317 890 LINE",
"1407 776 LINE",
"1520 1306 LINE",
"1361 1175 LINE",
"2063 1175 LINE",
"2127 1475 LINE",
"977 1475 LINE",
"-112 0 LINE"
);
},
{
closed = 1;
nodes = (
"1094 260 LINE",
"1154 544 LINE",
"509 544 LINE",
"370 260 LINE"
);
}
);
width = 2036;
},
{
anchors = (
{
name = bottom;
position = "{751, 0}";
},
{
name = top;
position = "{1120, 1475}";
}
);
layerId = "2503C51C-5A6C-4B2C-A968-78FEA18C2585";
paths = (
{
closed = 1;
nodes = (
"-77 0 LINE",
"1050 1428 LINE",
"1043 1430 LINE",
"739 0 LINE",
"1455 0 LINE",
"1461 28 LINE",
"762 28 LINE",
"773 14 LINE",
"928 740 LINE",
"911 726 LINE",
"1499 726 LINE",
"1505 754 LINE",
"917 754 LINE",
"928 740 LINE",
"1081 1461 LINE",
"1064 1447 LINE",
"1763 1447 LINE",
"1769 1475 LINE",
"1047 1475 LINE",
"-113 0 LINE"
);
},
{
closed = 1;
nodes = (
"838 386 LINE",
"844 414 LINE",
"222 414 LINE",
"206 386 LINE"
);
}
);
width = 1728;
},
{
anchors = (
{
name = bottom;
position = "{800, 0}";
},
{
name = top;
position = "{1375, 1475}";
}
);
layerId = "BEF1FBB1-ACEC-4AC1-9895-C09886024D55";
paths = (
{
closed = 1;
nodes = (
"99 0 LINE",
"1080 1315 LINE",
"1067 1325 LINE",
"785 0 LINE",
"1591 0 LINE",
"1623 150 LINE",
"930 150 LINE",
"970 99 LINE",
"1102 720 LINE",
"1043 665 LINE",
"1622 665 LINE",
"1653 815 LINE",
"1071 815 LINE",
"1110 756 LINE",
"1243 1383 LINE",
"1173 1325 LINE",
"1873 1325 LINE",
"1905 1475 LINE",
"1016 1475 LINE",
"-97 0 LINE"
);
},
{
closed = 1;
nodes = (
"934 326 LINE",
"965 476 LINE",
"330 476 LINE",
"264 326 LINE"
);
}
);
width = 1845;
}
);
leftKerningGroup = AE;
rightKerningGroup = E;
rightMetricsKey = E;
unicode = 00C6;
},
{
glyphname = B;
lastChange = "2020-06-08 21:05:15 +0000";
layers = (
{
anchors = (
{
name = bottom;
position = "{533, 0}";
},
{
name = top;
position = "{847, 1475}";
}
);
layerId = "3FDD6C00-F7FD-4E85-84B0-0136AF7D7529";
paths = (
{
closed = 1;
nodes = (
"311 1475 LINE",
"-3 0 LINE",
"642 0 LINE SMOOTH",
"1026 0 OFFCURVE",
"1246 233 OFFCURVE",
"1246 507 CURVE SMOOTH",
"1246 648 OFFCURVE",
"1125 761 OFFCURVE",
"1002 765 CURVE",
"1128 776 OFFCURVE",
"1354 927 OFFCURVE",
"1354 1202 CURVE SMOOTH",
"1354 1333 OFFCURVE",
"1287 1475 OFFCURVE",
"956 1475 CURVE SMOOTH"
);
},
{
closed = 1;
nodes = (
"670 1353 LINE",
"449 1175 LINE",
"787 1175 LINE SMOOTH",
"907 1175 OFFCURVE",
"931 1140 OFFCURVE",
"931 1078 CURVE SMOOTH",
"931 977 OFFCURVE",
"847 903 OFFCURVE",
"727 903 CURVE SMOOTH",
"389 903 LINE",
"548 794 LINE"
);
},
{
closed = 1;
nodes = (
"263 301 LINE",
"407 123 LINE",
"529 703 LINE",
"328 605 LINE",
"692 605 LINE SMOOTH",
"812 605 OFFCURVE",
"834 548 OFFCURVE",
"834 488 CURVE SMOOTH",
"834 374 OFFCURVE",
"747 301 OFFCURVE",
"627 301 CURVE SMOOTH"
);
}
);
width = 1332;
},
{
anchors = (
{
name = bottom;
position = "{412, 0}";
},
{
name = top;
position = "{726, 1475}";
}
);
layerId = "2503C51C-5A6C-4B2C-A968-78FEA18C2585";
paths = (
{
closed = 1;
nodes = (
"361 1475 LINE",
"47 0 LINE",
"430 0 LINE SMOOTH",
"750 0 OFFCURVE",
"968 155 OFFCURVE",
"968 462 CURVE SMOOTH",
"968 686 OFFCURVE",
"843 773 OFFCURVE",
"672 778 CURVE",
"922 785 OFFCURVE",
"1096 960 OFFCURVE",
"1096 1218 CURVE SMOOTH",
"1096 1399 OFFCURVE",
"965 1475 OFFCURVE",
"753 1475 CURVE SMOOTH"
);
},
{
closed = 1;
nodes = (
"391 1461 LINE",
"374 1447 LINE",
"749 1447 LINE SMOOTH",
"941 1447 OFFCURVE",
"1065 1386 OFFCURVE",
"1065 1219 CURVE SMOOTH",
"1065 931 OFFCURVE",
"856 791 OFFCURVE",
"546 791 CURVE SMOOTH",
"234 791 LINE",
"245 777 LINE"
);
},
{
closed = 1;
nodes = (
"72 28 LINE",
"83 14 LINE",
"245 777 LINE",
"228 763 LINE",
"549 763 LINE SMOOTH",
"764 763 OFFCURVE",
"937 709 OFFCURVE",
"937 465 CURVE SMOOTH",
"937 177 OFFCURVE",
"735 28 OFFCURVE",
"431 28 CURVE SMOOTH"
);
}
);
width = 1150;
},
{
anchors = (
{
name = bottom;
position = "{457, 0}";
},
{
name = top;
position = "{771, 1475}";
}
);
layerId = "BEF1FBB1-ACEC-4AC1-9895-C09886024D55";
paths = (
{
closed = 1;
nodes = (
"342 1475 LINE",
"28 0 LINE",
"510 0 LINE SMOOTH",
"854 0 OFFCURVE",
"1072 184 OFFCURVE",
"1072 479 CURVE SMOOTH",
"1072 672 OFFCURVE",
"949 769 OFFCURVE",
"796 773 CURVE",
"999 782 OFFCURVE",
"1193 948 OFFCURVE",
"1193 1212 CURVE SMOOTH",
"1193 1374 OFFCURVE",
"1086 1475 OFFCURVE",
"829 1475 CURVE SMOOTH"
);
},
{
closed = 1;
nodes = (
"496 1421 LINE",
"402 1345 LINE",
"763 1345 LINE SMOOTH",
"928 1345 OFFCURVE",
"1015 1294 OFFCURVE",
"1015 1166 CURVE SMOOTH",
"1015 948 OFFCURVE",
"853 833 OFFCURVE",
"614 833 CURVE SMOOTH",
"292 833 LINE",
"359 783 LINE"
);
},
{
closed = 1;
nodes = (
"144 130 LINE",
"205 55 LINE",
"352 749 LINE",
"266 704 LINE",
"603 704 LINE SMOOTH",
"782 704 OFFCURVE",
"898 649 OFFCURVE",
"898 474 CURVE SMOOTH",
"898 251 OFFCURVE",
"740 130 OFFCURVE",
"505 130 CURVE SMOOTH"
);
}
);
width = 1219;
}
);
leftKerningGroup = H;
leftMetricsKey = H;
note = B;
rightKerningGroup = O;
rightMetricsKey = R;
unicode = 0042;
},
{
glyphname = C;
lastChange = "2020-06-17 15:22:44 +0000";
layers = (
{
anchors = (
{
name = bottom;
position = "{660, 0}";
},
{
name = top;
position = "{944, 1475}";
}
);
layerId = "3FDD6C00-F7FD-4E85-84B0-0136AF7D7529";
paths = (
{
closed = 1;
nodes = (
"1009 557 LINE",
"976 403 OFFCURVE",
"860 285 OFFCURVE",
"712 285 CURVE SMOOTH",
"589 285 OFFCURVE",
"515 388 OFFCURVE",
"515 564 CURVE SMOOTH",
"515 845 OFFCURVE",
"644 1188 OFFCURVE",
"904 1188 CURVE SMOOTH",
"1025 1188 OFFCURVE",
"1076 1118 OFFCURVE",
"1076 1001 CURVE SMOOTH",
"1076 978 OFFCURVE",
"1072 941 OFFCURVE",
"1067 918 CURVE",
"1472 918 LINE",
"1481 958 OFFCURVE",
"1485 998 OFFCURVE",
"1485 1039 CURVE SMOOTH",
"1485 1274 OFFCURVE",
"1323 1500 OFFCURVE",
"948 1500 CURVE SMOOTH",
"457 1500 OFFCURVE",
"107 1123 OFFCURVE",
"107 584 CURVE SMOOTH",
"107 234 OFFCURVE",
"283 -26 OFFCURVE",
"668 -26 CURVE SMOOTH",
"1107 -26 OFFCURVE",
"1357 288 OFFCURVE",
"1414 557 CURVE"
);
}
);
width = 1478;
},
{
anchors = (
{
name = bottom;
position = "{515, 0}";
},
{
name = top;
position = "{824, 1475}";
}
);
layerId = "2503C51C-5A6C-4B2C-A968-78FEA18C2585";
paths = (
{
closed = 1;
nodes = (
"1059 474 LINE",
"1016 271 OFFCURVE",
"806 11 OFFCURVE",
"516 11 CURVE SMOOTH",
"268 11 OFFCURVE",
"157 204 OFFCURVE",
"157 493 CURVE SMOOTH",
"157 961 OFFCURVE",
"402 1460 OFFCURVE",
"824 1460 CURVE SMOOTH",
"1072 1460 OFFCURVE",
"1181 1275 OFFCURVE",
"1181 1092 CURVE SMOOTH",
"1181 1059 OFFCURVE",
"1175 1019 OFFCURVE",
"1171 1000 CURVE",
"1202 1000 LINE",
"1206 1015 OFFCURVE",
"1211 1056 OFFCURVE",
"1211 1089 CURVE SMOOTH",
"1211 1289 OFFCURVE",
"1101 1488 OFFCURVE",
"824 1488 CURVE SMOOTH",
"378 1488 OFFCURVE",
"124 980 OFFCURVE",
"124 489 CURVE SMOOTH",
"124 186 OFFCURVE",
"246 -17 OFFCURVE",
"518 -17 CURVE SMOOTH",
"834 -17 OFFCURVE",
"1044 256 OFFCURVE",
"1090 474 CURVE"
);
}
);
width = 1204;
},
{
anchors = (
{
name = bottom;
position = "{552, 0}";
},
{
name = top;
position = "{854, 1475}";
}
);
layerId = "BEF1FBB1-ACEC-4AC1-9895-C09886024D55";
paths = (
{
closed = 1;
nodes = (
"1022 513 LINE",
"982 328 OFFCURVE",
"810 134 OFFCURVE",
"573 134 CURVE SMOOTH",
"372 134 OFFCURVE",
"276 266 OFFCURVE",
"276 512 CURVE SMOOTH",
"276 910 OFFCURVE",
"472 1338 OFFCURVE",
"833 1338 CURVE SMOOTH",
"1034 1338 OFFCURVE",
"1127 1209 OFFCURVE",
"1127 1050 CURVE SMOOTH",
"1127 1021 OFFCURVE",
"1121 982 OFFCURVE",
"1117 962 CURVE",
"1288 962 LINE",
"1294 986 OFFCURVE",
"1299 1017 OFFCURVE",
"1299 1053 CURVE SMOOTH",
"1299 1266 OFFCURVE",
"1176 1493 OFFCURVE",
"852 1493 CURVE SMOOTH",
"389 1493 OFFCURVE",
"103 1011 OFFCURVE",
"103 513 CURVE SMOOTH",
"103 204 OFFCURVE",
"241 -20 OFFCURVE",
"556 -20 CURVE SMOOTH",
"918 -20 OFFCURVE",
"1143 276 OFFCURVE",
"1193 513 CURVE"
);
}
);
width = 1281;
}
);
leftKerningGroup = O;
leftMetricsKey = O;
note = C;
rightKerningGroup = O;
rightMetricsKey = O;
unicode = 0043;
},
{
glyphname = Ccedilla;
lastChange = "2020-06-17 15:22:48 +0000";
layers = (
{
anchors = (
{
name = bottom;
position = "{443, -446}";
},
{
name = top;
position = "{824, 1475}";
}
);
layerId = "2503C51C-5A6C-4B2C-A968-78FEA18C2585";
paths = (
{
closed = 1;
nodes = (
"1059 474 LINE",
"1016 271 OFFCURVE",
"806 11 OFFCURVE",
"516 11 CURVE SMOOTH",
"268 11 OFFCURVE",
"157 204 OFFCURVE",
"157 493 CURVE SMOOTH",
"157 961 OFFCURVE",
"402 1460 OFFCURVE",
"824 1460 CURVE SMOOTH",
"1072 1460 OFFCURVE",
"1181 1275 OFFCURVE",
"1181 1092 CURVE SMOOTH",
"1181 1059 OFFCURVE",
"1175 1019 OFFCURVE",
"1171 1000 CURVE",
"1202 1000 LINE",
"1206 1015 OFFCURVE",
"1211 1056 OFFCURVE",
"1211 1089 CURVE SMOOTH",
"1211 1289 OFFCURVE",
"1101 1488 OFFCURVE",
"824 1488 CURVE SMOOTH",
"378 1488 OFFCURVE",
"124 980 OFFCURVE",
"124 489 CURVE SMOOTH",
"124 186 OFFCURVE",
"246 -17 OFFCURVE",
"518 -17 CURVE SMOOTH",
"834 -17 OFFCURVE",
"1044 256 OFFCURVE",
"1090 474 CURVE"
);
},
{
closed = 1;
nodes = (
"500 -155 OFFCURVE",
"454 -172 OFFCURVE",
"439 -197 CURVE",
"439 -207 LINE",
"530 -12 LINE",
"500 -12 LINE",
"407 -211 LINE",
"434 -224 LINE",
"458 -200 OFFCURVE",
"505 -183 OFFCURVE",
"541 -183 CURVE SMOOTH",
"591 -183 OFFCURVE",
"623 -206 OFFCURVE",
"623 -261 CURVE SMOOTH",
"623 -360 OFFCURVE",
"540 -418 OFFCURVE",
"447 -418 CURVE SMOOTH",
"382 -418 OFFCURVE",
"349 -399 OFFCURVE",
"339 -391 CURVE",
"321 -419 LINE",
"330 -427 OFFCURVE",
"377 -446 OFFCURVE",
"443 -446 CURVE SMOOTH",
"553 -446 OFFCURVE",
"653 -380 OFFCURVE",
"653 -258 CURVE SMOOTH",
"653 -183 OFFCURVE",
"604 -155 OFFCURVE",
"546 -155 CURVE SMOOTH"
);
}
);
width = 1204;
},
{
anchors = (
{
name = bottom;
position = "{609, -410}";
},
{
name = top;
position = "{944, 1475}";
}
);
layerId = "3FDD6C00-F7FD-4E85-84B0-0136AF7D7529";
paths = (
{
closed = 1;
nodes = (
"1009 557 LINE",
"976 403 OFFCURVE",
"860 285 OFFCURVE",
"712 285 CURVE SMOOTH",
"589 285 OFFCURVE",
"515 388 OFFCURVE",
"515 564 CURVE SMOOTH",
"515 845 OFFCURVE",
"644 1188 OFFCURVE",
"904 1188 CURVE SMOOTH",
"1025 1188 OFFCURVE",
"1076 1118 OFFCURVE",
"1076 1001 CURVE SMOOTH",
"1076 978 OFFCURVE",
"1072 941 OFFCURVE",
"1067 918 CURVE",
"1472 918 LINE",
"1481 958 OFFCURVE",
"1485 998 OFFCURVE",
"1485 1039 CURVE SMOOTH",
"1485 1274 OFFCURVE",
"1323 1500 OFFCURVE",
"948 1500 CURVE SMOOTH",
"457 1500 OFFCURVE",
"107 1123 OFFCURVE",
"107 584 CURVE SMOOTH",
"107 234 OFFCURVE",
"283 -26 OFFCURVE",
"668 -26 CURVE SMOOTH",
"1107 -26 OFFCURVE",
"1357 288 OFFCURVE",
"1414 557 CURVE"
);
},
{
closed = 1;
nodes = (
"714 -56 OFFCURVE",
"673 -75 OFFCURVE",
"656 -107 CURVE",
"666 -107 LINE",
"739 0 LINE",
"573 0 LINE",
"479 -143 LINE",
"619 -182 LINE",
"636 -160 OFFCURVE",
"672 -150 OFFCURVE",
"703 -150 CURVE SMOOTH",
"731 -150 OFFCURVE",
"754 -162 OFFCURVE",
"754 -190 CURVE SMOOTH",
"754 -240 OFFCURVE",
"696 -265 OFFCURVE",
"621 -265 CURVE SMOOTH",
"550 -265 OFFCURVE",
"471 -230 OFFCURVE",
"444 -212 CURVE",
"348 -353 LINE",
"387 -382 OFFCURVE",
"508 -410 OFFCURVE",
"597 -410 CURVE SMOOTH",
"763 -410 OFFCURVE",
"925 -336 OFFCURVE",
"925 -182 CURVE SMOOTH",
"925 -89 OFFCURVE",
"845 -56 OFFCURVE",
"779 -56 CURVE SMOOTH"
);
}
);
width = 1478;
},
{
anchors = (
{
name = bottom;
position = "{489, -439}";
},
{
name = top;
position = "{858, 1475}";
}
);
layerId = "BEF1FBB1-ACEC-4AC1-9895-C09886024D55";
paths = (
{
closed = 1;
nodes = (
"1022 513 LINE",
"982 328 OFFCURVE",
"810 134 OFFCURVE",
"573 134 CURVE SMOOTH",
"372 134 OFFCURVE",
"276 266 OFFCURVE",
"276 512 CURVE SMOOTH",
"276 910 OFFCURVE",
"472 1338 OFFCURVE",
"833 1338 CURVE SMOOTH",
"1034 1338 OFFCURVE",
"1127 1209 OFFCURVE",
"1127 1050 CURVE SMOOTH",
"1127 1021 OFFCURVE",
"1121 982 OFFCURVE",
"1117 962 CURVE",
"1288 962 LINE",
"1294 986 OFFCURVE",
"1299 1017 OFFCURVE",
"1299 1053 CURVE SMOOTH",
"1299 1266 OFFCURVE",
"1176 1493 OFFCURVE",
"852 1493 CURVE SMOOTH",
"389 1493 OFFCURVE",
"103 1011 OFFCURVE",
"103 513 CURVE SMOOTH",
"103 204 OFFCURVE",
"241 -20 OFFCURVE",
"556 -20 CURVE SMOOTH",
"918 -20 OFFCURVE",
"1143 276 OFFCURVE",
"1193 513 CURVE"
);
},
{
closed = 1;
nodes = (
"564 -114 OFFCURVE",
"510 -142 OFFCURVE",
"494 -170 CURVE",
"508 -176 LINE",
"592 -14 LINE",
"511 -14 LINE",
"418 -192 LINE",
"487 -215 LINE",
"508 -192 OFFCURVE",
"551 -177 OFFCURVE",
"585 -177 CURVE SMOOTH",
"627 -177 OFFCURVE",
"656 -196 OFFCURVE",
"656 -241 CURVE SMOOTH",
"656 -322 OFFCURVE",
"582 -367 OFFCURVE",
"496 -367 CURVE SMOOTH",
"429 -367 OFFCURVE",
"378 -342 OFFCURVE",
"362 -330 CURVE",
"315 -401 LINE",
"335 -417 OFFCURVE",
"410 -439 OFFCURVE",
"484 -439 CURVE SMOOTH",
"615 -439 OFFCURVE",
"739 -370 OFFCURVE",
"739 -236 CURVE SMOOTH",
"739 -154 OFFCURVE",
"678 -114 OFFCURVE",
"617 -114 CURVE SMOOTH"
);
}
);
width = 1281;
}
);
leftKerningGroup = O;
rightKerningGroup = O;
unicode = 00C7;
},
{
glyphname = D;
lastChange = "2020-06-06 15:58:50 +0000";
layers = (
{
anchors = (
{
name = bottom;
position = "{536, 0}";
},
{
name = center;
position = "{429, 735}";
},
{
name = top;
position = "{850, 1475}";
}
);
layerId = "3FDD6C00-F7FD-4E85-84B0-0136AF7D7529";
paths = (
{
closed = 1;
nodes = (
"545 0 LINE SMOOTH",
"1016 0 OFFCURVE",
"1388 406 OFFCURVE",
"1388 906 CURVE SMOOTH",
"1388 1228 OFFCURVE",
"1194 1475 OFFCURVE",
"849 1475 CURVE SMOOTH",
"311 1475 LINE",
"-3 0 LINE"
);
},
{
closed = 1;
nodes = (
"689 1353 LINE",
"469 1155 LINE",
"741 1155 LINE SMOOTH",
"886 1155 OFFCURVE",
"978 1052 OFFCURVE",
"978 874 CURVE SMOOTH",
"978 615 OFFCURVE",
"808 320 OFFCURVE",
"555 320 CURVE SMOOTH",
"283 320 LINE",
"427 122 LINE"
);
}
);
width = 1400;
},
{
anchors = (
{
name = bottom;
position = "{452, 0}";
},
{
name = center;
position = "{367, 738}";
},
{
name = top;
position = "{766, 1475}";
}
);
layerId = "2503C51C-5A6C-4B2C-A968-78FEA18C2585";
paths = (
{
closed = 1;
nodes = (
"319 0 LINE SMOOTH",
"702 0 OFFCURVE",
"1126 355 OFFCURVE",
"1126 971 CURVE SMOOTH",
"1126 1250 OFFCURVE",
"1006 1475 OFFCURVE",
"623 1475 CURVE SMOOTH",
"361 1475 LINE",
"47 0 LINE"
);
},
{
closed = 1;
nodes = (
"391 1461 LINE",
"374 1447 LINE",
"623 1447 LINE SMOOTH",
"987 1447 OFFCURVE",
"1094 1231 OFFCURVE",
"1094 971 CURVE SMOOTH",
"1094 370 OFFCURVE",
"680 28 OFFCURVE",
"316 28 CURVE SMOOTH",
"72 28 LINE",
"83 14 LINE"
);
}
);
width = 1163;
},
{
anchors = (
{
name = bottom;
position = "{484, 0}";
},
{
name = center;
position = "{390, 737}";
},
{
name = top;
position = "{798, 1475}";
}
);
layerId = "BEF1FBB1-ACEC-4AC1-9895-C09886024D55";
paths = (
{
closed = 1;
nodes = (
"404 0 LINE SMOOTH",
"820 0 OFFCURVE",
"1217 374 OFFCURVE",
"1217 947 CURVE SMOOTH",
"1217 1242 OFFCURVE",
"1077 1475 OFFCURVE",
"708 1475 CURVE SMOOTH",
"342 1475 LINE",
"28 0 LINE"
);
},
{
closed = 1;
nodes = (
"503 1421 LINE",
"410 1345 LINE",
"667 1345 LINE SMOOTH",
"942 1345 OFFCURVE",
"1043 1164 OFFCURVE",
"1043 935 CURVE SMOOTH",
"1043 462 OFFCURVE",
"721 130 OFFCURVE",
"406 130 CURVE SMOOTH",
"151 130 LINE",
"212 55 LINE"
);
}
);
width = 1239;
}
);
leftKerningGroup = H;
leftMetricsKey = H;
note = D;
rightKerningGroup = O;
rightMetricsKey = O;
unicode = 0044;
},
{
glyphname = Eth;
lastChange = "2020-06-08 14:53:35 +0000";
layers = (
{
components = (
{
name = D;
}
);
layerId = "2503C51C-5A6C-4B2C-A968-78FEA18C2585";
paths = (
{
closed = 1;
nodes = (
"696 725 LINE",
"701 751 LINE",
"39 751 LINE",
"32 725 LINE"
);
}
);
width = 1163;
},
{
components = (
{
name = D;
}
);
layerId = "3FDD6C00-F7FD-4E85-84B0-0136AF7D7529";
paths = (
{
closed = 1;
nodes = (
"785 645 LINE",
"823 824 LINE",
"73 824 LINE",
"35 645 LINE"
);
}
);
width = 1400;
},
{
components = (
{
name = D;
}
);
layerId = "BEF1FBB1-ACEC-4AC1-9895-C09886024D55";
paths = (
{
closed = 1;
nodes = (
"729 696 LINE",
"746 779 LINE",
"51 779 LINE",
"32 696 LINE"
);
}
);
width = 1239;
}
);
leftKerningGroup = H;
rightKerningGroup = O;
unicode = 00D0;
},
{
glyphname = E;
lastChange = "2020-06-10 15:31:06 +0000";
layers = (
{
anchors = (
{
name = bottom;
position = "{494, 0}";
},
{
name = ogonek;
position = "{954, 0}";
},
{
name = top;
position = "{788, 1475}";
},
{
name = topleft;
position = "{248, 1475}";
}
);
layerId = "3FDD6C00-F7FD-4E85-84B0-0136AF7D7529";
paths = (
{
closed = 1;
nodes = (
"1204 1175 LINE",
"1268 1475 LINE",
"311 1475 LINE",
"-3 0 LINE",
"954 0 LINE",
"1018 300 LINE",
"285 300 LINE",
"428 118 LINE",
"551 697 LINE",
"439 590 LINE",
"969 590 LINE",
"1032 890 LINE",
"502 890 LINE",
"569 782 LINE",
"692 1357 LINE",
"471 1175 LINE"
);
}
);
width = 1177;
},
{
anchors = (
{
name = bottom;
position = "{438, 0}";
},
{
name = ogonek;
position = "{762, 0}";
},
{
name = top;
position = "{752, 1475}";
},
{
name = topleft;
position = "{264, 1475}";
}
);
layerId = "2503C51C-5A6C-4B2C-A968-78FEA18C2585";
paths = (
{
closed = 1;
nodes = (
"1070 1447 LINE",
"1076 1475 LINE",
"361 1475 LINE",
"47 0 LINE",
"762 0 LINE",
"768 28 LINE",
"70 28 LINE",
"81 14 LINE",
"236 740 LINE",
"219 726 LINE",
"866 726 LINE",
"872 754 LINE",
"225 754 LINE",
"236 740 LINE",
"389 1461 LINE",
"372 1447 LINE"
);
}
);
width = 1035;
},
{
anchors = (
{
name = bottom;
position = "{459, 0}";
},
{
name = ogonek;
position = "{834, 0}";
},
{
name = top;
position = "{766, 1475}";
},
{
name = topleft;
position = "{258, 1475}";
}
);
layerId = "BEF1FBB1-ACEC-4AC1-9895-C09886024D55";
paths = (
{
closed = 1;
nodes = (
"1116 1325 LINE",
"1148 1475 LINE",
"342 1475 LINE",
"28 0 LINE",
"834 0 LINE",
"866 150 LINE",
"154 150 LINE",
"211 53 LINE",
"353 724 LINE",
"299 665 LINE",
"865 665 LINE",
"896 815 LINE",
"330 815 LINE",
"360 756 LINE",
"501 1422 LINE",
"404 1325 LINE"
);
}
);
width = 1088;
}
);
leftKerningGroup = H;
leftMetricsKey = H;
note = E;
rightKerningGroup = E;
rightMetricsKey = H;
unicode = 0045;
},
{
glyphname = Ezh;
lastChange = "2020-06-08 12:52:17 +0000";
layers = (
{
anchors = (
{
name = bottom;
position = "{406, 0}";
},
{
name = top;
position = "{720, 1475}";
}
);
layerId = "2503C51C-5A6C-4B2C-A968-78FEA18C2585";
paths = (
{
closed = 1;
nodes = (
"681 -17 OFFCURVE",
"855 258 OFFCURVE",
"855 542 CURVE SMOOTH",
"855 694 OFFCURVE",
"774 789 OFFCURVE",
"559 789 CURVE",
"1078 1451 LINE",
"1084 1475 LINE",
"362 1475 LINE",
"356 1447 LINE",
"1039 1447 LINE",
"498 761 LINE",
"559 761 LINE",
"743 761 OFFCURVE",
"824 685 OFFCURVE",
"824 542 CURVE SMOOTH",
"824 284 OFFCURVE",
"662 11 OFFCURVE",
"416 11 CURVE SMOOTH",
"252 11 OFFCURVE",
"160 84 OFFCURVE",
"160 261 CURVE SMOOTH",
"160 330 OFFCURVE",
"177 414 OFFCURVE",
"181 429 CURVE",
"149 429 LINE",
"146 415 OFFCURVE",
"128 331 OFFCURVE",
"128 255 CURVE SMOOTH",
"128 64 OFFCURVE",
"230 -17 OFFCURVE",
"416 -17 CURVE SMOOTH"
);
}
);
width = 1037;
},
{
anchors = (
{
name = bottom;
position = "{547, 0}";
},
{
name = top;
position = "{861, 1475}";
}
);
layerId = "3FDD6C00-F7FD-4E85-84B0-0136AF7D7529";
paths = (
{
closed = 1;
nodes = (
"940 -26 OFFCURVE",
"1197 183 OFFCURVE",
"1197 536 CURVE SMOOTH",
"1197 732 OFFCURVE",
"1097 836 OFFCURVE",
"965 836 CURVE",
"1284 1198 LINE",
"1343 1475 LINE",
"346 1475 LINE",
"282 1175 LINE",
"885 1175 LINE",
"421 630 LINE",
"548 630 LINE",
"730 630 OFFCURVE",
"791 589 OFFCURVE",
"791 500 CURVE SMOOTH",
"791 372 OFFCURVE",
"729 275 OFFCURVE",
"596 275 CURVE SMOOTH",
"513 275 OFFCURVE",
"459 304 OFFCURVE",
"459 402 CURVE SMOOTH",
"459 445 OFFCURVE",
"468 482 OFFCURVE",
"471 494 CURVE",
"68 494 LINE",
"65 483 OFFCURVE",
"52 431 OFFCURVE",
"52 356 CURVE SMOOTH",
"52 151 OFFCURVE",
"171 -26 OFFCURVE",
"546 -26 CURVE SMOOTH"
);
}
);
width = 1319;
},
{
anchors = (
{
name = bottom;
position = "{459, 0}";
},
{
name = top;
position = "{773, 1475}";
}
);
layerId = "BEF1FBB1-ACEC-4AC1-9895-C09886024D55";
paths = (
{
closed = 1;
nodes = (
"780 -20 OFFCURVE",
"977 187 OFFCURVE",
"977 515 CURVE SMOOTH",
"977 714 OFFCURVE",
"879 818 OFFCURVE",
"737 818 CURVE",
"1151 1336 LINE",
"1181 1475 LINE",
"356 1475 LINE",
"324 1325 LINE",
"940 1325 LINE",
"428 672 LINE",
"520 672 LINE",
"719 672 OFFCURVE",
"798 629 OFFCURVE",
"798 491 CURVE SMOOTH",
"798 286 OFFCURVE",
"690 130 OFFCURVE",
"482 130 CURVE SMOOTH",
"347 130 OFFCURVE",
"268 181 OFFCURVE",
"268 324 CURVE SMOOTH",
"268 377 OFFCURVE",
"276 426 OFFCURVE",
"284 453 CURVE",
"113 453 LINE",
"105 425 OFFCURVE",
"94 374 OFFCURVE",
"94 298 CURVE SMOOTH",
"94 102 OFFCURVE",
"202 -20 OFFCURVE",
"458 -20 CURVE SMOOTH"
);
}
);
width = 1143;
}
);
unicode = 01B7;
},
{
glyphname = F;
lastChange = "2020-06-04 17:41:03 +0000";
layers = (
{
anchors = (
{
name = bottom;
position = "{491, 0}";
},
{
name = top;
position = "{805, 1475}";
}
);
layerId = "3FDD6C00-F7FD-4E85-84B0-0136AF7D7529";
paths = (
{
closed = 1;
nodes = (
"1223 1175 LINE",
"1287 1475 LINE",
"311 1475 LINE",
"-3 0 LINE",
"399 0 LINE",
"541 668 LINE",
"396 565 LINE",
"1004 565 LINE",
"1068 866 LINE",
"460 866 LINE",
"563 771 LINE",
"688 1357 LINE",
"467 1175 LINE"
);
}
);
width = 1176;
},
{
anchors = (
{
name = bottom;
position = "{401, 0}";
},
{
name = top;
position = "{715, 1475}";
}
);
layerId = "2503C51C-5A6C-4B2C-A968-78FEA18C2585";
paths = (
{
closed = 1;
nodes = (
"1050 1447 LINE",
"1056 1475 LINE",
"361 1475 LINE",
"47 0 LINE",
"77 0 LINE",
"233 734 LINE",
"216 720 LINE",
"806 720 LINE",
"812 748 LINE",
"222 748 LINE",
"233 734 LINE",
"388 1461 LINE",
"371 1447 LINE"
);
}
);
width = 954;
},
{
anchors = (
{
name = bottom;
position = "{435, 0}";
},
{
name = top;
position = "{749, 1475}";
}
);
layerId = "BEF1FBB1-ACEC-4AC1-9895-C09886024D55";
paths = (
{
closed = 1;
nodes = (
"1111 1325 LINE",
"1143 1475 LINE",
"342 1475 LINE",
"28 0 LINE",
"198 0 LINE",
"349 709 LINE",
"282 652 LINE",
"879 652 LINE",
"911 802 LINE",
"314 802 LINE",
"357 748 LINE",
"500 1422 LINE",
"403 1325 LINE"
);
}
);
width = 1037;
}
);
leftKerningGroup = H;
leftMetricsKey = H;
note = F;
rightKerningGroup = F;
unicode = 0046;
},
{
glyphname = G;
lastChange = "2020-06-17 15:31:22 +0000";
layers = (
{
anchors = (
{
name = bottom;
position = "{664, 0}";
},
{
name = top;
position = "{942, 1475}";
}
);
layerId = "3FDD6C00-F7FD-4E85-84B0-0136AF7D7529";
paths = (
{
closed = 1;
nodes = (
"898 -26 OFFCURVE",
"1031 103 OFFCURVE",
"1063 163 CURVE",
"1069 0 LINE",
"1257 0 LINE",
"1421 769 LINE",
"818 769 LINE",
"758 490 LINE",
"1004 490 LINE",
"997 454 LINE",
"965 387 OFFCURVE",
"860 285 OFFCURVE",
"717 285 CURVE SMOOTH",
"610 285 OFFCURVE",
"508 340 OFFCURVE",
"508 551 CURVE SMOOTH",
"508 826 OFFCURVE",
"634 1188 OFFCURVE",
"914 1188 CURVE SMOOTH",
"1026 1188 OFFCURVE",
"1086 1118 OFFCURVE",
"1086 1033 CURVE SMOOTH",
"1086 1013 OFFCURVE",
"1082 990 OFFCURVE",
"1080 981 CURVE",
"1472 981 LINE",
"1476 997 OFFCURVE",
"1481 1039 OFFCURVE",
"1481 1064 CURVE SMOOTH",
"1481 1254 OFFCURVE",
"1338 1500 OFFCURVE",
"950 1500 CURVE SMOOTH",
"429 1500 OFFCURVE",
"100 1074 OFFCURVE",
"100 539 CURVE SMOOTH",
"100 172 OFFCURVE",
"307 -26 OFFCURVE",
"621 -26 CURVE SMOOTH"
);
}
);
width = 1486;
},
{
anchors = (
{
name = bottom;
position = "{541, 0}";
},
{
name = top;
position = "{834, 1475}";
}
);
layerId = "2503C51C-5A6C-4B2C-A968-78FEA18C2585";
paths = (
{
closed = 1;
nodes = (
"791 -17 OFFCURVE",
"957 120 OFFCURVE",
"998 197 CURVE",
"956 0 LINE",
"988 0 LINE",
"1126 653 LINE",
"665 653 LINE",
"660 625 LINE",
"1090 625 LINE",
"1013 263 LINE",
"963 169 OFFCURVE",
"810 11 OFFCURVE",
"532 11 CURVE SMOOTH",
"294 11 OFFCURVE",
"154 216 OFFCURVE",
"154 504 CURVE SMOOTH",
"154 969 OFFCURVE",
"435 1459 OFFCURVE",
"856 1459 CURVE SMOOTH",
"1104 1459 OFFCURVE",
"1186 1290 OFFCURVE",
"1186 1121 CURVE SMOOTH",
"1186 1082 OFFCURVE",
"1180 1024 OFFCURVE",
"1172 993 CURVE",
"1202 993 LINE",
"1209 1023 OFFCURVE",
"1217 1081 OFFCURVE",
"1217 1123 CURVE SMOOTH",
"1217 1302 OFFCURVE",
"1127 1488 OFFCURVE",
"856 1488 CURVE SMOOTH",
"411 1488 OFFCURVE",
"123 990 OFFCURVE",
"123 502 CURVE SMOOTH",
"123 191 OFFCURVE",
"277 -17 OFFCURVE",
"532 -17 CURVE SMOOTH"
);
}
);
width = 1264;
},
{
anchors = (
{
name = bottom;
position = "{587, 0}";
},
{
name = top;
position = "{876, 1475}";
}
);
layerId = "BEF1FBB1-ACEC-4AC1-9895-C09886024D55";
paths = (
{
closed = 1;
nodes = (
"837 -20 OFFCURVE",
"961 124 OFFCURVE",
"990 164 CURVE",
"964 0 LINE",
"1091 0 LINE",
"1240 697 LINE",
"725 697 LINE",
"694 554 LINE",
"1055 554 LINE",
"1030 431 LINE",
"980 311 OFFCURVE",
"835 134 OFFCURVE",
"598 134 CURVE SMOOTH",
"409 134 OFFCURVE",
"275 273 OFFCURVE",
"275 528 CURVE SMOOTH",
"275 923 OFFCURVE",
"494 1337 OFFCURVE",
"866 1337 CURVE SMOOTH",
"1068 1337 OFFCURVE",
"1149 1210 OFFCURVE",
"1149 1074 CURVE SMOOTH",
"1149 1051 OFFCURVE",
"1144 1006 OFFCURVE",
"1139 985 CURVE",
"1305 985 LINE",
"1311 1007 OFFCURVE",
"1316 1055 OFFCURVE",
"1316 1087 CURVE SMOOTH",
"1316 1274 OFFCURVE",
"1199 1493 OFFCURVE",
"888 1493 CURVE SMOOTH",
"421 1493 OFFCURVE",
"104 1028 OFFCURVE",
"104 529 CURVE SMOOTH",
"104 193 OFFCURVE",
"299 -20 OFFCURVE",
"572 -20 CURVE SMOOTH"
);
}
);
width = 1350;
}
);
leftKerningGroup = O;
leftMetricsKey = O;
note = G;
rightKerningGroup = O;
rightMetricsKey = H;
unicode = 0047;
},
{
glyphname = Gstroke;
lastChange = "2020-06-06 15:57:41 +0000";
layers = (
{
layerId = "2503C51C-5A6C-4B2C-A968-78FEA18C2585";
paths = (
{
closed = 1;
nodes = (
"1171 354 LINE",
"1176 380 LINE",
"584 380 LINE",
"579 354 LINE"
);
},
{
closed = 1;
nodes = (
"792 -17 OFFCURVE",
"935 120 OFFCURVE",
"976 197 CURVE",
"934 0 LINE",
"966 0 LINE",
"1104 653 LINE",
"643 653 LINE",
"638 625 LINE",
"1068 625 LINE",
"990 262 LINE",
"940 168 OFFCURVE",
"808 11 OFFCURVE",
"520 11 CURVE SMOOTH",
"277 11 OFFCURVE",
"157 203 OFFCURVE",
"157 503 CURVE SMOOTH",
"157 970 OFFCURVE",
"412 1459 OFFCURVE",
"834 1459 CURVE SMOOTH",
"1082 1459 OFFCURVE",
"1164 1290 OFFCURVE",
"1164 1121 CURVE SMOOTH",
"1164 1082 OFFCURVE",
"1158 1024 OFFCURVE",
"1150 993 CURVE",
"1180 993 LINE",
"1188 1023 OFFCURVE",
"1195 1082 OFFCURVE",
"1195 1125 CURVE SMOOTH",
"1195 1303 OFFCURVE",
"1106 1488 OFFCURVE",
"836 1488 CURVE SMOOTH",
"393 1488 OFFCURVE",
"125 990 OFFCURVE",
"125 497 CURVE SMOOTH",
"125 178 OFFCURVE",
"261 -17 OFFCURVE",
"520 -17 CURVE SMOOTH"
);
}
);
width = 1198;
},
{
layerId = "3FDD6C00-F7FD-4E85-84B0-0136AF7D7529";
paths = (
{
closed = 1;
nodes = (
"1418 338 LINE",
"1463 547 LINE",
"754 547 LINE",
"709 338 LINE"
);
},
{
closed = 1;
nodes = (
"881 -26 OFFCURVE",
"1014 103 OFFCURVE",
"1046 163 CURVE",
"1052 0 LINE",
"1240 0 LINE",
"1417 829 LINE",
"814 829 LINE",
"763 590 LINE",
"1009 590 LINE",
"973 424 LINE",
"944 367 OFFCURVE",
"843 285 OFFCURVE",
"700 285 CURVE SMOOTH",
"595 285 OFFCURVE",
"499 325 OFFCURVE",
"499 532 CURVE SMOOTH",
"499 811 OFFCURVE",
"618 1188 OFFCURVE",
"897 1188 CURVE SMOOTH",
"1008 1188 OFFCURVE",
"1068 1111 OFFCURVE",
"1068 1025 CURVE SMOOTH",
"1068 1004 OFFCURVE",
"1063 980 OFFCURVE",
"1061 971 CURVE",
"1453 971 LINE",
"1458 990 OFFCURVE",
"1463 1033 OFFCURVE",
"1463 1063 CURVE SMOOTH",
"1463 1253 OFFCURVE",
"1335 1500 OFFCURVE",
"953 1500 CURVE SMOOTH",
"439 1500 OFFCURVE",
"95 1057 OFFCURVE",
"95 517 CURVE SMOOTH",
"95 158 OFFCURVE",
"287 -26 OFFCURVE",
"604 -26 CURVE SMOOTH"
);
}
);
width = 1466;
},
{
layerId = "BEF1FBB1-ACEC-4AC1-9895-C09886024D55";
paths = (
{
closed = 1;
nodes = (
"1260 326 LINE",
"1283 436 LINE",
"644 436 LINE",
"621 326 LINE"
);
},
{
closed = 1;
nodes = (
"813 -20 OFFCURVE",
"938 124 OFFCURVE",
"967 164 CURVE",
"941 0 LINE",
"1068 0 LINE",
"1217 697 LINE",
"702 697 LINE",
"671 554 LINE",
"1032 554 LINE",
"1003 409 LINE",
"953 289 OFFCURVE",
"812 134 OFFCURVE",
"575 134 CURVE SMOOTH",
"383 134 OFFCURVE",
"276 256 OFFCURVE",
"276 517 CURVE SMOOTH",
"276 922 OFFCURVE",
"468 1337 OFFCURVE",
"843 1337 CURVE SMOOTH",
"1045 1337 OFFCURVE",
"1126 1210 OFFCURVE",
"1126 1074 CURVE SMOOTH",
"1126 1051 OFFCURVE",
"1121 1006 OFFCURVE",
"1116 985 CURVE",
"1282 985 LINE",
"1288 1009 OFFCURVE",
"1294 1058 OFFCURVE",
"1294 1092 CURVE SMOOTH",
"1294 1278 OFFCURVE",
"1182 1493 OFFCURVE",
"866 1493 CURVE SMOOTH",
"401 1493 OFFCURVE",
"104 1021 OFFCURVE",
"104 519 CURVE SMOOTH",
"104 177 OFFCURVE",
"272 -20 OFFCURVE",
"548 -20 CURVE SMOOTH"
);
}
);
width = 1286;
}
);
leftKerningGroup = O;
leftMetricsKey = O;
unicode = 01E4;
},
{
glyphname = H;
lastChange = "2020-06-04 17:48:46 +0000";
layers = (
{
anchors = (
{
name = bottom;
position = "{630, 0}";
},
{
name = center;
position = "{787, 738}";
},
{
name = top;
position = "{944, 1475}";
},
{
name = topleft;
position = "{254, 1475}";
}
);
layerId = "3FDD6C00-F7FD-4E85-84B0-0136AF7D7529";
paths = (
{
closed = 1;
nodes = (
"1166 1475 LINE",
"1002 706 LINE",
"1222 884 LINE",
"407 884 LINE",
"551 706 LINE",
"715 1475 LINE",
"311 1475 LINE",
"-3 0 LINE",
"401 0 LINE",
"563 761 LINE",
"343 583 LINE",
"1158 583 LINE",
"1014 761 LINE",
"852 0 LINE",
"1256 0 LINE",
"1570 1475 LINE"
);
}
);
width = 1479;
},
{
anchors = (
{
name = bottom;
position = "{467, 0}";
},
{
name = center;
position = "{624, 738}";
},
{
name = top;
position = "{781, 1475}";
},
{
name = topleft;
position = "{317, 1475}";
}
);
layerId = "2503C51C-5A6C-4B2C-A968-78FEA18C2585";
paths = (
{
closed = 1;
nodes = (
"1176 1475 LINE",
"1018 734 LINE",
"1035 748 LINE",
"222 748 LINE",
"233 734 LINE",
"391 1475 LINE",
"361 1475 LINE",
"47 0 LINE",
"77 0 LINE",
"233 733 LINE",
"216 719 LINE",
"1029 719 LINE",
"1018 733 LINE",
"862 0 LINE",
"892 0 LINE",
"1206 1475 LINE"
);
}
);
width = 1165;
},
{
anchors = (
{
name = bottom;
position = "{528, 0}";
},
{
name = center;
position = "{685, 738}";
},
{
name = top;
position = "{842, 1475}";
},
{
name = topleft;
position = "{293, 1475}";
}
);
layerId = "BEF1FBB1-ACEC-4AC1-9895-C09886024D55";
paths = (
{
closed = 1;
nodes = (
"1172 1475 LINE",
"1012 723 LINE",
"1105 811 LINE",
"291 811 LINE",
"352 723 LINE",
"513 1475 LINE",
"342 1475 LINE",
"28 0 LINE",
"199 0 LINE",
"357 745 LINE",
"264 661 LINE",
"1077 661 LINE",
"1017 745 LINE",
"858 0 LINE",
"1029 0 LINE",
"1343 1475 LINE"
);
}
);
width = 1283;
}
);
leftKerningGroup = H;
note = H;
rightKerningGroup = H;
unicode = 0048;
},
{
glyphname = Hbar;
lastChange = "2020-06-04 17:49:06 +0000";
layers = (
{
components = (
{
name = H;
}
);
layerId = "3FDD6C00-F7FD-4E85-84B0-0136AF7D7529";
paths = (
{
closed = 1;
nodes = (
"1563 1083 LINE",
"1601 1262 LINE",
"188 1262 LINE",
"150 1083 LINE"
);
}
);
width = 1479;
},
{
components = (
{
name = H;
}
);
layerId = "2503C51C-5A6C-4B2C-A968-78FEA18C2585";
paths = (
{
closed = 1;
nodes = (
"1242 1143 LINE",
"1248 1169 LINE",
"192 1169 LINE",
"186 1143 LINE"
);
}
);
width = 1165;
},
{
components = (
{
alignment = -1;
name = H;
}
);
layerId = "BEF1FBB1-ACEC-4AC1-9895-C09886024D55";
paths = (
{
closed = 1;
nodes = (
"1352 1083 LINE",
"1380 1213 LINE",
"190 1213 LINE",
"162 1083 LINE"
);
}
);
width = 1283;
}
);
leftKerningGroup = H;
rightKerningGroup = H;
unicode = 0126;
},
{
glyphname = I;
lastChange = "2020-06-10 15:00:42 +0000";
layers = (
{
anchors = (
{
name = bottom;
position = "{192, 0}";
},
{
name = ogonek;
position = "{394, 0}";
},
{
name = top;
position = "{506, 1475}";
},
{
name = topleft;
position = "{198, 1475}";
}
);
layerId = "3FDD6C00-F7FD-4E85-84B0-0136AF7D7529";
paths = (
{
closed = 1;
nodes = (
"394 0 LINE",
"708 1475 LINE",
"304 1475 LINE",
"-10 0 LINE"
);
}
);
width = 614;
},
{
anchors = (
{
name = bottom;
position = "{88, 0}";
},
{
name = ogonek;
position = "{104, 0}";
},
{
name = top;
position = "{403, 1475}";
},
{
name = topleft;
position = "{241, 1475}";
}
);
layerId = "2503C51C-5A6C-4B2C-A968-78FEA18C2585";
paths = (
{
closed = 1;
nodes = (
"104 0 LINE",
"417 1475 LINE",
"386 1475 LINE",
"73 0 LINE"
);
}
);
width = 410;
},
{
anchors = (
{
name = bottom;
position = "{116, 0}";
},
{
name = ogonek;
position = "{202, 0}";
},
{
name = top;
position = "{431, 1475}";
},
{
name = topleft;
position = "{214, 1475}";
}
);
layerId = "BEF1FBB1-ACEC-4AC1-9895-C09886024D55";
paths = (
{
closed = 1;
nodes = (
"202 0 LINE",
"514 1475 LINE",
"345 1475 LINE",
"32 0 LINE"
);
}
);
width = 464;
}
);
leftKerningGroup = H;
note = I;
rightKerningGroup = H;
unicode = 0049;
},
{
glyphname = J;
lastChange = "2020-06-17 15:31:35 +0000";
layers = (
{
anchors = (
{
name = bottom;
position = "{504, 0}";
},
{
name = top;
position = "{1123, 1475}";
}
);
layerId = "3FDD6C00-F7FD-4E85-84B0-0136AF7D7529";
paths = (
{
closed = 1;
nodes = (
"921 -26 OFFCURVE",
"1047 219 OFFCURVE",
"1105 493 CURVE SMOOTH",
"1313 1475 LINE",
"910 1475 LINE",
"714 551 LINE SMOOTH",
"680 389 OFFCURVE",
"652 285 OFFCURVE",
"539 285 CURVE SMOOTH",
"451 285 OFFCURVE",
"424 332 OFFCURVE",
"424 402 CURVE SMOOTH",
"424 464 OFFCURVE",
"440 530 OFFCURVE",
"449 567 CURVE",
"48 567 LINE",
"30 495 OFFCURVE",
"11 417 OFFCURVE",
"11 334 CURVE SMOOTH",
"11 119 OFFCURVE",
"168 -26 OFFCURVE",
"494 -26 CURVE SMOOTH"
);
}
);
width = 1223;
},
{
anchors = (
{
name = bottom;
position = "{370, 0}";
},
{
name = top;
position = "{1026, 1475}";
}
);
layerId = "2503C51C-5A6C-4B2C-A968-78FEA18C2585";
paths = (
{
closed = 1;
nodes = (
"612 -17 OFFCURVE",
"764 171 OFFCURVE",
"826 463 CURVE SMOOTH",
"1041 1475 LINE",
"1011 1475 LINE",
"796 463 LINE SMOOTH",
"737 186 OFFCURVE",
"591 11 OFFCURVE",
"365 11 CURVE SMOOTH",
"185 11 OFFCURVE",
"102 121 OFFCURVE",
"102 294 CURVE SMOOTH",
"102 356 OFFCURVE",
"112 417 OFFCURVE",
"129 494 CURVE",
"100 494 LINE",
"86 436 OFFCURVE",
"72 352 OFFCURVE",
"72 290 CURVE SMOOTH",
"72 101 OFFCURVE",
"166 -17 OFFCURVE",
"363 -17 CURVE SMOOTH"
);
}
);
width = 1000;
},
{
anchors = (
{
name = bottom;
position = "{418, 0}";
},
{
name = top;
position = "{1062, 1475}";
}
);
layerId = "BEF1FBB1-ACEC-4AC1-9895-C09886024D55";
paths = (
{
closed = 1;
nodes = (
"728 -20 OFFCURVE",
"872 189 OFFCURVE",
"932 474 CURVE SMOOTH",
"1143 1475 LINE",
"973 1475 LINE",
"765 496 LINE SMOOTH",
"715 262 OFFCURVE",
"614 133 OFFCURVE",
"430 133 CURVE SMOOTH",
"285 133 OFFCURVE",
"223 200 OFFCURVE",
"223 335 CURVE SMOOTH",
"223 397 OFFCURVE",
"235 459 OFFCURVE",
"249 521 CURVE",
"81 521 LINE",
"65 458 OFFCURVE",
"49 376 OFFCURVE",
"49 307 CURVE SMOOTH",
"49 108 OFFCURVE",
"167 -20 OFFCURVE",
"412 -20 CURVE SMOOTH"
);
}
);
width = 1085;
}
);
leftKerningGroup = J;
note = J;
rightKerningGroup = H;
rightMetricsKey = H;
unicode = 004A;
},
{
glyphname = K;
lastChange = "2020-06-04 19:17:11 +0000";
layers = (
{
anchors = (
{
name = bottom;
position = "{619, 0}";
},
{
name = top;
position = "{953, 1475}";
}
);
layerId = "3FDD6C00-F7FD-4E85-84B0-0136AF7D7529";
paths = (
{
closed = 1;
nodes = (
"1549 1475 LINE",
"1117 1475 LINE",
"463 769 LINE",
"557 739 LINE",
"715 1475 LINE",
"311 1475 LINE",
"-1 0 LINE",
"402 0 LINE",
"519 555 LINE",
"443 304 LINE",
"784 671 LINE",
"637 695 LINE",
"832 0 LINE",
"1253 0 LINE",
"886 1003 LINE",
"821 695 LINE"
);
}
);
width = 1420;
},
{
anchors = (
{
name = bottom;
position = "{403, 0}";
},
{
name = top;
position = "{757, 1475}";
}
);
layerId = "2503C51C-5A6C-4B2C-A968-78FEA18C2585";
paths = (
{
closed = 1;
nodes = (
"1069 1475 LINE",
"1032 1475 LINE",
"196 621 LINE",
"211 619 LINE",
"393 1475 LINE",
"361 1475 LINE",
"49 0 LINE",
"80 0 LINE",
"207 601 LINE",
"194 575 LINE",
"390 774 LINE",
"376 776 LINE",
"767 0 LINE",
"803 0 LINE",
"399 804 LINE",
"397 778 LINE"
);
}
);
width = 1006;
},
{
anchors = (
{
name = bottom;
position = "{485, 0}";
},
{
name = top;
position = "{832, 1475}";
}
);
layerId = "BEF1FBB1-ACEC-4AC1-9895-C09886024D55";
paths = (
{
closed = 1;
nodes = (
"1268 1475 LINE",
"1068 1475 LINE",
"301 700 LINE",
"340 664 LINE",
"513 1475 LINE",
"342 1475 LINE",
"28 0 LINE",
"199 0 LINE",
"323 584 LINE",
"282 473 LINE",
"537 735 LINE",
"462 746 LINE",
"807 0 LINE",
"990 0 LINE",
"587 879 LINE",
"555 747 LINE"
);
}
);
width = 1162;
}
);
leftKerningGroup = H;
leftMetricsKey = H;
note = K;
rightKerningGroup = K;
unicode = 004B;
},
{
glyphname = L;
lastChange = "2020-06-17 16:25:16 +0000";
layers = (
{
anchors = (
{
name = bottom;
position = "{479, 0}";
},
{
name = center;
position = "{350, 738}";
},
{
name = top;
position = "{505, 1475}";
},
{
name = topright;
position = "{796, 974}";
}
);
layerId = "3FDD6C00-F7FD-4E85-84B0-0136AF7D7529";
paths = (
{
closed = 1;
nodes = (
"927 0 LINE",
"995 321 LINE",
"287 321 LINE",
"427 119 LINE",
"715 1475 LINE",
"311 1475 LINE",
"-3 0 LINE"
);
}
);
width = 1105;
},
{
anchors = (
{
name = bottom;
position = "{402, 0}";
},
{
name = center;
position = "{225, 738}";
},
{
name = top;
position = "{391, 1475}";
},
{
name = topright;
position = "{656, 974}";
}
);
layerId = "2503C51C-5A6C-4B2C-A968-78FEA18C2585";
paths = (
{
closed = 1;
nodes = (
"694 0 LINE",
"701 28 LINE",
"69 28 LINE",
"80 14 LINE",
"391 1475 LINE",
"361 1475 LINE",
"48 0 LINE"
);
}
);
width = 906;
},
{
anchors = (
{
name = bottom;
position = "{430, 0}";
},
{
name = center;
position = "{271, 738}";
},
{
name = top;
position = "{433, 1475}";
},
{
name = topright;
position = "{725, 974}";
}
);
layerId = "BEF1FBB1-ACEC-4AC1-9895-C09886024D55";
paths = (
{
closed = 1;
nodes = (
"781 0 LINE",
"813 150 LINE",
"154 150 LINE",
"211 53 LINE",
"513 1475 LINE",
"342 1475 LINE",
"28 0 LINE"
);
}
);
width = 980;
}
);
leftKerningGroup = H;
leftMetricsKey = H;
note = L;
rightKerningGroup = L;
unicode = 004C;
},
{
glyphname = Lslash;
lastChange = "2020-06-04 23:48:48 +0000";
layers = (
{
components = (
{
name = L;
transform = "{1, 0, 0, 1, 169, 0}";
}
);
layerId = "3FDD6C00-F7FD-4E85-84B0-0136AF7D7529";
paths = (
{
closed = 1;
nodes = (
"965 1045 LINE",
"0 643 LINE",
"83 365 LINE",
"1045 767 LINE"
);
}
);
width = 1274;
},
{
components = (
{
name = L;
}
);
layerId = "2503C51C-5A6C-4B2C-A968-78FEA18C2585";
paths = (
{
closed = 1;
nodes = (
"529 911 LINE",
"-20 437 LINE",
"-2 417 LINE",
"547 892 LINE"
);
}
);
width = 906;
},
{
components = (
{
alignment = -1;
name = L;
transform = "{1, 0, 0, 1, 63, 0}";
}
);
layerId = "BEF1FBB1-ACEC-4AC1-9895-C09886024D55";
paths = (
{
closed = 1;
nodes = (
"693 961 LINE",
"-13 514 LINE",
"30 398 LINE",
"734 845 LINE"
);
}
);
width = 1043;
}
);
leftKerningGroup = H;
rightKerningGroup = L;
rightMetricsKey = L;
unicode = 0141;
},
{
glyphname = M;
lastChange = "2020-06-17 13:39:27 +0000";
layers = (
{
anchors = (
{
name = bottom;
position = "{903, 0}";
},
{
name = top;
position = "{1190, 1475}";
}
);
layerId = "3FDD6C00-F7FD-4E85-84B0-0136AF7D7529";
paths = (
{
closed = 1;
nodes = (
"882 154 LINE",
"923 154 LINE",
"992 1475 LINE",
"321 1475 LINE",
"7 0 LINE",
"391 0 LINE",
"660 1263 LINE",
"652 1259 LINE",
"620 0 LINE",
"1134 0 LINE",
"1630 1256 LINE",
"1624 1260 LINE",
"1356 0 LINE",
"1739 0 LINE",
"2053 1475 LINE",
"1366 1475 LINE"
);
}
);
width = 1972;
},
{
anchors = (
{
name = bottom;
position = "{635, 0}";
},
{
name = top;
position = "{886, 1475}";
}
);
layerId = "2503C51C-5A6C-4B2C-A968-78FEA18C2585";
paths = (
{
closed = 1;
nodes = (
"592 11 LINE",
"600 11 LINE",
"435 1475 LINE",
"388 1475 LINE",
"74 0 LINE",
"105 0 LINE",
"410 1433 LINE",
"406 1433 LINE",
"570 0 LINE",
"622 0 LINE",
"1397 1431 LINE",
"1393 1433 LINE",
"1088 0 LINE",
"1119 0 LINE",
"1433 1475 LINE",
"1384 1475 LINE"
);
}
);
width = 1421;
},
{
anchors = (
{
name = bottom;
position = "{736, 0}";
},
{
name = top;
position = "{1008, 1475}";
}
);
layerId = "BEF1FBB1-ACEC-4AC1-9895-C09886024D55";
paths = (
{
closed = 1;
nodes = (
"722 137 LINE",
"724 137 LINE",
"647 1475 LINE",
"358 1475 LINE",
"44 0 LINE",
"206 0 LINE",
"491 1340 LINE",
"486 1338 LINE",
"579 0 LINE",
"823 0 LINE",
"1483 1337 LINE",
"1479 1339 LINE",
"1194 0 LINE",
"1356 0 LINE",
"1670 1475 LINE",
"1371 1475 LINE"
);
}
);
width = 1628;
}
);
leftKerningGroup = H;
note = M;
rightKerningGroup = H;
unicode = 004D;
},
{
glyphname = N;
lastChange = "2020-06-04 17:52:06 +0000";
layers = (
{
anchors = (
{
name = bottom;
position = "{696, 0}";
},
{
name = top;
position = "{1010, 1475}";
}
);
layerId = "3FDD6C00-F7FD-4E85-84B0-0136AF7D7529";
paths = (
{
closed = 1;
nodes = (
"680 1365 LINE",
"647 1349 LINE",
"674 0 LINE",
"1335 0 LINE",
"1649 1475 LINE",
"1256 1475 LINE",
"965 105 LINE",
"993 121 LINE",
"967 1475 LINE",
"311 1475 LINE",
"-3 0 LINE",
"390 0 LINE"
);
}
);
width = 1558;
},
{
anchors = (
{
name = bottom;
position = "{504, 0}";
},
{
name = top;
position = "{818, 1475}";
}
);
layerId = "2503C51C-5A6C-4B2C-A968-78FEA18C2585";
paths = (
{
closed = 1;
nodes = (
"387 1456 LINE",
"385 1454 LINE",
"886 0 LINE",
"936 0 LINE",
"1250 1475 LINE",
"1220 1475 LINE",
"910 17 LINE",
"912 20 LINE",
"409 1475 LINE",
"361 1475 LINE",
"47 0 LINE",
"77 0 LINE"
);
}
);
width = 1209;
},
{
anchors = (
{
name = bottom;
position = "{576, 0}";
},
{
name = top;
position = "{890, 1475}";
}
);
layerId = "BEF1FBB1-ACEC-4AC1-9895-C09886024D55";
paths = (
{
closed = 1;
nodes = (
"488 1382 LINE",
"472 1375 LINE",
"803 0 LINE",
"1086 0 LINE",
"1400 1475 LINE",
"1234 1475 LINE",
"939 90 LINE",
"954 98 LINE",
"621 1475 LINE",
"342 1475 LINE",
"28 0 LINE",
"194 0 LINE"
);
}
);
width = 1340;
}
);
leftKerningGroup = H;
leftMetricsKey = H;
note = N;
rightKerningGroup = H;
rightMetricsKey = H;
unicode = 004E;
},
{
glyphname = Eng;
lastChange = "2020-06-04 19:17:11 +0000";
layers = (
{
layerId = "3FDD6C00-F7FD-4E85-84B0-0136AF7D7529";
paths = (
{
closed = 1;
nodes = (
"1044 -456 OFFCURVE",
"1259 -363 OFFCURVE",
"1332 -19 CURVE SMOOTH",
"1649 1475 LINE",
"1256 1475 LINE",
"954 56 LINE",
"993 52 LINE",
"987 1475 LINE",
"311 1475 LINE",
"-3 0 LINE",
"390 0 LINE",
"686 1391 LINE",
"647 1395 LINE",
"654 0 LINE",
"937 0 LINE",
"931 -28 LINE SMOOTH",
"906 -146 OFFCURVE",
"782 -169 OFFCURVE",
"665 -169 CURVE SMOOTH",
"626 -169 OFFCURVE",
"567 -162 OFFCURVE",
"550 -156 CURVE",
"488 -446 LINE",
"503 -449 OFFCURVE",
"567 -456 OFFCURVE",
"611 -456 CURVE SMOOTH"
);
}
);
width = 1559;
},
{
layerId = "2503C51C-5A6C-4B2C-A968-78FEA18C2585";
paths = (
{
closed = 1;
nodes = (
"807 -457 OFFCURVE",
"882 -255 OFFCURVE",
"916 -96 CURVE SMOOTH",
"1250 1475 LINE",
"1220 1475 LINE",
"908 8 LINE",
"916 9 LINE",
"409 1475 LINE",
"361 1475 LINE",
"47 0 LINE",
"77 0 LINE",
"389 1465 LINE",
"381 1464 LINE",
"886 0 LINE",
"906 0 LINE",
"885 -96 LINE SMOOTH",
"857 -224 OFFCURVE",
"791 -429 OFFCURVE",
"559 -429 CURVE SMOOTH",
"518 -429 OFFCURVE",
"481 -422 OFFCURVE",
"464 -416 CURVE",
"458 -444 LINE",
"473 -450 OFFCURVE",
"512 -457 OFFCURVE",
"557 -457 CURVE SMOOTH"
);
}
);
width = 1209;
},
{
layerId = "BEF1FBB1-ACEC-4AC1-9895-C09886024D55";
paths = (
{
closed = 1;
nodes = (
"891 -457 OFFCURVE",
"1024 -296 OFFCURVE",
"1073 -67 CURVE SMOOTH",
"1400 1475 LINE",
"1234 1475 LINE",
"944 109 LINE",
"967 113 LINE",
"611 1475 LINE",
"342 1475 LINE",
"29 0 LINE",
"195 0 LINE",
"483 1358 LINE",
"476 1354 LINE",
"830 0 LINE",
"918 0 LINE",
"903 -71 LINE SMOOTH",
"877 -195 OFFCURVE",
"788 -332 OFFCURVE",
"599 -332 CURVE SMOOTH",
"559 -332 OFFCURVE",
"514 -325 OFFCURVE",
"497 -319 CURVE",
"470 -445 LINE",
"484 -450 OFFCURVE",
"527 -457 OFFCURVE",
"572 -457 CURVE SMOOTH"
);
}
);
width = 1341;
}
);
leftKerningGroup = H;
leftMetricsKey = H;
rightKerningGroup = H;
rightMetricsKey = H;
unicode = 014A;
},
{
glyphname = Nhookleft;
lastChange = "2020-06-04 19:17:11 +0000";
layers = (
{
anchors = (
{
name = bottom;
position = "{504, 0}";
},
{
name = top;
position = "{818, 1475}";
}
);
layerId = "2503C51C-5A6C-4B2C-A968-78FEA18C2585";
paths = (
{
closed = 1;
nodes = (
"-59 -437 OFFCURVE",
"20 -268 OFFCURVE",
"56 -98 CURVE SMOOTH",
"389 1465 LINE",
"381 1464 LINE",
"886 0 LINE",
"936 0 LINE",
"1250 1475 LINE",
"1220 1475 LINE",
"908 8 LINE",
"916 9 LINE",
"409 1475 LINE",
"361 1475 LINE",
"26 -96 LINE SMOOTH",
"-2 -225 OFFCURVE",
"-71 -409 OFFCURVE",
"-296 -409 CURVE",
"-300 -437 LINE"
);
}
);
width = 1209;
},
{
anchors = (
{
name = bottom;
position = "{696, 0}";
},
{
name = top;
position = "{1010, 1475}";
}
);
layerId = "3FDD6C00-F7FD-4E85-84B0-0136AF7D7529";
paths = (
{
closed = 1;
nodes = (
"206 -467 OFFCURVE",
"326 -301 OFFCURVE",
"383 -33 CURVE SMOOTH",
"686 1391 LINE",
"647 1395 LINE",
"654 0 LINE",
"1335 0 LINE",
"1649 1475 LINE",
"1256 1475 LINE",
"954 56 LINE",
"993 52 LINE",
"987 1475 LINE",
"311 1475 LINE",
"-4 -5 LINE SMOOTH",
"-27 -120 OFFCURVE",
"-89 -187 OFFCURVE",
"-219 -187 CURVE",
"-275 -467 LINE"
);
}
);
width = 1558;
},
{
anchors = (
{
name = bottom;
position = "{576, 0}";
},
{
name = top;
position = "{890, 1475}";
}
);
layerId = "BEF1FBB1-ACEC-4AC1-9895-C09886024D55";
paths = (
{
closed = 1;
nodes = (
"59 -461 OFFCURVE",
"142 -247 OFFCURVE",
"181 -66 CURVE SMOOTH",
"485 1368 LINE",
"473 1364 LINE",
"805 0 LINE",
"1087 0 LINE",
"1400 1475 LINE",
"1234 1475 LINE",
"942 99 LINE",
"955 103 LINE",
"621 1475 LINE",
"342 1475 LINE",
"15 -66 LINE SMOOTH",
"-12 -193 OFFCURVE",
"-85 -338 OFFCURVE",
"-267 -340 CURVE",
"-293 -465 LINE"
);
}
);
width = 1341;
}
);
leftKerningGroup = H;
rightKerningGroup = H;
rightMetricsKey = N;
unicode = 019D;
},
{
glyphname = O;
lastChange = "2020-06-17 15:31:47 +0000";
layers = (
{
anchors = (
{
name = bottom;
position = "{691, 0}";
},
{
name = center;
position = "{823, 738}";
},
{
name = ogonek;
position = "{959, 47}";
},
{
name = top;
position = "{964, 1475}";
},
{
name = topleft;
position = "{278, 1475}";
},
{
name = topright;
position = "{1310, 1392}";
}
);
layerId = "3FDD6C00-F7FD-4E85-84B0-0136AF7D7529";
paths = (
{
closed = 1;
nodes = (
"1209 -26 OFFCURVE",
"1555 380 OFFCURVE",
"1555 897 CURVE SMOOTH",
"1555 1294 OFFCURVE",
"1297 1500 OFFCURVE",
"962 1500 CURVE SMOOTH",
"448 1500 OFFCURVE",
"106 1103 OFFCURVE",
"106 584 CURVE SMOOTH",
"106 184 OFFCURVE",
"367 -26 OFFCURVE",
"698 -26 CURVE SMOOTH"
);
},
{
closed = 1;
nodes = (
"611 286 OFFCURVE",
"516 358 OFFCURVE",
"516 585 CURVE SMOOTH",
"516 880 OFFCURVE",
"634 1188 OFFCURVE",
"926 1188 CURVE SMOOTH",
"1047 1188 OFFCURVE",
"1146 1121 OFFCURVE",
"1146 901 CURVE SMOOTH",
"1146 614 OFFCURVE",
"1023 286 OFFCURVE",
"734 286 CURVE SMOOTH"
);
}
);
width = 1572;
},
{
anchors = (
{
name = bottom;
position = "{539, 0}";
},
{
name = center;
position = "{691, 738}";
},
{
name = ogonek;
position = "{742, 37}";
},
{
name = top;
position = "{849, 1475}";
},
{
name = topleft;
position = "{272, 1475}";
},
{
name = topright;
position = "{1149, 1338}";
}
);
layerId = "2503C51C-5A6C-4B2C-A968-78FEA18C2585";
paths = (
{
closed = 1;
nodes = (
"981 -17 OFFCURVE",
"1261 483 OFFCURVE",
"1261 977 CURVE SMOOTH",
"1261 1294 OFFCURVE",
"1108 1488 OFFCURVE",
"847 1488 CURVE SMOOTH",
"404 1488 OFFCURVE",
"124 992 OFFCURVE",
"124 499 CURVE SMOOTH",
"124 183 OFFCURVE",
"276 -17 OFFCURVE",
"539 -17 CURVE SMOOTH"
);
},
{
closed = 1;
nodes = (
"295 11 OFFCURVE",
"156 209 OFFCURVE",
"156 505 CURVE SMOOTH",
"156 971 OFFCURVE",
"427 1460 OFFCURVE",
"847 1460 CURVE SMOOTH",
"1091 1460 OFFCURVE",
"1230 1268 OFFCURVE",
"1230 972 CURVE SMOOTH",
"1230 505 OFFCURVE",
"959 11 OFFCURVE",
"539 11 CURVE SMOOTH"
);
}
);
width = 1298;
},
{
anchors = (
{
name = bottom;
position = "{579, 0}";
},
{
name = center;
position = "{733, 738}";
},
{
name = ogonek;
position = "{816, 41}";
},
{
name = top;
position = "{889, 1475}";
},
{
name = topleft;
position = "{267, 1475}";
},
{
name = topright;
position = "{1202, 1358}";
}
);
layerId = "BEF1FBB1-ACEC-4AC1-9895-C09886024D55";
paths = (
{
closed = 1;
nodes = (
"1052 -20 OFFCURVE",
"1363 446 OFFCURVE",
"1363 942 CURVE SMOOTH",
"1363 1296 OFFCURVE",
"1175 1493 OFFCURVE",
"883 1493 CURVE SMOOTH",
"416 1493 OFFCURVE",
"106 1033 OFFCURVE",
"106 536 CURVE SMOOTH",
"106 181 OFFCURVE",
"295 -20 OFFCURVE",
"586 -20 CURVE SMOOTH"
);
},
{
closed = 1;
nodes = (
"407 134 OFFCURVE",
"276 266 OFFCURVE",
"276 535 CURVE SMOOTH",
"276 923 OFFCURVE",
"489 1338 OFFCURVE",
"861 1338 CURVE SMOOTH",
"1060 1338 OFFCURVE",
"1192 1209 OFFCURVE",
"1192 941 CURVE SMOOTH",
"1192 553 OFFCURVE",
"977 134 OFFCURVE",
"605 134 CURVE SMOOTH"
);
}
);
width = 1386;
}
);
leftKerningGroup = O;
note = O;
rightKerningGroup = O;
unicode = 004F;
},
{
glyphname = Ohorn;
lastChange = "2020-06-18 11:36:09 +0000";
layers = (
{
anchors = (
{
name = bottom;
position = "{536, 0}";
},
{
name = top;
position = "{850, 1475}";
}
);
components = (
{
name = O;
}
);
layerId = "2503C51C-5A6C-4B2C-A968-78FEA18C2585";
paths = (
{
closed = 1;
nodes = (
"1143 1310 LINE",
"1296 1310 OFFCURVE",
"1394 1406 OFFCURVE",
"1414 1591 CURVE",
"1382 1591 LINE",
"1364 1420 OFFCURVE",
"1273 1338 OFFCURVE",
"1149 1338 CURVE"
);
}
);
width = 1298;
},
{
anchors = (
{
name = bottom;
position = "{673, 0}";
},
{
name = top;
position = "{987, 1475}";
}
);
components = (
{
name = O;
}
);
layerId = "3FDD6C00-F7FD-4E85-84B0-0136AF7D7529";
paths = (
{
closed = 1;
nodes = (
"1270 1202 LINE",
"1537 1202 OFFCURVE",
"1685 1339 OFFCURVE",
"1718 1653 CURVE",
"1474 1653 LINE",
"1456 1482 OFFCURVE",
"1412 1392 OFFCURVE",
"1310 1392 CURVE"
);
}
);
width = 1572;
},
{
anchors = (
{
name = bottom;
position = "{580, 0}";
},
{
name = top;
position = "{894, 1475}";
}
);
components = (
{
name = O;
}
);
layerId = "BEF1FBB1-ACEC-4AC1-9895-C09886024D55";
paths = (
{
closed = 1;
nodes = (
"1183 1269 LINE",
"1379 1269 OFFCURVE",
"1496 1381 OFFCURVE",
"1521 1614 CURVE",
"1409 1614 LINE",
"1391 1443 OFFCURVE",
"1318 1358 OFFCURVE",
"1202 1358 CURVE"
);
}
);
width = 1386;
}
);
leftKerningGroup = O;
rightKerningGroup = Ohorn;
unicode = 01A0;
},
{
glyphname = Oogonek;
lastChange = "2020-06-08 14:59:40 +0000";
layers = (
{
components = (
{
name = O;
}
);
layerId = "2503C51C-5A6C-4B2C-A968-78FEA18C2585";
paths = (
{
closed = 1;
nodes = (
"701 -324 OFFCURVE",
"663 -328 OFFCURVE",
"635 -328 CURVE SMOOTH",
"573 -328 OFFCURVE",
"538 -299 OFFCURVE",
"538 -242 CURVE SMOOTH",
"538 -146 OFFCURVE",
"671 -37 OFFCURVE",
"762 37 CURVE",
"724 37 LINE",
"621 -35 OFFCURVE",
"502 -139 OFFCURVE",
"502 -248 CURVE SMOOTH",
"502 -326 OFFCURVE",
"556 -359 OFFCURVE",
"628 -359 CURVE SMOOTH",
"659 -359 OFFCURVE",
"697 -355 OFFCURVE",
"721 -350 CURVE",
"724 -319 LINE"
);
}
);
width = 1298;
},
{
components = (
{
name = O;
}
);
layerId = "3FDD6C00-F7FD-4E85-84B0-0136AF7D7529";
paths = (
{
closed = 1;
nodes = (
"959 -226 OFFCURVE",
"932 -229 OFFCURVE",
"908 -229 CURVE SMOOTH",
"860 -229 OFFCURVE",
"821 -220 OFFCURVE",
"821 -175 CURVE SMOOTH",
"821 -114 OFFCURVE",
"955 7 OFFCURVE",
"1009 47 CURVE",
"821 47 LINE",
"737 -5 OFFCURVE",
"583 -127 OFFCURVE",
"583 -261 CURVE SMOOTH",
"583 -377 OFFCURVE",
"723 -415 OFFCURVE",
"867 -415 CURVE SMOOTH",
"901 -415 OFFCURVE",
"933 -413 OFFCURVE",
"961 -410 CURVE",
"981 -223 LINE"
);
}
);
width = 1572;
},
{
components = (
{
name = O;
}
);
layerId = "BEF1FBB1-ACEC-4AC1-9895-C09886024D55";
paths = (
{
closed = 1;
nodes = (
"787 -298 OFFCURVE",
"754 -302 OFFCURVE",
"728 -302 CURVE SMOOTH",
"667 -302 OFFCURVE",
"634 -281 OFFCURVE",
"634 -228 CURVE SMOOTH",
"634 -147 OFFCURVE",
"776 -23 OFFCURVE",
"856 41 CURVE",
"748 41 LINE",
"658 -22 OFFCURVE",
"530 -132 OFFCURVE",
"530 -240 CURVE SMOOTH",
"530 -338 OFFCURVE",
"601 -391 OFFCURVE",
"707 -391 CURVE SMOOTH",
"739 -391 OFFCURVE",
"775 -388 OFFCURVE",
"801 -384 CURVE",
"810 -294 LINE"
);
}
);
width = 1386;
}
);
leftKerningGroup = O;
rightKerningGroup = O;
unicode = 01EA;
},
{
glyphname = Oslash;
lastChange = "2020-06-08 15:00:40 +0000";
layers = (
{
anchors = (
{
name = bottom;
position = "{649, 0}";
},
{
name = top;
position = "{963, 1475}";
}
);
components = (
{
name = O;
}
);
layerId = "3FDD6C00-F7FD-4E85-84B0-0136AF7D7529";
paths = (
{
closed = 1;
nodes = (
"1394 1601 LINE",
"71 -8 LINE",
"250 -125 LINE",
"1575 1484 LINE"
);
}
);
width = 1572;
},
{
anchors = (
{
name = bottom;
position = "{536, 0}";
},
{
name = top;
position = "{850, 1475}";
}
);
components = (
{
name = O;
}
);
layerId = "2503C51C-5A6C-4B2C-A968-78FEA18C2585";
paths = (
{
closed = 1;
nodes = (
"1303 1531 LINE",
"53 -34 LINE",
"77 -55 LINE",
"1329 1511 LINE"
);
}
);
width = 1298;
},
{
anchors = (
{
name = bottom;
position = "{578, 0}";
},
{
name = top;
position = "{892, 1475}";
}
);
components = (
{
name = O;
}
);
layerId = "BEF1FBB1-ACEC-4AC1-9895-C09886024D55";
paths = (
{
closed = 1;
nodes = (
"1330 1557 LINE",
"52 -25 LINE",
"135 -82 LINE",
"1414 1501 LINE"
);
}
);
width = 1386;
}
);
leftKerningGroup = O;
rightKerningGroup = O;
unicode = 00D8;
},
{
glyphname = OE;
lastChange = "2020-06-06 15:57:41 +0000";
layers = (
{
anchors = (
{
name = bottom;
position = "{968, 0}";
},
{
name = top;
position = "{1282, 1475}";
}
);
layerId = "3FDD6C00-F7FD-4E85-84B0-0136AF7D7529";
paths = (
{
closed = 1;
nodes = (
"776 -26 OFFCURVE",
"890 -2 OFFCURVE",
"951 35 CURVE",
"942 0 LINE",
"1899 0 LINE",
"1963 300 LINE",
"1210 300 LINE",
"1355 122 LINE",
"1474 692 LINE",
"1351 590 LINE",
"1914 590 LINE",
"1977 890 LINE",
"1413 890 LINE",
"1496 792 LINE",
"1616 1353 LINE",
"1396 1175 LINE",
"2149 1175 LINE",
"2213 1475 LINE",
"1256 1475 LINE",
"1245 1418 LINE",
"1179 1466 OFFCURVE",
"1057 1500 OFFCURVE",
"941 1500 CURVE SMOOTH",
"431 1500 OFFCURVE",
"106 1095 OFFCURVE",
"106 578 CURVE SMOOTH",
"106 191 OFFCURVE",
"344 -26 OFFCURVE",
"681 -26 CURVE SMOOTH"
);
},
{
closed = 1;
nodes = (
"596 286 OFFCURVE",
"514 354 OFFCURVE",
"514 565 CURVE SMOOTH",
"514 854 OFFCURVE",
"619 1188 OFFCURVE",
"907 1188 CURVE SMOOTH",
"1026 1188 OFFCURVE",
"1108 1123 OFFCURVE",
"1108 913 CURVE SMOOTH",
"1108 626 OFFCURVE",
"1000 286 OFFCURVE",
"715 286 CURVE SMOOTH"
);
}
);
width = 2122;
},
{
anchors = (
{
name = bottom;
position = "{878, 0}";
},
{
name = top;
position = "{1192, 1475}";
}
);
layerId = "2503C51C-5A6C-4B2C-A968-78FEA18C2585";
paths = (
{
closed = 1;
nodes = (
"787 -17 OFFCURVE",
"989 171 OFFCURVE",
"1105 429 CURVE",
"1014 0 LINE",
"1729 0 LINE",
"1735 28 LINE",
"1037 28 LINE",
"1048 14 LINE",
"1203 740 LINE",
"1186 726 LINE",
"1773 726 LINE",
"1779 754 LINE",
"1192 754 LINE",
"1203 740 LINE",
"1356 1461 LINE",
"1339 1447 LINE",
"2037 1447 LINE",
"2043 1475 LINE",
"1328 1475 LINE",
"1221 972 LINE",
"1221 1312 OFFCURVE",
"1087 1488 OFFCURVE",
"827 1488 CURVE SMOOTH",
"384 1488 OFFCURVE",
"124 982 OFFCURVE",
"124 489 CURVE SMOOTH",
"124 173 OFFCURVE",
"256 -17 OFFCURVE",
"519 -17 CURVE SMOOTH"
);
},
{
closed = 1;
nodes = (
"275 11 OFFCURVE",
"156 199 OFFCURVE",
"156 495 CURVE SMOOTH",
"156 961 OFFCURVE",
"407 1460 OFFCURVE",
"827 1460 CURVE SMOOTH",
"1071 1460 OFFCURVE",
"1190 1278 OFFCURVE",
"1190 982 CURVE SMOOTH",
"1190 515 OFFCURVE",
"939 11 OFFCURVE",
"519 11 CURVE SMOOTH"
);
}
);
width = 2002;
},
{
anchors = (
{
name = bottom;
position = "{904, 0}";
},
{
name = top;
position = "{1218, 1475}";
}
);
layerId = "BEF1FBB1-ACEC-4AC1-9895-C09886024D55";
paths = (
{
closed = 1;
nodes = (
"768 -20 OFFCURVE",
"940 67 OFFCURVE",
"1015 187 CURVE",
"976 0 LINE",
"1782 0 LINE",
"1814 150 LINE",
"1095 150 LINE",
"1152 53 LINE",
"1293 720 LINE",
"1237 665 LINE",
"1853 665 LINE",
"1885 815 LINE",
"1270 815 LINE",
"1302 761 LINE",
"1443 1422 LINE",
"1345 1325 LINE",
"2064 1325 LINE",
"2096 1475 LINE",
"1290 1475 LINE",
"1243 1246 LINE",
"1220 1378 OFFCURVE",
"1069 1493 OFFCURVE",
"855 1493 CURVE SMOOTH",
"387 1493 OFFCURVE",
"103 1007 OFFCURVE",
"103 508 CURVE SMOOTH",
"103 171 OFFCURVE",
"269 -20 OFFCURVE",
"553 -20 CURVE SMOOTH"
);
},
{
closed = 1;
nodes = (
"384 134 OFFCURVE",
"274 258 OFFCURVE",
"274 510 CURVE SMOOTH",
"274 904 OFFCURVE",
"465 1338 OFFCURVE",
"832 1338 CURVE SMOOTH",
"1028 1338 OFFCURVE",
"1149 1213 OFFCURVE",
"1149 953 CURVE SMOOTH",
"1149 561 OFFCURVE",
"946 134 OFFCURVE",
"576 134 CURVE SMOOTH"
);
}
);
width = 2036;
}
);
leftKerningGroup = O;
leftMetricsKey = O;
rightKerningGroup = E;
rightMetricsKey = E;
unicode = 0152;
},
{
glyphname = P;
lastChange = "2020-06-17 15:31:55 +0000";
layers = (
{
anchors = (
{
name = bottom;
position = "{535, 0}";
},
{
name = top;
position = "{849, 1475}";
}
);
layerId = "3FDD6C00-F7FD-4E85-84B0-0136AF7D7529";
paths = (
{
closed = 1;
nodes = (
"496 444 LINE",
"657 444 LINE SMOOTH",
"1015 444 OFFCURVE",
"1327 692 OFFCURVE",
"1327 1047 CURVE SMOOTH",
"1327 1281 OFFCURVE",
"1185 1475 OFFCURVE",
"876 1475 CURVE SMOOTH",
"311 1475 LINE",
"-3 0 LINE",
"401 0 LINE"
);
},
{
closed = 1;
nodes = (
"689 1353 LINE",
"469 1175 LINE",
"771 1175 LINE SMOOTH",
"863 1175 OFFCURVE",
"919 1116 OFFCURVE",
"919 1010 CURVE SMOOTH",
"919 859 OFFCURVE",
"827 743 OFFCURVE",
"679 743 CURVE SMOOTH",
"377 743 LINE",
"521 565 LINE"
);
}
);
width = 1302;
},
{
anchors = (
{
name = bottom;
position = "{387, 0}";
},
{
name = top;
position = "{709, 1475}";
}
);
layerId = "2503C51C-5A6C-4B2C-A968-78FEA18C2585";
paths = (
{
closed = 1;
nodes = (
"199 574 LINE",
"495 574 LINE SMOOTH",
"835 574 OFFCURVE",
"1075 807 OFFCURVE",
"1075 1139 CURVE SMOOTH",
"1075 1321 OFFCURVE",
"976 1475 OFFCURVE",
"677 1475 CURVE SMOOTH",
"361 1475 LINE",
"47 0 LINE",
"77 0 LINE"
);
},
{
closed = 1;
nodes = (
"388 1461 LINE",
"371 1447 LINE",
"669 1447 LINE SMOOTH",
"954 1447 OFFCURVE",
"1045 1312 OFFCURVE",
"1045 1145 CURVE SMOOTH",
"1045 824 OFFCURVE",
"822 602 OFFCURVE",
"489 602 CURVE SMOOTH",
"191 602 LINE",
"202 588 LINE"
);
}
);
width = 1043;
},
{
anchors = (
{
name = bottom;
position = "{479, 0}";
},
{
name = top;
position = "{675, 1475}";
}
);
layerId = "BEF1FBB1-ACEC-4AC1-9895-C09886024D55";
paths = (
{
closed = 1;
nodes = (
"309 515 LINE",
"562 515 LINE SMOOTH",
"921 515 OFFCURVE",
"1170 738 OFFCURVE",
"1170 1089 CURVE SMOOTH",
"1170 1303 OFFCURVE",
"1047 1475 OFFCURVE",
"746 1475 CURVE SMOOTH",
"342 1475 LINE",
"28 0 LINE",
"199 0 LINE"
);
},
{
closed = 1;
nodes = (
"501 1422 LINE",
"404 1325 LINE",
"703 1325 LINE SMOOTH",
"913 1325 OFFCURVE",
"1000 1239 OFFCURVE",
"1000 1088 CURVE SMOOTH",
"1000 834 OFFCURVE",
"828 665 OFFCURVE",
"563 665 CURVE SMOOTH",
"264 665 LINE",
"322 578 LINE"
);
}
);
width = 1150;
}
);
leftKerningGroup = H;
leftMetricsKey = H;
note = P;
rightKerningGroup = P;
unicode = 0050;
},
{
glyphname = Thorn;
lastChange = "2020-06-06 15:57:41 +0000";
layers = (
{
layerId = "3FDD6C00-F7FD-4E85-84B0-0136AF7D7529";
paths = (
{
closed = 1;
nodes = (
"400 0 LINE",
"485 399 LINE",
"373 305 LINE",
"632 305 LINE SMOOTH",
"972 305 OFFCURVE",
"1229 480 OFFCURVE",
"1229 815 CURVE SMOOTH",
"1229 1041 OFFCURVE",
"1080 1153 OFFCURVE",
"813 1153 CURVE SMOOTH",
"559 1153 LINE",
"624 1052 LINE",
"714 1473 LINE",
"311 1473 LINE",
"-3 0 LINE"
);
},
{
closed = 1;
nodes = (
"604 954 LINE",
"492 852 LINE",
"707 852 LINE SMOOTH",
"783 852 OFFCURVE",
"823 818 OFFCURVE",
"823 752 CURVE SMOOTH",
"823 659 OFFCURVE",
"748 605 OFFCURVE",
"654 605 CURVE SMOOTH",
"443 605 LINE",
"508 507 LINE"
);
}
);
width = 1252;
},
{
layerId = "2503C51C-5A6C-4B2C-A968-78FEA18C2585";
paths = (
{
closed = 1;
nodes = (
"77 0 LINE",
"147 329 LINE",
"130 315 LINE",
"418 315 LINE SMOOTH",
"713 315 OFFCURVE",
"944 517 OFFCURVE",
"944 818 CURVE SMOOTH",
"944 1022 OFFCURVE",
"819 1143 OFFCURVE",
"584 1143 CURVE SMOOTH",
"306 1143 LINE",
"317 1129 LINE",
"391 1473 LINE",
"361 1473 LINE",
"47 0 LINE"
);
},
{
closed = 1;
nodes = (
"317 1129 LINE",
"300 1115 LINE",
"585 1115 LINE SMOOTH",
"796 1115 OFFCURVE",
"915 1005 OFFCURVE",
"915 820 CURVE SMOOTH",
"915 542 OFFCURVE",
"698 343 OFFCURVE",
"421 343 CURVE SMOOTH",
"136 343 LINE",
"147 329 LINE"
);
}
);
width = 997;
},
{
layerId = "BEF1FBB1-ACEC-4AC1-9895-C09886024D55";
paths = (
{
closed = 1;
nodes = (
"198 0 LINE",
"274 355 LINE",
"221 311 LINE",
"498 311 LINE SMOOTH",
"810 311 OFFCURVE",
"1051 503 OFFCURVE",
"1051 817 CURVE SMOOTH",
"1051 1029 OFFCURVE",
"917 1147 OFFCURVE",
"670 1147 CURVE SMOOTH",
"401 1147 LINE",
"432 1100 LINE",
"512 1473 LINE",
"342 1473 LINE",
"28 0 LINE"
);
},
{
closed = 1;
nodes = (
"425 1063 LINE",
"372 996 LINE",
"631 996 LINE SMOOTH",
"791 996 OFFCURVE",
"881 935 OFFCURVE",
"881 795 CURVE SMOOTH",
"881 586 OFFCURVE",
"717 461 OFFCURVE",
"508 461 CURVE SMOOTH",
"251 461 LINE",
"282 396 LINE"
);
}
);
width = 1087;
}
);
leftKerningGroup = H;
leftMetricsKey = H;
note = Thorn;
rightKerningGroup = D;
rightMetricsKey = D;
unicode = 00DE;
},
{
glyphname = Q;
lastChange = "2020-06-06 15:57:41 +0000";
layers = (
{
anchors = (
{
name = bottom;
position = "{645, -25}";
},
{
name = top;
position = "{966, 1500}";
}
);
components = (
{
name = O;
}
);
layerId = "3FDD6C00-F7FD-4E85-84B0-0136AF7D7529";
paths = (
{
closed = 1;
nodes = (
"480 -360 OFFCURVE",
"824 -378 OFFCURVE",
"877 -378 CURVE",
"1037 -111 LINE",
"998 -107 OFFCURVE",
"821 -84 OFFCURVE",
"821 22 CURVE",
"480 22 LINE"
);
}
);
width = 1572;
},
{
anchors = (
{
name = bottom;
position = "{532, -17}";
},
{
name = top;
position = "{853, 1487}";
}
);
components = (
{
name = O;
}
);
layerId = "2503C51C-5A6C-4B2C-A968-78FEA18C2585";
paths = (
{
closed = 1;
nodes = (
"513 -235 OFFCURVE",
"709 -298 OFFCURVE",
"769 -313 CURVE",
"787 -285 LINE",
"723 -272 OFFCURVE",
"548 -209 OFFCURVE",
"548 -2 CURVE",
"513 2 LINE"
);
}
);
width = 1298;
},
{
anchors = (
{
name = bottom;
position = "{574, -20}";
},
{
name = top;
position = "{895, 1492}";
}
);
components = (
{
alignment = -1;
name = O;
}
);
layerId = "BEF1FBB1-ACEC-4AC1-9895-C09886024D55";
paths = (
{
closed = 1;
nodes = (
"501 -282 OFFCURVE",
"752 -328 OFFCURVE",
"810 -337 CURVE",
"881 -220 LINE",
"826 -210 OFFCURVE",
"650 -162 OFFCURVE",
"650 7 CURVE",
"501 10 LINE"
);
}
);
width = 1386;
}
);
leftKerningGroup = O;
leftMetricsKey = O;
note = Q;
rightKerningGroup = O;
rightMetricsKey = O;
unicode = 0051;
},
{
glyphname = R;
lastChange = "2020-06-17 15:31:58 +0000";
layers = (
{
anchors = (
{
name = bottom;
position = "{573, 0}";
},
{
name = top;
position = "{807, 1475}";
}
);
layerId = "3FDD6C00-F7FD-4E85-84B0-0136AF7D7529";
paths = (
{
closed = 1;
nodes = (
"391 0 LINE",
"529 647 LINE",
"324 541 LINE",
"659 541 LINE SMOOTH",
"751 541 OFFCURVE",
"797 501 OFFCURVE",
"797 432 CURVE SMOOTH",
"797 340 OFFCURVE",
"734 165 OFFCURVE",
"734 62 CURVE SMOOTH",
"734 36 OFFCURVE",
"737 15 OFFCURVE",
"744 0 CURVE",
"1148 0 LINE",
"1140 13 OFFCURVE",
"1136 36 OFFCURVE",
"1136 63 CURVE SMOOTH",
"1136 174 OFFCURVE",
"1211 391 OFFCURVE",
"1211 500 CURVE SMOOTH",
"1211 636 OFFCURVE",
"1122 685 OFFCURVE",
"1014 692 CURVE",
"1220 708 OFFCURVE",
"1375 938 OFFCURVE",
"1375 1156 CURVE SMOOTH",
"1375 1346 OFFCURVE",
"1260 1475 OFFCURVE",
"965 1475 CURVE SMOOTH",
"311 1475 LINE",
"-3 0 LINE"
);
},
{
closed = 1;
nodes = (
"679 1354 LINE",
"459 1176 LINE",
"806 1176 LINE SMOOTH",
"904 1176 OFFCURVE",
"946 1113 OFFCURVE",
"946 1036 CURVE SMOOTH",
"946 914 OFFCURVE",
"845 841 OFFCURVE",
"737 841 CURVE SMOOTH",
"388 841 LINE",
"548 737 LINE"
);
}
);
width = 1331;
},
{
anchors = (
{
name = bottom;
position = "{416, 0}";
},
{
name = top;
position = "{701, 1475}";
}
);
layerId = "2503C51C-5A6C-4B2C-A968-78FEA18C2585";
paths = (
{
closed = 1;
nodes = (
"77 0 LINE",
"229 714 LINE",
"212 700 LINE",
"633 700 LINE SMOOTH",
"780 700 OFFCURVE",
"876 655 OFFCURVE",
"876 535 CURVE SMOOTH",
"876 454 OFFCURVE",
"781 105 OFFCURVE",
"781 27 CURVE SMOOTH",
"781 13 OFFCURVE",
"782 3 OFFCURVE",
"783 0 CURVE",
"815 0 LINE",
"814 4 OFFCURVE",
"812 15 OFFCURVE",
"812 31 CURVE SMOOTH",
"812 115 OFFCURVE",
"909 463 OFFCURVE",
"909 541 CURVE SMOOTH",
"909 661 OFFCURVE",
"813 708 OFFCURVE",
"732 716 CURVE",
"934 740 OFFCURVE",
"1083 993 OFFCURVE",
"1083 1200 CURVE SMOOTH",
"1083 1369 OFFCURVE",
"985 1475 OFFCURVE",
"781 1475 CURVE SMOOTH",
"361 1475 LINE",
"47 0 LINE"
);
},
{
closed = 1;
nodes = (
"388 1461 LINE",
"371 1447 LINE",
"775 1447 LINE SMOOTH",
"970 1447 OFFCURVE",
"1052 1349 OFFCURVE",
"1052 1199 CURVE SMOOTH",
"1052 956 OFFCURVE",
"874 728 OFFCURVE",
"639 728 CURVE SMOOTH",
"218 728 LINE",
"229 714 LINE"
);
}
);
width = 1105;
},
{
anchors = (
{
name = bottom;
position = "{475, 0}";
},
{
name = top;
position = "{731, 1475}";
}
);
layerId = "BEF1FBB1-ACEC-4AC1-9895-C09886024D55";
paths = (
{
closed = 1;
nodes = (
"195 0 LINE",
"342 689 LINE",
"254 630 LINE",
"643 630 LINE SMOOTH",
"769 630 OFFCURVE",
"846 587 OFFCURVE",
"846 486 CURVE SMOOTH",
"846 401 OFFCURVE",
"763 128 OFFCURVE",
"763 40 CURVE SMOOTH",
"763 22 OFFCURVE",
"765 8 OFFCURVE",
"768 0 CURVE",
"940 0 LINE",
"936 7 OFFCURVE",
"934 23 OFFCURVE",
"934 43 CURVE SMOOTH",
"934 137 OFFCURVE",
"1022 436 OFFCURVE",
"1022 526 CURVE SMOOTH",
"1022 652 OFFCURVE",
"939 699 OFFCURVE",
"848 707 CURVE",
"1051 728 OFFCURVE",
"1193 972 OFFCURVE",
"1193 1184 CURVE SMOOTH",
"1193 1360 OFFCURVE",
"1078 1475 OFFCURVE",
"840 1475 CURVE SMOOTH",
"342 1475 LINE",
"28 0 LINE"
);
},
{
closed = 1;
nodes = (
"497 1421 LINE",
"404 1325 LINE",
"787 1325 LINE SMOOTH",
"945 1325 OFFCURVE",
"1012 1251 OFFCURVE",
"1012 1128 CURVE SMOOTH",
"1012 940 OFFCURVE",
"863 780 OFFCURVE",
"676 780 CURVE SMOOTH",
"282 780 LINE",
"349 723 LINE"
);
}
);
width = 1190;
}
);
leftKerningGroup = H;
leftMetricsKey = H;
note = R;
rightKerningGroup = R;
unicode = 0052;
},
{
glyphname = S;
lastChange = "2020-06-17 15:32:08 +0000";
layers = (
{
anchors = (
{
name = bottom;
position = "{554, 0}";
},
{
name = top;
position = "{842, 1475}";
}
);
layerId = "3FDD6C00-F7FD-4E85-84B0-0136AF7D7529";
paths = (
{
closed = 1;
nodes = (
"912 -26 OFFCURVE",
"1212 154 OFFCURVE",
"1212 481 CURVE SMOOTH",
"1212 688 OFFCURVE",
"1046 779 OFFCURVE",
"837 865 CURVE SMOOTH",
"685 928 OFFCURVE",
"579 974 OFFCURVE",
"579 1046 CURVE SMOOTH",
"579 1143 OFFCURVE",
"665 1190 OFFCURVE",
"783 1190 CURVE SMOOTH",
"880 1190 OFFCURVE",
"925 1144 OFFCURVE",
"925 1080 CURVE SMOOTH",
"925 1050 OFFCURVE",
"917 1016 OFFCURVE",
"914 1004 CURVE",
"1317 1004 LINE",
"1325 1029 OFFCURVE",
"1336 1085 OFFCURVE",
"1336 1139 CURVE SMOOTH",
"1336 1361 OFFCURVE",
"1122 1500 OFFCURVE",
"832 1500 CURVE SMOOTH",
"485 1500 OFFCURVE",
"183 1294 OFFCURVE",
"183 969 CURVE SMOOTH",
"183 765 OFFCURVE",
"368 672 OFFCURVE",
"533 607 CURVE SMOOTH",
"691 545 OFFCURVE",
"808 487 OFFCURVE",
"808 409 CURVE SMOOTH",
"808 321 OFFCURVE",
"710 285 OFFCURVE",
"600 285 CURVE SMOOTH",
"500 285 OFFCURVE",
"452 335 OFFCURVE",
"452 406 CURVE SMOOTH",
"452 428 OFFCURVE",
"457 460 OFFCURVE",
"466 493 CURVE",
"63 493 LINE",
"51 449 OFFCURVE",
"42 409 OFFCURVE",
"42 346 CURVE SMOOTH",
"42 107 OFFCURVE",
"267 -26 OFFCURVE",
"548 -26 CURVE"
);
}
);
width = 1304;
},
{
anchors = (
{
name = bottom;
position = "{419, 0}";
},
{
name = top;
position = "{719, 1475}";
}
);
layerId = "2503C51C-5A6C-4B2C-A968-78FEA18C2585";
paths = (
{
closed = 1;
nodes = (
"717 -17 OFFCURVE",
"928 142 OFFCURVE",
"928 419 CURVE SMOOTH",
"928 586 OFFCURVE",
"815 686 OFFCURVE",
"605 761 CURVE SMOOTH",
"405 832 OFFCURVE",
"275 924 OFFCURVE",
"275 1099 CURVE SMOOTH",
"275 1334 OFFCURVE",
"463 1460 OFFCURVE",
"719 1460 CURVE SMOOTH",
"930 1460 OFFCURVE",
"1051 1383 OFFCURVE",
"1051 1203 CURVE SMOOTH",
"1051 1145 OFFCURVE",
"1042 1091 OFFCURVE",
"1022 1000 CURVE",
"1053 1000 LINE",
"1073 1088 OFFCURVE",
"1082 1146 OFFCURVE",
"1082 1207 CURVE SMOOTH",
"1082 1400 OFFCURVE",
"951 1488 OFFCURVE",
"719 1488 CURVE SMOOTH",
"443 1488 OFFCURVE",
"243 1354 OFFCURVE",
"243 1094 CURVE SMOOTH",
"243 910 OFFCURVE",
"374 813 OFFCURVE",
"597 731 CURVE SMOOTH",
"786 662 OFFCURVE",
"896 571 OFFCURVE",
"896 415 CURVE SMOOTH",
"896 158 OFFCURVE",
"699 11 OFFCURVE",
"419 11 CURVE SMOOTH",
"207 11 OFFCURVE",
"92 97 OFFCURVE",
"92 281 CURVE SMOOTH",
"92 343 OFFCURVE",
"101 392 OFFCURVE",
"123 484 CURVE",
"92 484 LINE",
"71 394 OFFCURVE",
"60 341 OFFCURVE",
"60 275 CURVE SMOOTH",
"60 80 OFFCURVE",
"184 -17 OFFCURVE",
"423 -17 CURVE"
);
}
);
width = 1065;
},
{
anchors = (
{
name = bottom;
position = "{458, 0}";
},
{
name = top;
position = "{756, 1475}";
}
);
layerId = "BEF1FBB1-ACEC-4AC1-9895-C09886024D55";
paths = (
{
closed = 1;
nodes = (
"779 -20 OFFCURVE",
"1023 147 OFFCURVE",
"1023 442 CURVE SMOOTH",
"1023 624 OFFCURVE",
"892 732 OFFCURVE",
"679 806 CURVE SMOOTH",
"496 870 OFFCURVE",
"378 938 OFFCURVE",
"378 1078 CURVE SMOOTH",
"378 1261 OFFCURVE",
"527 1339 OFFCURVE",
"732 1339 CURVE SMOOTH",
"900 1339 OFFCURVE",
"992 1293 OFFCURVE",
"992 1157 CURVE SMOOTH",
"992 1109 OFFCURVE",
"984 1063 OFFCURVE",
"970 1002 CURVE",
"1141 1002 LINE",
"1156 1066 OFFCURVE",
"1166 1123 OFFCURVE",
"1166 1182 CURVE SMOOTH",
"1166 1385 OFFCURVE",
"1004 1493 OFFCURVE",
"750 1493 CURVE SMOOTH",
"447 1493 OFFCURVE",
"209 1332 OFFCURVE",
"209 1047 CURVE SMOOTH",
"209 856 OFFCURVE",
"361 740 OFFCURVE",
"564 673 CURVE SMOOTH",
"741 615 OFFCURVE",
"852 540 OFFCURVE",
"852 413 CURVE SMOOTH",
"852 219 OFFCURVE",
"692 134 OFFCURVE",
"476 134 CURVE SMOOTH",
"306 134 OFFCURVE",
"216 186 OFFCURVE",
"216 328 CURVE SMOOTH",
"216 375 OFFCURVE",
"223 418 OFFCURVE",
"240 487 CURVE",
"70 487 LINE",
"52 415 OFFCURVE",
"42 367 OFFCURVE",
"42 302 CURVE SMOOTH",
"42 90 OFFCURVE",
"204 -20 OFFCURVE",
"459 -20 CURVE"
);
}
);
width = 1137;
}
);
leftKerningGroup = S;
leftMetricsKey = O;
note = S;
rightKerningGroup = S;
rightMetricsKey = O;
unicode = 0053;
},
{
glyphname = Scedilla;
lastChange = "2020-06-08 15:01:50 +0000";
layers = (
{
components = (
{
name = S;
}
);
layerId = "2503C51C-5A6C-4B2C-A968-78FEA18C2585";
paths = (
{
closed = 1;
nodes = (
"406 -156 OFFCURVE",
"360 -173 OFFCURVE",
"345 -198 CURVE",
"345 -208 LINE",
"436 -13 LINE",
"406 -13 LINE",
"313 -212 LINE",
"340 -225 LINE",
"364 -201 OFFCURVE",
"411 -184 OFFCURVE",
"447 -184 CURVE SMOOTH",
"497 -184 OFFCURVE",
"529 -207 OFFCURVE",
"529 -262 CURVE SMOOTH",
"529 -361 OFFCURVE",
"446 -419 OFFCURVE",
"353 -419 CURVE SMOOTH",
"288 -419 OFFCURVE",
"255 -400 OFFCURVE",
"245 -392 CURVE",
"227 -420 LINE",
"236 -428 OFFCURVE",
"283 -447 OFFCURVE",
"349 -447 CURVE SMOOTH",
"459 -447 OFFCURVE",
"559 -381 OFFCURVE",
"559 -259 CURVE SMOOTH",
"559 -184 OFFCURVE",
"510 -156 OFFCURVE",
"452 -156 CURVE SMOOTH"
);
}
);
width = 1065;
},
{
components = (
{
name = S;
}
);
layerId = "3FDD6C00-F7FD-4E85-84B0-0136AF7D7529";
paths = (
{
closed = 1;
nodes = (
"608 -74 OFFCURVE",
"567 -93 OFFCURVE",
"550 -125 CURVE",
"560 -125 LINE",
"633 -18 LINE",
"467 -18 LINE",
"373 -161 LINE",
"513 -200 LINE",
"530 -178 OFFCURVE",
"566 -168 OFFCURVE",
"597 -168 CURVE SMOOTH",
"625 -168 OFFCURVE",
"648 -180 OFFCURVE",
"648 -208 CURVE SMOOTH",
"648 -258 OFFCURVE",
"590 -283 OFFCURVE",
"515 -283 CURVE SMOOTH",
"444 -283 OFFCURVE",
"365 -248 OFFCURVE",
"338 -230 CURVE",
"242 -371 LINE",
"281 -400 OFFCURVE",
"402 -428 OFFCURVE",
"491 -428 CURVE SMOOTH",
"657 -428 OFFCURVE",
"819 -354 OFFCURVE",
"819 -200 CURVE SMOOTH",
"819 -107 OFFCURVE",
"739 -74 OFFCURVE",
"673 -74 CURVE SMOOTH"
);
}
);
width = 1304;
},
{
components = (
{
name = S;
}
);
layerId = "BEF1FBB1-ACEC-4AC1-9895-C09886024D55";
paths = (
{
closed = 1;
nodes = (
"470 -115 OFFCURVE",
"416 -143 OFFCURVE",
"400 -171 CURVE",
"414 -177 LINE",
"498 -15 LINE",
"417 -15 LINE",
"324 -193 LINE",
"393 -216 LINE",
"414 -193 OFFCURVE",
"457 -178 OFFCURVE",
"491 -178 CURVE SMOOTH",
"533 -178 OFFCURVE",
"562 -197 OFFCURVE",
"562 -242 CURVE SMOOTH",
"562 -323 OFFCURVE",
"488 -368 OFFCURVE",
"402 -368 CURVE SMOOTH",
"335 -368 OFFCURVE",
"284 -343 OFFCURVE",
"268 -331 CURVE",
"221 -402 LINE",
"241 -418 OFFCURVE",
"316 -440 OFFCURVE",
"390 -440 CURVE SMOOTH",
"521 -440 OFFCURVE",
"645 -371 OFFCURVE",
"645 -237 CURVE SMOOTH",
"645 -155 OFFCURVE",
"584 -115 OFFCURVE",
"523 -115 CURVE SMOOTH"
);
}
);
width = 1137;
}
);
leftKerningGroup = S;
rightKerningGroup = S;
unicode = 015E;
},
{
glyphname = Germandbls;
lastChange = "2020-06-08 12:59:22 +0000";
layers = (
{
layerId = "2503C51C-5A6C-4B2C-A968-78FEA18C2585";
paths = (
{
closed = 1;
nodes = (
"78 0 LINE",
"318 1133 LINE",
"362 1340 OFFCURVE",
"486 1447 OFFCURVE",
"682 1447 CURVE",
"1061 1447 LINE",
"521 894 LINE",
"551 863 LINE",
"580 869 OFFCURVE",
"620 872 OFFCURVE",
"649 872 CURVE SMOOTH",
"819 872 OFFCURVE",
"949 762 OFFCURVE",
"949 561 CURVE SMOOTH",
"949 254 OFFCURVE",
"740 15 OFFCURVE",
"427 15 CURVE SMOOTH",
"360 15 OFFCURVE",
"293 36 OFFCURVE",
"272 47 CURVE",
"251 17 LINE",
"278 5 OFFCURVE",
"347 -13 OFFCURVE",
"427 -13 CURVE SMOOTH",
"758 -13 OFFCURVE",
"980 232 OFFCURVE",
"980 561 CURVE SMOOTH",
"980 776 OFFCURVE",
"842 900 OFFCURVE",
"649 900 CURVE SMOOTH",
"620 900 OFFCURVE",
"590 897 OFFCURVE",
"559 891 CURVE",
"1100 1445 LINE",
"1106 1475 LINE",
"687 1475 LINE",
"470 1475 OFFCURVE",
"335 1353 OFFCURVE",
"287 1128 CURVE",
"48 0 LINE"
);
}
);
width = 1091;
},
{
layerId = "3FDD6C00-F7FD-4E85-84B0-0136AF7D7529";
paths = (
{
closed = 1;
nodes = (
"401 0 LINE",
"626 1061 LINE",
"641 1130 OFFCURVE",
"674 1175 OFFCURVE",
"744 1175 CURVE",
"979 1175 LINE",
"614 869 LINE",
"751 623 LINE",
"764 631 OFFCURVE",
"801 653 OFFCURVE",
"851 653 CURVE SMOOTH",
"922 653 OFFCURVE",
"957 609 OFFCURVE",
"957 533 CURVE SMOOTH",
"957 406 OFFCURVE",
"882 287 OFFCURVE",
"762 287 CURVE SMOOTH",
"675 287 OFFCURVE",
"581 310 OFFCURVE",
"559 321 CURVE",
"494 17 LINE",
"521 5 OFFCURVE",
"633 -13 OFFCURVE",
"733 -13 CURVE SMOOTH",
"1130 -13 OFFCURVE",
"1364 187 OFFCURVE",
"1364 575 CURVE SMOOTH",
"1364 816 OFFCURVE",
"1233 891 OFFCURVE",
"1110 891 CURVE SMOOTH",
"1090 891 OFFCURVE",
"1060 889 OFFCURVE",
"1040 885 CURVE",
"1392 1157 LINE",
"1459 1475 LINE",
"755 1475 LINE",
"513 1475 OFFCURVE",
"287 1365 OFFCURVE",
"230 1097 CURVE",
"-3 0 LINE"
);
}
);
width = 1444;
},
{
layerId = "BEF1FBB1-ACEC-4AC1-9895-C09886024D55";
paths = (
{
closed = 1;
nodes = (
"199 0 LINE",
"429 1086 LINE",
"462 1241 OFFCURVE",
"552 1325 OFFCURVE",
"700 1325 CURVE",
"1002 1325 LINE",
"528 885 LINE",
"624 763 LINE",
"646 770 OFFCURVE",
"679 780 OFFCURVE",
"716 780 CURVE SMOOTH",
"848 780 OFFCURVE",
"953 720 OFFCURVE",
"953 559 CURVE SMOOTH",
"953 321 OFFCURVE",
"802 137 OFFCURVE",
"559 137 CURVE SMOOTH",
"474 137 OFFCURVE",
"395 161 OFFCURVE",
"373 172 CURVE",
"333 19 LINE",
"359 6 OFFCURVE",
"428 -13 OFFCURVE",
"525 -13 CURVE SMOOTH",
"882 -13 OFFCURVE",
"1122 210 OFFCURVE",
"1122 563 CURVE SMOOTH",
"1122 787 OFFCURVE",
"998 912 OFFCURVE",
"830 912 CURVE SMOOTH",
"795 912 OFFCURVE",
"764 906 OFFCURVE",
"747 899 CURVE",
"1205 1317 LINE",
"1238 1475 LINE",
"712 1475 LINE",
"486 1475 OFFCURVE",
"316 1358 OFFCURVE",
"265 1116 CURVE",
"28 0 LINE"
);
}
);
width = 1215;
}
);
leftKerningGroup = H;
leftMetricsKey = H;
rightKerningGroup = S;
rightMetricsKey = S;
unicode = 1E9E;
},
{
glyphname = Schwa;
lastChange = "2020-06-06 15:57:41 +0000";
layers = (
{
anchors = (
{
name = bottom;
position = "{454, 0}";
},
{
name = top;
position = "{758, 1475}";
}
);
layerId = "2503C51C-5A6C-4B2C-A968-78FEA18C2585";
paths = (
{
closed = 1;
nodes = (
"867 -11 OFFCURVE",
"1103 512 OFFCURVE",
"1103 1009 CURVE SMOOTH",
"1103 1287 OFFCURVE",
"1009 1484 OFFCURVE",
"755 1484 CURVE SMOOTH",
"436 1484 OFFCURVE",
"234 1189 OFFCURVE",
"210 1021 CURVE",
"241 1021 LINE",
"260 1165 OFFCURVE",
"448 1456 OFFCURVE",
"755 1456 CURVE SMOOTH",
"989 1456 OFFCURVE",
"1070 1268 OFFCURVE",
"1070 1011 CURVE SMOOTH",
"1070 528 OFFCURVE",
"847 17 OFFCURVE",
"447 17 CURVE SMOOTH",
"213 17 OFFCURVE",
"145 231 OFFCURVE",
"145 458 CURVE SMOOTH",
"145 524 OFFCURVE",
"154 640 OFFCURVE",
"169 697 CURVE",
"155 690 LINE",
"1042 690 LINE",
"1048 718 LINE",
"141 718 LINE",
"122 623 OFFCURVE",
"114 565 OFFCURVE",
"114 456 CURVE SMOOTH",
"114 206 OFFCURVE",
"195 -11 OFFCURVE",
"447 -11 CURVE SMOOTH"
);
}
);
width = 1139;
},
{
anchors = (
{
name = bottom;
position = "{567, 0}";
},
{
name = top;
position = "{881, 1475}";
}
);
layerId = "3FDD6C00-F7FD-4E85-84B0-0136AF7D7529";
paths = (
{
closed = 1;
nodes = (
"1084 -11 OFFCURVE",
"1379 454 OFFCURVE",
"1379 978 CURVE SMOOTH",
"1379 1361 OFFCURVE",
"1144 1484 OFFCURVE",
"874 1484 CURVE SMOOTH",
"545 1484 OFFCURVE",
"261 1299 OFFCURVE",
"187 1001 CURVE",
"574 1001 LINE",
"608 1115 OFFCURVE",
"709 1192 OFFCURVE",
"830 1192 CURVE SMOOTH",
"912 1192 OFFCURVE",
"980 1156 OFFCURVE",
"980 989 CURVE SMOOTH",
"980 718 OFFCURVE",
"864 280 OFFCURVE",
"624 280 CURVE SMOOTH",
"535 280 OFFCURVE",
"472 325 OFFCURVE",
"472 467 CURVE SMOOTH",
"472 541 OFFCURVE",
"480 587 OFFCURVE",
"501 677 CURVE",
"471 589 LINE",
"923 589 LINE",
"982 868 LINE",
"147 868 LINE",
"118 799 OFFCURVE",
"93 590 OFFCURVE",
"93 499 CURVE SMOOTH",
"93 130 OFFCURVE",
"294 -11 OFFCURVE",
"582 -11 CURVE SMOOTH"
);
}
);
width = 1384;
},
{
anchors = (
{
name = bottom;
position = "{485, 0}";
},
{
name = top;
position = "{793, 1475}";
}
);
layerId = "BEF1FBB1-ACEC-4AC1-9895-C09886024D55";
paths = (
{
closed = 1;
nodes = (
"928 -11 OFFCURVE",
"1194 498 OFFCURVE",
"1194 990 CURVE SMOOTH",
"1194 1309 OFFCURVE",
"1052 1484 OFFCURVE",
"788 1484 CURVE SMOOTH",
"466 1484 OFFCURVE",
"237 1218 OFFCURVE",
"190 1014 CURVE",
"355 1014 LINE",
"382 1134 OFFCURVE",
"528 1329 OFFCURVE",
"765 1329 CURVE SMOOTH",
"942 1329 OFFCURVE",
"1025 1218 OFFCURVE",
"1025 998 CURVE SMOOTH",
"1025 600 OFFCURVE",
"848 144 OFFCURVE",
"508 144 CURVE SMOOTH",
"329 144 OFFCURVE",
"252 272 OFFCURVE",
"252 460 CURVE SMOOTH",
"252 553 OFFCURVE",
"260 599 OFFCURVE",
"282 690 CURVE",
"258 632 LINE",
"1001 632 LINE",
"1033 784 LINE",
"133 784 LINE",
"110 702 OFFCURVE",
"91 563 OFFCURVE",
"91 467 CURVE SMOOTH",
"91 178 OFFCURVE",
"219 -11 OFFCURVE",
"485 -11 CURVE SMOOTH"
);
}
);
width = 1212;
}
);
leftKerningGroup = O;
leftMetricsKey = O;
rightKerningGroup = O;
rightMetricsKey = O;
unicode = 018F;
},
{
glyphname = T;
lastChange = "2020-06-04 18:00:33 +0000";
layers = (
{
anchors = (
{
name = bottom;
position = "{501, 0}";
},
{
name = center;
position = "{648, 738}";
},
{
name = top;
position = "{805, 1475}";
}
);
layerId = "3FDD6C00-F7FD-4E85-84B0-0136AF7D7529";
paths = (
{
closed = 1;
nodes = (
"1356 1475 LINE",
"262 1475 LINE",
"198 1175 LINE",
"725 1175 LINE",
"581 1353 LINE",
"293 0 LINE",
"696 0 LINE",
"984 1353 LINE",
"764 1175 LINE",
"1292 1175 LINE"
);
}
);
width = 1214;
},
{
anchors = (
{
name = bottom;
position = "{415, 0}";
},
{
name = center;
position = "{571, 738}";
},
{
name = top;
position = "{728, 1475}";
}
);
layerId = "2503C51C-5A6C-4B2C-A968-78FEA18C2585";
paths = (
{
closed = 1;
nodes = (
"1156 1475 LINE",
"301 1475 LINE",
"296 1447 LINE",
"721 1447 LINE",
"710 1461 LINE",
"400 0 LINE",
"432 0 LINE",
"741 1461 LINE",
"724 1447 LINE",
"1149 1447 LINE"
);
}
);
width = 1055;
},
{
anchors = (
{
name = bottom;
position = "{440, 0}";
},
{
name = center;
position = "{592, 738}";
},
{
name = top;
position = "{749, 1475}";
}
);
layerId = "BEF1FBB1-ACEC-4AC1-9895-C09886024D55";
paths = (
{
closed = 1;
nodes = (
"1223 1475 LINE",
"280 1475 LINE",
"248 1325 LINE",
"711 1325 LINE",
"654 1422 LINE",
"352 0 LINE",
"522 0 LINE",
"824 1422 LINE",
"727 1325 LINE",
"1191 1325 LINE"
);
}
);
width = 1100;
}
);
leftKerningGroup = T;
note = T;
rightKerningGroup = T;
unicode = 0054;
},
{
glyphname = Tbar;
lastChange = "2020-06-08 15:02:04 +0000";
layers = (
{
components = (
{
name = T;
}
);
layerId = "2503C51C-5A6C-4B2C-A968-78FEA18C2585";
paths = (
{
closed = 1;
nodes = (
"900 725 LINE",
"905 751 LINE",
"243 751 LINE",
"236 725 LINE"
);
}
);
width = 1055;
},
{
components = (
{
name = T;
}
);
layerId = "3FDD6C00-F7FD-4E85-84B0-0136AF7D7529";
paths = (
{
closed = 1;
nodes = (
"1004 648 LINE",
"1042 827 LINE",
"292 827 LINE",
"254 648 LINE"
);
}
);
width = 1214;
},
{
components = (
{
name = T;
}
);
layerId = "BEF1FBB1-ACEC-4AC1-9895-C09886024D55";
paths = (
{
closed = 1;
nodes = (
"931 697 LINE",
"948 780 LINE",
"253 780 LINE",
"234 697 LINE"
);
}
);
width = 1100;
}
);
leftKerningGroup = T;
rightKerningGroup = T;
unicode = 0166;
},
{
glyphname = U;
lastChange = "2020-06-17 15:32:12 +0000";
layers = (
{
anchors = (
{
name = bottom;
position = "{612, 0}";
},
{
name = ogonek;
position = "{906, 30}";
},
{
name = top;
position = "{909, 1475}";
},
{
name = topright;
position = "{1339, 1475}";
}
);
layerId = "3FDD6C00-F7FD-4E85-84B0-0136AF7D7529";
paths = (
{
closed = 1;
nodes = (
"1483 1475 LINE",
"1079 1475 LINE",
"875 515 LINE SMOOTH",
"843 366 OFFCURVE",
"781 285 OFFCURVE",
"645 285 CURVE SMOOTH",
"543 285 OFFCURVE",
"503 331 OFFCURVE",
"503 417 CURVE SMOOTH",
"503 472 OFFCURVE",
"511 516 OFFCURVE",
"533 617 CURVE SMOOTH",
"719 1475 LINE",
"315 1475 LINE",
"142 680 LINE SMOOTH",
"112 541 OFFCURVE",
"97 467 OFFCURVE",
"97 381 CURVE SMOOTH",
"97 113 OFFCURVE",
"283 -26 OFFCURVE",
"612 -26 CURVE SMOOTH",
"952 -26 OFFCURVE",
"1203 158 OFFCURVE",
"1281 525 CURVE SMOOTH"
);
}
);
width = 1392;
},
{
anchors = (
{
name = bottom;
position = "{512, 0}";
},
{
name = ogonek;
position = "{709, 17}";
},
{
name = top;
position = "{831, 1475}";
},
{
name = topright;
position = "{1269, 1475}";
}
);
layerId = "2503C51C-5A6C-4B2C-A968-78FEA18C2585";
paths = (
{
closed = 1;
nodes = (
"1282 1475 LINE",
"1252 1475 LINE",
"1059 566 LINE SMOOTH",
"977 182 OFFCURVE",
"783 11 OFFCURVE",
"512 11 CURVE SMOOTH",
"296 11 OFFCURVE",
"178 117 OFFCURVE",
"178 354 CURVE SMOOTH",
"178 474 OFFCURVE",
"199 573 OFFCURVE",
"246 794 CURVE SMOOTH",
"392 1475 LINE",
"362 1475 LINE",
"213 781 LINE SMOOTH",
"169 574 OFFCURVE",
"147 464 OFFCURVE",
"147 348 CURVE SMOOTH",
"147 98 OFFCURVE",
"270 -17 OFFCURVE",
"512 -17 CURVE SMOOTH",
"797 -17 OFFCURVE",
"1004 162 OFFCURVE",
"1087 555 CURVE SMOOTH"
);
}
);
width = 1242;
},
{
anchors = (
{
name = bottom;
position = "{557, 0}";
},
{
name = ogonek;
position = "{776, 20}";
},
{
name = top;
position = "{861, 1475}";
},
{
name = topright;
position = "{1296, 1475}";
}
);
layerId = "BEF1FBB1-ACEC-4AC1-9895-C09886024D55";
paths = (
{
closed = 1;
nodes = (
"1358 1475 LINE",
"1188 1475 LINE",
"991 547 LINE SMOOTH",
"928 251 OFFCURVE",
"783 134 OFFCURVE",
"563 134 CURVE SMOOTH",
"390 134 OFFCURVE",
"301 197 OFFCURVE",
"301 378 CURVE SMOOTH",
"301 473 OFFCURVE",
"317 552 OFFCURVE",
"355 728 CURVE SMOOTH",
"516 1475 LINE",
"345 1475 LINE",
"186 743 LINE SMOOTH",
"147 562 OFFCURVE",
"129 465 OFFCURVE",
"129 360 CURVE SMOOTH",
"129 104 OFFCURVE",
"278 -20 OFFCURVE",
"553 -20 CURVE SMOOTH",
"858 -20 OFFCURVE",
"1080 161 OFFCURVE",
"1161 544 CURVE SMOOTH"
);
}
);
width = 1299;
}
);
leftKerningGroup = U;
leftMetricsKey = H;
note = U;
rightKerningGroup = U;
rightMetricsKey = H;
unicode = 0055;
},
{
glyphname = Uhorn;
lastChange = "2020-06-17 16:52:33 +0000";
layers = (
{
anchors = (
{
name = bottom;
position = "{513, -17}";
},
{
name = top;
position = "{831, 1475}";
}
);
components = (
{
name = U;
}
);
layerId = "2503C51C-5A6C-4B2C-A968-78FEA18C2585";
paths = (
{
closed = 1;
nodes = (
"1263 1447 LINE",
"1416 1447 OFFCURVE",
"1514 1543 OFFCURVE",
"1534 1728 CURVE",
"1502 1728 LINE",
"1484 1557 OFFCURVE",
"1393 1475 OFFCURVE",
"1269 1475 CURVE"
);
}
);
width = 1308;
},
{
anchors = (
{
name = bottom;
position = "{612, -26}";
},
{
name = top;
position = "{909, 1475}";
}
);
components = (
{
name = U;
}
);
layerId = "3FDD6C00-F7FD-4E85-84B0-0136AF7D7529";
paths = (
{
closed = 1;
nodes = (
"1299 1285 LINE",
"1566 1285 OFFCURVE",
"1714 1422 OFFCURVE",
"1747 1736 CURVE",
"1503 1736 LINE",
"1485 1565 OFFCURVE",
"1441 1475 OFFCURVE",
"1339 1475 CURVE"
);
}
);
width = 1492;
},
{
anchors = (
{
name = bottom;
position = "{551, -20}";
},
{
name = top;
position = "{861, 1475}";
}
);
components = (
{
name = U;
}
);
layerId = "BEF1FBB1-ACEC-4AC1-9895-C09886024D55";
paths = (
{
closed = 1;
nodes = (
"1276 1386 LINE",
"1472 1386 OFFCURVE",
"1589 1498 OFFCURVE",
"1614 1731 CURVE",
"1502 1731 LINE",
"1484 1560 OFFCURVE",
"1411 1475 OFFCURVE",
"1295 1475 CURVE"
);
}
);
width = 1377;
}
);
leftKerningGroup = U;
rightKerningGroup = Uhorn;
unicode = 01AF;
},
{
glyphname = Uogonek;
lastChange = "2020-06-08 15:04:03 +0000";
layers = (
{
components = (
{
name = U;
}
);
layerId = "2503C51C-5A6C-4B2C-A968-78FEA18C2585";
paths = (
{
closed = 1;
nodes = (
"648 -344 OFFCURVE",
"610 -348 OFFCURVE",
"582 -348 CURVE SMOOTH",
"520 -348 OFFCURVE",
"485 -319 OFFCURVE",
"485 -262 CURVE SMOOTH",
"485 -166 OFFCURVE",
"618 -57 OFFCURVE",
"709 17 CURVE",
"681 17 LINE",
"578 -55 OFFCURVE",
"449 -159 OFFCURVE",
"449 -268 CURVE SMOOTH",
"449 -346 OFFCURVE",
"503 -379 OFFCURVE",
"575 -379 CURVE SMOOTH",
"606 -379 OFFCURVE",
"644 -375 OFFCURVE",
"668 -370 CURVE",
"671 -339 LINE"
);
}
);
width = 1242;
},
{
components = (
{
name = U;
}
);
layerId = "3FDD6C00-F7FD-4E85-84B0-0136AF7D7529";
paths = (
{
closed = 1;
nodes = (
"856 -243 OFFCURVE",
"829 -246 OFFCURVE",
"805 -246 CURVE SMOOTH",
"757 -246 OFFCURVE",
"718 -237 OFFCURVE",
"718 -192 CURVE SMOOTH",
"718 -131 OFFCURVE",
"852 -10 OFFCURVE",
"906 30 CURVE",
"718 30 LINE",
"634 -22 OFFCURVE",
"480 -144 OFFCURVE",
"480 -278 CURVE SMOOTH",
"480 -394 OFFCURVE",
"620 -432 OFFCURVE",
"764 -432 CURVE SMOOTH",
"798 -432 OFFCURVE",
"830 -430 OFFCURVE",
"858 -427 CURVE",
"878 -240 LINE"
);
}
);
width = 1392;
},
{
components = (
{
name = U;
}
);
layerId = "BEF1FBB1-ACEC-4AC1-9895-C09886024D55";
paths = (
{
closed = 1;
nodes = (
"717 -319 OFFCURVE",
"684 -323 OFFCURVE",
"658 -323 CURVE SMOOTH",
"597 -323 OFFCURVE",
"564 -302 OFFCURVE",
"564 -249 CURVE SMOOTH",
"564 -168 OFFCURVE",
"697 -44 OFFCURVE",
"776 20 CURVE",
"678 20 LINE",
"588 -43 OFFCURVE",
"460 -153 OFFCURVE",
"460 -261 CURVE SMOOTH",
"460 -359 OFFCURVE",
"531 -412 OFFCURVE",
"637 -412 CURVE SMOOTH",
"669 -412 OFFCURVE",
"705 -409 OFFCURVE",
"731 -405 CURVE",
"740 -315 LINE"
);
}
);
width = 1299;
}
);
leftKerningGroup = U;
rightKerningGroup = U;
unicode = 0172;
},
{
glyphname = V;
lastChange = "2020-06-09 14:44:39 +0000";
layers = (
{
anchors = (
{
name = bottom;
position = "{560, 0}";
},
{
name = top;
position = "{874, 1475}";
}
);
layerId = "3FDD6C00-F7FD-4E85-84B0-0136AF7D7529";
paths = (
{
closed = 1;
nodes = (
"876 0 LINE",
"1528 1475 LINE",
"1071 1475 LINE",
"613 231 LINE",
"628 231 LINE",
"679 1475 LINE",
"242 1475 LINE",
"268 0 LINE"
);
}
);
width = 1366;
},
{
anchors = (
{
name = bottom;
position = "{443, 0}";
},
{
name = top;
position = "{757, 1475}";
}
);
layerId = "2503C51C-5A6C-4B2C-A968-78FEA18C2585";
paths = (
{
closed = 1;
nodes = (
"457 -13 LINE",
"1205 1475 LINE",
"1171 1475 LINE",
"440 12 LINE",
"449 12 LINE",
"333 1475 LINE",
"301 1475 LINE",
"423 -13 LINE"
);
}
);
width = 1104;
},
{
anchors = (
{
name = bottom;
position = "{487, 0}";
},
{
name = top;
position = "{801, 1475}";
}
);
layerId = "BEF1FBB1-ACEC-4AC1-9895-C09886024D55";
paths = (
{
closed = 1;
nodes = (
"614 -8 LINE",
"1326 1475 LINE",
"1134 1475 LINE",
"510 125 LINE",
"521 125 LINE",
"463 1475 LINE",
"279 1475 LINE",
"365 -8 LINE"
);
}
);
width = 1202;
}
);
leftKerningGroup = V;
leftMetricsKey = A;
note = V;
rightKerningGroup = V;
rightMetricsKey = A;
unicode = 0056;
},
{
glyphname = W;
lastChange = "2020-06-04 18:01:22 +0000";
layers = (
{
anchors = (
{
name = bottom;
position = "{891, 0}";
},
{
name = top;
position = "{1205, 1475}";
}
);
layerId = "3FDD6C00-F7FD-4E85-84B0-0136AF7D7529";
paths = (
{
closed = 1;
nodes = (
"769 0 LINE",
"1165 1213 LINE",
"1125 1213 LINE",
"1004 0 LINE",
"1621 0 LINE",
"2139 1475 LINE",
"1724 1475 LINE",
"1296 63 LINE",
"1344 66 LINE",
"1438 1475 LINE",
"945 1475 LINE",
"438 66 LINE",
"504 63 LINE",
"676 1475 LINE",
"261 1475 LINE",
"151 0 LINE"
);
}
);
width = 1998;
},
{
anchors = (
{
name = bottom;
position = "{661, 0}";
},
{
name = top;
position = "{975, 1475}";
}
);
layerId = "2503C51C-5A6C-4B2C-A968-78FEA18C2585";
paths = (
{
closed = 1;
nodes = (
"312 0 LINE",
"978 1434 LINE",
"968 1434 LINE",
"1017 0 LINE",
"1054 0 LINE",
"1660 1475 LINE",
"1626 1475 LINE",
"1037 31 LINE",
"1045 31 LINE",
"997 1475 LINE",
"961 1475 LINE",
"296 31 LINE",
"306 31 LINE",
"334 1475 LINE",
"301 1475 LINE",
"277 0 LINE"
);
}
);
width = 1559;
},
{
anchors = (
{
name = bottom;
position = "{747, 0}";
},
{
name = top;
position = "{1061, 1475}";
}
);
layerId = "BEF1FBB1-ACEC-4AC1-9895-C09886024D55";
paths = (
{
closed = 1;
nodes = (
"466 0 LINE",
"1038 1331 LINE",
"1018 1331 LINE",
"1023 0 LINE",
"1286 0 LINE",
"1836 1475 LINE",
"1653 1475 LINE",
"1156 73 LINE",
"1182 74 LINE",
"1166 1475 LINE",
"940 1475 LINE",
"327 74 LINE",
"353 73 LINE",
"452 1475 LINE",
"282 1475 LINE",
"202 0 LINE"
);
}
);
width = 1724;
}
);
leftKerningGroup = V;
note = W;
rightKerningGroup = V;
unicode = 0057;
},
{
glyphname = X;
lastChange = "2020-06-09 14:43:57 +0000";
layers = (
{
anchors = (
{
name = bottom;
position = "{595, 0}";
},
{
name = top;
position = "{909, 1475}";
}
);
layerId = "3FDD6C00-F7FD-4E85-84B0-0136AF7D7529";
paths = (
{
closed = 1;
nodes = (
"-69 0 LINE",
"392 0 LINE",
"829 625 LINE",
"667 625 LINE",
"814 0 LINE",
"1261 0 LINE",
"961 892 LINE",
"908 566 LINE",
"1569 1475 LINE",
"1108 1475 LINE",
"687 833 LINE",
"835 833 LINE",
"712 1475 LINE",
"265 1475 LINE",
"549 566 LINE",
"608 892 LINE"
);
}
);
width = 1418;
},
{
anchors = (
{
name = bottom;
position = "{409, 0}";
},
{
name = top;
position = "{723, 1475}";
}
);
layerId = "2503C51C-5A6C-4B2C-A968-78FEA18C2585";
paths = (
{
closed = 1;
nodes = (
"-34 0 LINE",
"7 0 LINE",
"574 717 LINE",
"559 717 LINE",
"827 0 LINE",
"857 0 LINE",
"582 743 LINE",
"579 717 LINE",
"1159 1475 LINE",
"1121 1475 LINE",
"563 743 LINE",
"579 743 LINE",
"327 1475 LINE",
"293 1475 LINE",
"556 717 LINE",
"559 745 LINE"
);
}
);
width = 1049;
},
{
anchors = (
{
name = bottom;
position = "{479, 0}";
},
{
name = top;
position = "{793, 1475}";
}
);
layerId = "BEF1FBB1-ACEC-4AC1-9895-C09886024D55";
paths = (
{
closed = 1;
nodes = (
"-50 0 LINE",
"151 0 LINE",
"702 683 LINE",
"591 693 LINE",
"841 0 LINE",
"1023 0 LINE",
"721 809 LINE",
"693 660 LINE",
"1332 1475 LINE",
"1131 1475 LINE",
"594 777 LINE",
"719 787 LINE",
"467 1475 LINE",
"286 1475 LINE",
"593 670 LINE",
"603 799 LINE"
);
}
);
width = 1187;
}
);
leftKerningGroup = X;
note = X;
rightKerningGroup = X;
unicode = 0058;
},
{
glyphname = Y;
lastChange = "2020-06-09 14:47:46 +0000";
layers = (
{
anchors = (
{
name = bottom;
position = "{580, 0}";
},
{
name = top;
position = "{894, 1475}";
},
{
name = topleft;
position = "{221, 1475}";
}
);
layerId = "3FDD6C00-F7FD-4E85-84B0-0136AF7D7529";
paths = (
{
closed = 1;
nodes = (
"1079 1475 LINE",
"620 692 LINE",
"778 692 LINE",
"659 1475 LINE",
"242 1475 LINE",
"471 505 LINE",
"363 0 LINE",
"765 0 LINE",
"874 505 LINE",
"1517 1475 LINE"
);
}
);
width = 1355;
},
{
anchors = (
{
name = bottom;
position = "{386, 0}";
},
{
name = top;
position = "{700, 1475}";
},
{
name = topleft;
position = "{211, 1475}";
}
);
layerId = "2503C51C-5A6C-4B2C-A968-78FEA18C2585";
paths = (
{
closed = 1;
nodes = (
"1070 1475 LINE",
"497 544 LINE",
"510 544 LINE",
"332 1475 LINE",
"301 1475 LINE",
"483 517 LINE",
"373 0 LINE",
"404 0 LINE",
"514 517 LINE",
"1104 1475 LINE"
);
}
);
width = 1003;
},
{
anchors = (
{
name = bottom;
position = "{466, 0}";
},
{
name = top;
position = "{780, 1475}";
},
{
name = topleft;
position = "{222, 1475}";
}
);
layerId = "BEF1FBB1-ACEC-4AC1-9895-C09886024D55";
paths = (
{
closed = 1;
nodes = (
"1088 1475 LINE",
"552 620 LINE",
"627 620 LINE",
"455 1475 LINE",
"279 1475 LINE",
"486 513 LINE",
"377 0 LINE",
"547 0 LINE",
"657 513 LINE",
"1274 1475 LINE"
);
}
);
width = 1150;
}
);
leftKerningGroup = Y;
leftMetricsKey = V;
note = Y;
rightKerningGroup = Y;
rightMetricsKey = V;
unicode = 0059;
},
{
glyphname = Z;
lastChange = "2020-06-08 13:26:43 +0000";
layers = (
{
anchors = (
{
name = bottom;
position = "{505, 0}";
},
{
name = center;
position = "{662, 738}";
},
{
name = top;
position = "{819, 1475}";
}
);
layerId = "3FDD6C00-F7FD-4E85-84B0-0136AF7D7529";
paths = (
{
closed = 1;
nodes = (
"490 303 LINE",
"1282 1221 LINE",
"1336 1475 LINE",
"323 1475 LINE",
"259 1175 LINE",
"815 1175 LINE",
"813 1177 LINE",
"19 257 LINE",
"-36 0 LINE",
"1013 0 LINE",
"1077 301 LINE",
"489 301 LINE"
);
}
);
width = 1212;
},
{
anchors = (
{
name = bottom;
position = "{417, 0}";
},
{
name = center;
position = "{574, 738}";
},
{
name = top;
position = "{731, 1475}";
}
);
layerId = "2503C51C-5A6C-4B2C-A968-78FEA18C2585";
paths = (
{
closed = 1;
nodes = (
"50 27 LINE",
"1112 1449 LINE",
"1118 1475 LINE",
"367 1475 LINE",
"361 1447 LINE",
"1079 1447 LINE",
"1076 1448 LINE",
"13 28 LINE",
"7 0 LINE",
"794 0 LINE",
"800 28 LINE",
"50 28 LINE"
);
}
);
width = 1037;
},
{
anchors = (
{
name = bottom;
position = "{450, 0}";
},
{
name = center;
position = "{607, 738}";
},
{
name = top;
position = "{764, 1475}";
}
);
layerId = "BEF1FBB1-ACEC-4AC1-9895-C09886024D55";
paths = (
{
closed = 1;
nodes = (
"224 153 LINE",
"1170 1344 LINE",
"1198 1475 LINE",
"349 1475 LINE",
"317 1325 LINE",
"968 1325 LINE",
"966 1326 LINE",
"18 134 LINE",
"-11 0 LINE",
"874 0 LINE",
"906 150 LINE",
"223 150 LINE"
);
}
);
width = 1103;
}
);
leftKerningGroup = Z;
note = Z;
rightKerningGroup = Z;
unicode = 005A;
},
{
color = 3;
glyphname = I.ss01;
lastChange = "2020-06-09 14:32:06 +0000";
layers = (
{
anchors = (
{
name = bottom;
position = "{374, 0}";
},
{
name = ogonek;
position = "{719, 0}";
},
{
name = top;
position = "{688, 1475}";
},
{
name = topleft;
position = "{340, 1475}";
}
);
layerId = "2503C51C-5A6C-4B2C-A968-78FEA18C2585";
paths = (
{
closed = 1;
nodes = (
"720 0 LINE",
"726 28 LINE",
"381 28 LINE",
"392 14 LINE",
"700 1461 LINE",
"683 1447 LINE",
"1028 1447 LINE",
"1034 1475 LINE",
"341 1475 LINE",
"335 1447 LINE",
"680 1447 LINE",
"669 1461 LINE",
"361 14 LINE",
"378 28 LINE",
"33 28 LINE",
"27 0 LINE"
);
}
);
width = 973;
},
{
anchors = (
{
name = bottom;
position = "{464, 0}";
},
{
name = ogonek;
position = "{960, 0}";
},
{
name = top;
position = "{778, 1475}";
},
{
name = topleft;
position = "{280, 1475}";
}
);
layerId = "3FDD6C00-F7FD-4E85-84B0-0136AF7D7529";
paths = (
{
closed = 1;
nodes = (
"959 0 LINE",
"1023 300 LINE",
"545 300 LINE",
"688 118 LINE",
"952 1357 LINE",
"731 1175 LINE",
"1209 1175 LINE",
"1273 1475 LINE",
"279 1475 LINE",
"215 1175 LINE",
"692 1175 LINE",
"549 1357 LINE",
"285 118 LINE",
"506 300 LINE",
"29 300 LINE",
"-35 0 LINE"
);
}
);
width = 1154;
},
{
anchors = (
{
name = bottom;
position = "{408, 0}";
},
{
name = ogonek;
position = "{809, 0}";
},
{
name = top;
position = "{722, 1475}";
},
{
name = topleft;
position = "{318, 1475}";
}
);
layerId = "BEF1FBB1-ACEC-4AC1-9895-C09886024D55";
paths = (
{
closed = 1;
nodes = (
"806 0 LINE",
"838 150 LINE",
"444 150 LINE",
"505 73 LINE",
"787 1402 LINE",
"694 1325 LINE",
"1088 1325 LINE",
"1120 1475 LINE",
"315 1475 LINE",
"283 1325 LINE",
"677 1325 LINE",
"616 1402 LINE",
"334 73 LINE",
"427 150 LINE",
"33 150 LINE",
"1 0 LINE"
);
}
);
width = 1041;
}
);
leftKerningGroup = H;
rightKerningGroup = H;
},
{
color = 3;
glyphname = R.ss01;
lastChange = "2020-06-09 14:32:06 +0000";
layers = (
{
anchors = (
{
name = bottom;
position = "{514, 0}";
},
{
name = top;
position = "{828, 1475}";
}
);
layerId = "3FDD6C00-F7FD-4E85-84B0-0136AF7D7529";
paths = (
{
closed = 1;
nodes = (
"311 1475 LINE",
"-3 0 LINE",
"391 0 LINE",
"531 656 LINE",
"448 562 LINE",
"709 562 LINE SMOOTH",
"1110 562 OFFCURVE",
"1360 755 OFFCURVE",
"1360 1145 CURVE SMOOTH",
"1360 1344 OFFCURVE",
"1224 1475 OFFCURVE",
"935 1475 CURVE SMOOTH"
);
},
{
closed = 1;
nodes = (
"510 852 LINE",
"552 758 LINE",
"666 1291 LINE",
"586 1185 LINE",
"808 1185 LINE SMOOTH",
"897 1185 OFFCURVE",
"936 1135 OFFCURVE",
"936 1069 CURVE SMOOTH",
"936 957 OFFCURVE",
"860 852 OFFCURVE",
"744 852 CURVE SMOOTH"
);
},
{
closed = 1;
nodes = (
"717 0 LINE",
"1129 0 LINE",
"1006 693 LINE",
"637 693 LINE"
);
}
);
width = 1317;
},
{
anchors = (
{
name = bottom;
position = "{409, 0}";
},
{
name = top;
position = "{723, 1475}";
}
);
layerId = "2503C51C-5A6C-4B2C-A968-78FEA18C2585";
paths = (
{
closed = 1;
nodes = (
"361 1475 LINE",
"47 0 LINE",
"78 0 LINE",
"226 693 LINE",
"209 679 LINE",
"688 679 LINE",
"933 679 OFFCURVE",
"1109 920 OFFCURVE",
"1109 1177 CURVE SMOOTH",
"1109 1370 OFFCURVE",
"998 1475 OFFCURVE",
"791 1475 CURVE SMOOTH"
);
},
{
closed = 1;
nodes = (
"215 708 LINE",
"226 694 LINE",
"389 1461 LINE",
"372 1447 LINE",
"776 1447 LINE SMOOTH",
"976 1447 OFFCURVE",
"1078 1352 OFFCURVE",
"1078 1174 CURVE SMOOTH",
"1078 943 OFFCURVE",
"916 708 OFFCURVE",
"691 708 CURVE SMOOTH"
);
},
{
closed = 1;
nodes = (
"803 0 LINE",
"835 0 LINE",
"713 696 LINE",
"683 696 LINE"
);
}
);
width = 1138;
},
{
anchors = (
{
name = bottom;
position = "{446, 0}";
},
{
name = top;
position = "{760, 1475}";
}
);
layerId = "BEF1FBB1-ACEC-4AC1-9895-C09886024D55";
paths = (
{
closed = 1;
nodes = (
"342 1475 LINE",
"28 0 LINE",
"195 0 LINE",
"340 679 LINE",
"299 635 LINE",
"696 635 LINE",
"999 635 OFFCURVE",
"1203 858 OFFCURVE",
"1203 1165 CURVE SMOOTH",
"1203 1360 OFFCURVE",
"1083 1475 OFFCURVE",
"845 1475 CURVE SMOOTH"
);
},
{
closed = 1;
nodes = (
"326 782 LINE",
"348 718 LINE",
"493 1397 LINE",
"452 1329 LINE",
"788 1329 LINE SMOOTH",
"946 1329 OFFCURVE",
"1025 1271 OFFCURVE",
"1025 1135 CURVE SMOOTH",
"1025 948 OFFCURVE",
"895 782 OFFCURVE",
"711 782 CURVE SMOOTH"
);
},
{
closed = 1;
nodes = (
"771 0 LINE",
"945 0 LINE",
"823 695 LINE",
"656 695 LINE"
);
}
);
width = 1207;
}
);
leftKerningGroup = H;
leftMetricsKey = H;
note = R;
rightKerningGroup = R;
rightMetricsKey = R;
},
{
glyphname = a;
lastChange = "2020-06-17 15:32:32 +0000";
layers = (
{
anchors = (
{
name = bottom;
position = "{513, 0}";
},
{
name = ogonek;
position = "{1160, 0}";
},
{
name = top;
position = "{743, 1062}";
}
);
layerId = "3FDD6C00-F7FD-4E85-84B0-0136AF7D7529";
paths = (
{
closed = 1;
nodes = (
"703 -26 OFFCURVE",
"936 174 OFFCURVE",
"1003 489 CURVE",
"866 508 LINE",
"838 375 OFFCURVE",
"733 308 OFFCURVE",
"627 308 CURVE SMOOTH",
"534 308 OFFCURVE",
"469 373 OFFCURVE",
"469 493 CURVE SMOOTH",
"469 648 OFFCURVE",
"578 751 OFFCURVE",
"712 751 CURVE SMOOTH",
"795 751 OFFCURVE",
"880 702 OFFCURVE",
"880 600 CURVE SMOOTH",
"880 582 OFFCURVE",
"877 562 OFFCURVE",
"873 544 CURVE",
"1016 552 LINE",
"1026 590 OFFCURVE",
"1033 647 OFFCURVE",
"1033 685 CURVE SMOOTH",
"1033 923 OFFCURVE",
"855 1084 OFFCURVE",
"641 1084 CURVE SMOOTH",
"291 1084 OFFCURVE",
"41 795 OFFCURVE",
"41 434 CURVE SMOOTH",
"41 135 OFFCURVE",
"213 -26 OFFCURVE",
"458 -26 CURVE SMOOTH"
);
},
{
closed = 1;
nodes = (
"1385 1062 LINE",
"982 1062 LINE",
"757 0 LINE",
"1160 0 LINE"
);
}
);
width = 1353;
},
{
anchors = (
{
name = bottom;
position = "{527, 0}";
},
{
name = ogonek;
position = "{954, 0}";
},
{
name = top;
position = "{740, 1062}";
}
);
layerId = "2503C51C-5A6C-4B2C-A968-78FEA18C2585";
paths = (
{
closed = 1;
nodes = (
"791 -17 OFFCURVE",
"989 163 OFFCURVE",
"1034 383 CURVE",
"1005 383 LINE",
"963 186 OFFCURVE",
"777 11 OFFCURVE",
"520 11 CURVE SMOOTH",
"309 11 OFFCURVE",
"154 165 OFFCURVE",
"154 417 CURVE SMOOTH",
"154 762 OFFCURVE",
"402 1047 OFFCURVE",
"740 1047 CURVE SMOOTH",
"949 1047 OFFCURVE",
"1075 913 OFFCURVE",
"1075 748 CURVE SMOOTH",
"1075 706 OFFCURVE",
"1071 690 OFFCURVE",
"1062 655 CURVE",
"1092 655 LINE",
"1100 689 OFFCURVE",
"1104 708 OFFCURVE",
"1104 752 CURVE SMOOTH",
"1104 934 OFFCURVE",
"962 1075 OFFCURVE",
"740 1075 CURVE SMOOTH",
"382 1075 OFFCURVE",
"122 781 OFFCURVE",
"122 411 CURVE SMOOTH",
"122 139 OFFCURVE",
"293 -17 OFFCURVE",
"520 -17 CURVE SMOOTH"
);
},
{
closed = 1;
nodes = (
"1179 1062 LINE",
"1148 1062 LINE",
"923 0 LINE",
"954 0 LINE"
);
}
);
width = 1237;
},
{
anchors = (
{
name = bottom;
position = "{545, 0}";
},
{
name = ogonek;
position = "{1028, 0}";
},
{
name = top;
position = "{756, 1062}";
}
);
layerId = "BEF1FBB1-ACEC-4AC1-9895-C09886024D55";
paths = (
{
closed = 1;
nodes = (
"766 -20 OFFCURVE",
"1003 137 OFFCURVE",
"1072 461 CURVE",
"957 468 LINE",
"912 255 OFFCURVE",
"732 134 OFFCURVE",
"559 134 CURVE SMOOTH",
"396 134 OFFCURVE",
"273 221 OFFCURVE",
"273 428 CURVE SMOOTH",
"273 709 OFFCURVE",
"440 924 OFFCURVE",
"727 924 CURVE SMOOTH",
"875 924 OFFCURVE",
"993 838 OFFCURVE",
"993 678 CURVE SMOOTH",
"993 654 OFFCURVE",
"988 608 OFFCURVE",
"982 585 CURVE",
"1082 585 LINE",
"1092 623 OFFCURVE",
"1099 687 OFFCURVE",
"1099 726 CURVE SMOOTH",
"1099 960 OFFCURVE",
"944 1078 OFFCURVE",
"731 1078 CURVE SMOOTH",
"363 1078 OFFCURVE",
"94 790 OFFCURVE",
"94 412 CURVE SMOOTH",
"94 115 OFFCURVE",
"285 -20 OFFCURVE",
"517 -20 CURVE SMOOTH"
);
},
{
closed = 1;
nodes = (
"1253 1062 LINE",
"1082 1062 LINE",
"857 0 LINE",
"1028 0 LINE"
);
}
);
width = 1278;
}
);
leftKerningGroup = o;
leftMetricsKey = o;
rightKerningGroup = i;
rightMetricsKey = u;
unicode = 0061;
},
{
glyphname = ae;
lastChange = "2020-06-10 15:20:46 +0000";
layers = (
{
anchors = (
{
name = bottom;
position = "{945, 0}";
},
{
name = top;
position = "{1171, 1062}";
}
);
layerId = "3FDD6C00-F7FD-4E85-84B0-0136AF7D7529";
paths = (
{
closed = 1;
nodes = (
"1234 590 LINE",
"1253 657 OFFCURVE",
"1256 685 OFFCURVE",
"1256 737 CURVE SMOOTH",
"1256 965 OFFCURVE",
"1037 1084 OFFCURVE",
"775 1084 CURVE SMOOTH",
"465 1084 OFFCURVE",
"159 953 OFFCURVE",
"102 685 CURVE",
"499 685 LINE",
"515 759 OFFCURVE",
"612 790 OFFCURVE",
"719 790 CURVE SMOOTH",
"811 790 OFFCURVE",
"874 755 OFFCURVE",
"874 711 CURVE SMOOTH",
"874 699 OFFCURVE",
"854 607 OFFCURVE",
"844 561 CURVE"
);
},
{
closed = 1;
nodes = (
"705 -26 OFFCURVE",
"987 65 OFFCURVE",
"1047 345 CURVE",
"842 518 LINE",
"802 333 OFFCURVE",
"631 272 OFFCURVE",
"528 272 CURVE SMOOTH",
"442 272 OFFCURVE",
"409 295 OFFCURVE",
"409 334 CURVE SMOOTH",
"409 384 OFFCURVE",
"462 420 OFFCURVE",
"578 420 CURVE SMOOTH",
"763 420 OFFCURVE",
"1132 439 OFFCURVE",
"1154 545 CURVE",
"871 690 LINE",
"861 643 OFFCURVE",
"815 639 OFFCURVE",
"577 639 CURVE SMOOTH",
"290 639 OFFCURVE",
"0 558 OFFCURVE",
"0 284 CURVE SMOOTH",
"0 101 OFFCURVE",
"161 -26 OFFCURVE",
"468 -26 CURVE SMOOTH"
);
},
{
closed = 1;
nodes = (
"2043 421 LINE",
"2063 478 OFFCURVE",
"2081 578 OFFCURVE",
"2081 646 CURVE SMOOTH",
"2081 919 OFFCURVE",
"1883 1084 OFFCURVE",
"1559 1084 CURVE SMOOTH",
"1158 1084 OFFCURVE",
"841 805 OFFCURVE",
"841 416 CURVE SMOOTH",
"841 151 OFFCURVE",
"1033 -26 OFFCURVE",
"1363 -26 CURVE SMOOTH",
"1724 -26 OFFCURVE",
"1955 148 OFFCURVE",
"2015 336 CURVE",
"1617 336 LINE",
"1605 303 OFFCURVE",
"1544 262 OFFCURVE",
"1415 262 CURVE SMOOTH",
"1277 262 OFFCURVE",
"1230 325 OFFCURVE",
"1230 428 CURVE SMOOTH",
"1230 624 OFFCURVE",
"1332 800 OFFCURVE",
"1524 800 CURVE SMOOTH",
"1649 800 OFFCURVE",
"1692 734 OFFCURVE",
"1692 672 CURVE SMOOTH",
"1692 657 OFFCURVE",
"1689 639 OFFCURVE",
"1682 609 CURVE",
"1721 651 LINE",
"1095 651 LINE",
"1046 421 LINE"
);
}
);
width = 2116;
},
{
anchors = (
{
name = bottom;
position = "{953, 0}";
},
{
name = top;
position = "{1179, 1062}";
}
);
layerId = "2503C51C-5A6C-4B2C-A968-78FEA18C2585";
paths = (
{
closed = 1;
nodes = (
"1039 526 LINE",
"1066 656 OFFCURVE",
"1088 766 OFFCURVE",
"1088 797 CURVE SMOOTH",
"1088 988 OFFCURVE",
"940 1075 OFFCURVE",
"733 1075 CURVE SMOOTH",
"464 1075 OFFCURVE",
"245 942 OFFCURVE",
"198 721 CURVE",
"231 721 LINE",
"273 921 OFFCURVE",
"482 1047 OFFCURVE",
"732 1047 CURVE SMOOTH",
"940 1047 OFFCURVE",
"1055 957 OFFCURVE",
"1055 793 CURVE SMOOTH",
"1055 753 OFFCURVE",
"1034 651 OFFCURVE",
"1011 542 CURVE"
);
},
{
closed = 1;
nodes = (
"707 -16 OFFCURVE",
"951 110 OFFCURVE",
"1039 526 CURVE",
"1011 542 LINE",
"920 114 OFFCURVE",
"683 12 OFFCURVE",
"441 12 CURVE SMOOTH",
"217 12 OFFCURVE",
"113 97 OFFCURVE",
"113 260 CURVE SMOOTH",
"113 476 OFFCURVE",
"316 569 OFFCURVE",
"592 569 CURVE SMOOTH",
"907 569 OFFCURVE",
"1048 571 OFFCURVE",
"1066 655 CURVE",
"1038 672 LINE",
"1023 599 OFFCURVE",
"947 597 OFFCURVE",
"586 597 CURVE SMOOTH",
"318 597 OFFCURVE",
"79 505 OFFCURVE",
"79 256 CURVE SMOOTH",
"79 72 OFFCURVE",
"204 -16 OFFCURVE",
"440 -16 CURVE SMOOTH"
);
},
{
closed = 1;
nodes = (
"1982 512 LINE",
"1994 564 OFFCURVE",
"2000 613 OFFCURVE",
"2000 664 CURVE SMOOTH",
"2000 894 OFFCURVE",
"1871 1075 OFFCURVE",
"1624 1075 CURVE SMOOTH",
"1277 1075 OFFCURVE",
"1002 771 OFFCURVE",
"1002 410 CURVE SMOOTH",
"1002 163 OFFCURVE",
"1142 -17 OFFCURVE",
"1399 -17 CURVE SMOOTH",
"1698 -17 OFFCURVE",
"1889 202 OFFCURVE",
"1928 332 CURVE",
"1897 332 LINE",
"1861 220 OFFCURVE",
"1682 11 OFFCURVE",
"1401 11 CURVE SMOOTH",
"1150 11 OFFCURVE",
"1033 190 OFFCURVE",
"1033 416 CURVE SMOOTH",
"1033 752 OFFCURVE",
"1295 1047 OFFCURVE",
"1622 1047 CURVE SMOOTH",
"1856 1047 OFFCURVE",
"1969 869 OFFCURVE",
"1969 661 CURVE SMOOTH",
"1969 632 OFFCURVE",
"1963 562 OFFCURVE",
"1956 534 CURVE",
"1971 540 LINE",
"1033 540 LINE",
"1026 512 LINE"
);
}
);
width = 2126;
},
{
anchors = (
{
name = bottom;
position = "{963, 0}";
},
{
name = top;
position = "{1189, 1062}";
}
);
layerId = "BEF1FBB1-ACEC-4AC1-9895-C09886024D55";
paths = (
{
closed = 1;
nodes = (
"1114 549 LINE",
"1119 572 OFFCURVE",
"1143 748 OFFCURVE",
"1143 773 CURVE SMOOTH",
"1143 979 OFFCURVE",
"966 1078 OFFCURVE",
"738 1078 CURVE SMOOTH",
"453 1078 OFFCURVE",
"214 942 OFFCURVE",
"163 704 CURVE",
"332 704 LINE",
"365 857 OFFCURVE",
"519 931 OFFCURVE",
"716 931 CURVE SMOOTH",
"883 931 OFFCURVE",
"989 874 OFFCURVE",
"989 754 CURVE SMOOTH",
"989 715 OFFCURVE",
"973 639 OFFCURVE",
"950 549 CURVE"
);
},
{
closed = 1;
nodes = (
"709 -20 OFFCURVE",
"996 93 OFFCURVE",
"1074 458 CURVE",
"949 533 LINE",
"877 196 OFFCURVE",
"657 130 OFFCURVE",
"477 130 CURVE SMOOTH",
"327 130 OFFCURVE",
"227 180 OFFCURVE",
"227 289 CURVE SMOOTH",
"227 453 OFFCURVE",
"390 466 OFFCURVE",
"588 466 CURVE SMOOTH",
"854 466 OFFCURVE",
"1076 482 OFFCURVE",
"1095 571 CURVE",
"978 669 LINE",
"964 606 OFFCURVE",
"875 605 OFFCURVE",
"583 605 CURVE SMOOTH",
"307 605 OFFCURVE",
"53 518 OFFCURVE",
"53 266 CURVE SMOOTH",
"53 86 OFFCURVE",
"202 -20 OFFCURVE",
"453 -20 CURVE SMOOTH"
);
},
{
closed = 1;
nodes = (
"2000 463 LINE",
"2015 509 OFFCURVE",
"2031 603 OFFCURVE",
"2031 662 CURVE SMOOTH",
"2031 905 OFFCURVE",
"1872 1078 OFFCURVE",
"1598 1078 CURVE SMOOTH",
"1231 1078 OFFCURVE",
"933 764 OFFCURVE",
"933 398 CURVE SMOOTH",
"933 146 OFFCURVE",
"1109 -21 OFFCURVE",
"1383 -21 CURVE SMOOTH",
"1706 -21 OFFCURVE",
"1912 182 OFFCURVE",
"1959 334 CURVE",
"1791 334 LINE",
"1763 251 OFFCURVE",
"1634 125 OFFCURVE",
"1409 125 CURVE SMOOTH",
"1211 125 OFFCURVE",
"1100 238 OFFCURVE",
"1100 418 CURVE SMOOTH",
"1100 693 OFFCURVE",
"1302 934 OFFCURVE",
"1579 934 CURVE SMOOTH",
"1770 934 OFFCURVE",
"1865 815 OFFCURVE",
"1865 667 CURVE SMOOTH",
"1865 615 OFFCURVE",
"1863 601 OFFCURVE",
"1852 565 CURVE",
"1882 615 LINE",
"1061 615 LINE",
"1029 463 LINE"
);
}
);
width = 2120;
}
);
leftKerningGroup = a;
leftMetricsKey = a;
rightKerningGroup = e;
rightMetricsKey = e;
unicode = 00E6;
},
{
glyphname = b;
lastChange = "2020-06-17 15:24:07 +0000";
layers = (
{
anchors = (
{
name = bottom;
position = "{677, 0}";
},
{
name = top;
position = "{951, 1563}";
}
);
layerId = "3FDD6C00-F7FD-4E85-84B0-0136AF7D7529";
paths = (
{
closed = 1;
nodes = (
"1067 -25 OFFCURVE",
"1304 252 OFFCURVE",
"1304 628 CURVE SMOOTH",
"1304 917 OFFCURVE",
"1135 1083 OFFCURVE",
"894 1083 CURVE SMOOTH",
"639 1083 OFFCURVE",
"414 866 OFFCURVE",
"351 571 CURVE",
"490 561 LINE",
"518 694 OFFCURVE",
"636 757 OFFCURVE",
"730 757 CURVE SMOOTH",
"824 757 OFFCURVE",
"887 706 OFFCURVE",
"887 593 CURVE SMOOTH",
"887 434 OFFCURVE",
"803 314 OFFCURVE",
"636 314 CURVE SMOOTH",
"552 314 OFFCURVE",
"476 366 OFFCURVE",
"476 467 CURVE SMOOTH",
"476 482 OFFCURVE",
"479 512 OFFCURVE",
"483 528 CURVE",
"341 525 LINE",
"332 501 OFFCURVE",
"324 457 OFFCURVE",
"324 386 CURVE SMOOTH",
"324 151 OFFCURVE",
"483 -25 OFFCURVE",
"702 -25 CURVE SMOOTH"
);
},
{
closed = 1;
nodes = (
"371 0 LINE",
"704 1563 LINE",
"300 1563 LINE",
"-33 0 LINE"
);
}
);
width = 1347;
},
{
anchors = (
{
name = bottom;
position = "{485, 0}";
},
{
name = top;
position = "{817, 1563}";
}
);
layerId = "2503C51C-5A6C-4B2C-A968-78FEA18C2585";
paths = (
{
closed = 1;
nodes = (
"836 -17 OFFCURVE",
"1041 295 OFFCURVE",
"1041 664 CURVE SMOOTH",
"1041 920 OFFCURVE",
"939 1075 OFFCURVE",
"711 1075 CURVE SMOOTH",
"471 1075 OFFCURVE",
"247 886 OFFCURVE",
"202 675 CURVE",
"231 675 LINE",
"273 872 OFFCURVE",
"495 1047 OFFCURVE",
"711 1047 CURVE SMOOTH",
"920 1047 OFFCURVE",
"1010 902 OFFCURVE",
"1010 663 CURVE SMOOTH",
"1010 317 OFFCURVE",
"819 11 OFFCURVE",
"491 11 CURVE SMOOTH",
"300 11 OFFCURVE",
"163 148 OFFCURVE",
"163 316 CURVE SMOOTH",
"163 347 OFFCURVE",
"170 386 OFFCURVE",
"171 390 CURVE",
"141 390 LINE",
"140 387 OFFCURVE",
"132 344 OFFCURVE",
"132 311 CURVE SMOOTH",
"132 131 OFFCURVE",
"279 -17 OFFCURVE",
"491 -17 CURVE SMOOTH"
);
},
{
closed = 1;
nodes = (
"88 0 LINE",
"421 1563 LINE",
"390 1563 LINE",
"57 0 LINE"
);
}
);
width = 1174;
},
{
anchors = (
{
name = bottom;
position = "{564, 0}";
},
{
name = top;
position = "{874, 1563}";
}
);
layerId = "BEF1FBB1-ACEC-4AC1-9895-C09886024D55";
paths = (
{
closed = 1;
nodes = (
"905 -20 OFFCURVE",
"1151 289 OFFCURVE",
"1151 657 CURVE SMOOTH",
"1151 928 OFFCURVE",
"994 1078 OFFCURVE",
"768 1078 CURVE SMOOTH",
"522 1078 OFFCURVE",
"258 889 OFFCURVE",
"200 616 CURVE",
"330 612 LINE",
"367 785 OFFCURVE",
"551 922 OFFCURVE",
"721 922 CURVE SMOOTH",
"880 922 OFFCURVE",
"977 834 OFFCURVE",
"977 649 CURVE SMOOTH",
"977 379 OFFCURVE",
"823 141 OFFCURVE",
"555 141 CURVE SMOOTH",
"404 141 OFFCURVE",
"290 249 OFFCURVE",
"290 393 CURVE SMOOTH",
"290 415 OFFCURVE",
"293 441 OFFCURVE",
"298 462 CURVE",
"187 459 LINE",
"178 422 OFFCURVE",
"173 388 OFFCURVE",
"173 350 CURVE SMOOTH",
"173 130 OFFCURVE",
"340 -20 OFFCURVE",
"555 -20 CURVE SMOOTH"
);
},
{
closed = 1;
nodes = (
"201 0 LINE",
"533 1563 LINE",
"362 1563 LINE",
"30 0 LINE"
);
}
);
width = 1245;
}
);
leftKerningGroup = h;
leftMetricsKey = h;
note = b;
rightKerningGroup = o;
rightMetricsKey = o;
unicode = 0062;
},
{
glyphname = c;
lastChange = "2020-06-17 15:32:46 +0000";
layers = (
{
anchors = (
{
name = bottom;
position = "{558, 0}";
},
{
name = top;
position = "{764, 1062}";
}
);
layerId = "3FDD6C00-F7FD-4E85-84B0-0136AF7D7529";
paths = (
{
closed = 1;
nodes = (
"938 -26 OFFCURVE",
"1175 210 OFFCURVE",
"1209 424 CURVE",
"809 424 LINE",
"781 344 OFFCURVE",
"723 285 OFFCURVE",
"604 285 CURVE SMOOTH",
"505 285 OFFCURVE",
"450 354 OFFCURVE",
"450 459 CURVE SMOOTH",
"450 619 OFFCURVE",
"548 773 OFFCURVE",
"708 773 CURVE SMOOTH",
"831 773 OFFCURVE",
"855 701 OFFCURVE",
"855 654 CURVE SMOOTH",
"855 643 OFFCURVE",
"855 639 OFFCURVE",
"854 631 CURVE",
"1253 631 LINE",
"1256 643 OFFCURVE",
"1259 668 OFFCURVE",
"1259 692 CURVE SMOOTH",
"1259 882 OFFCURVE",
"1093 1084 OFFCURVE",
"758 1084 CURVE SMOOTH",
"335 1084 OFFCURVE",
"43 844 OFFCURVE",
"43 437 CURVE SMOOTH",
"43 163 OFFCURVE",
"219 -26 OFFCURVE",
"562 -26 CURVE SMOOTH"
);
}
);
width = 1277;
},
{
anchors = (
{
name = bottom;
position = "{514, 0}";
},
{
name = top;
position = "{735, 1062}";
}
);
layerId = "2503C51C-5A6C-4B2C-A968-78FEA18C2585";
paths = (
{
closed = 1;
nodes = (
"819 -17 OFFCURVE",
"1000 168 OFFCURVE",
"1033 325 CURVE",
"1002 325 LINE",
"971 183 OFFCURVE",
"802 11 OFFCURVE",
"524 11 CURVE SMOOTH",
"302 11 OFFCURVE",
"152 151 OFFCURVE",
"152 415 CURVE SMOOTH",
"152 760 OFFCURVE",
"406 1047 OFFCURVE",
"744 1047 CURVE SMOOTH",
"948 1047 OFFCURVE",
"1091 928 OFFCURVE",
"1091 774 CURVE SMOOTH",
"1091 758 OFFCURVE",
"1090 739 OFFCURVE",
"1087 727 CURVE",
"1117 727 LINE",
"1119 736 OFFCURVE",
"1121 761 OFFCURVE",
"1121 773 CURVE SMOOTH",
"1121 913 OFFCURVE",
"1000 1075 OFFCURVE",
"744 1075 CURVE SMOOTH",
"390 1075 OFFCURVE",
"121 779 OFFCURVE",
"121 413 CURVE SMOOTH",
"121 133 OFFCURVE",
"285 -17 OFFCURVE",
"524 -17 CURVE SMOOTH"
);
}
);
width = 1217;
},
{
anchors = (
{
name = bottom;
position = "{529, 0}";
},
{
name = top;
position = "{748, 1062}";
}
);
layerId = "BEF1FBB1-ACEC-4AC1-9895-C09886024D55";
paths = (
{
closed = 1;
nodes = (
"869 -20 OFFCURVE",
"1071 179 OFFCURVE",
"1107 382 CURVE",
"938 382 LINE",
"902 251 OFFCURVE",
"788 136 OFFCURVE",
"562 136 CURVE SMOOTH",
"381 136 OFFCURVE",
"267 236 OFFCURVE",
"267 432 CURVE SMOOTH",
"267 716 OFFCURVE",
"452 922 OFFCURVE",
"730 922 CURVE SMOOTH",
"906 922 OFFCURVE",
"1000 839 OFFCURVE",
"1000 696 CURVE SMOOTH",
"1000 687 OFFCURVE",
"999 678 OFFCURVE",
"998 671 CURVE",
"1168 671 LINE",
"1170 681 OFFCURVE",
"1172 698 OFFCURVE",
"1172 725 CURVE SMOOTH",
"1172 896 OFFCURVE",
"1032 1078 OFFCURVE",
"754 1078 CURVE SMOOTH",
"383 1078 OFFCURVE",
"95 802 OFFCURVE",
"95 423 CURVE SMOOTH",
"95 145 OFFCURVE",
"269 -20 OFFCURVE",
"540 -20 CURVE SMOOTH"
);
}
);
width = 1242;
}
);
leftKerningGroup = o;
leftMetricsKey = o;
note = c;
rightKerningGroup = o;
rightMetricsKey = o;
unicode = 0063;
},
{
glyphname = ccedilla;
lastChange = "2020-06-17 13:04:57 +0000";
layers = (
{
components = (
{
name = c;
}
);
layerId = "3FDD6C00-F7FD-4E85-84B0-0136AF7D7529";
paths = (
{
closed = 1;
nodes = (
"606 -72 OFFCURVE",
"565 -91 OFFCURVE",
"548 -123 CURVE",
"558 -123 LINE",
"631 -16 LINE",
"465 -16 LINE",
"371 -159 LINE",
"511 -198 LINE",
"528 -176 OFFCURVE",
"564 -166 OFFCURVE",
"595 -166 CURVE SMOOTH",
"623 -166 OFFCURVE",
"646 -178 OFFCURVE",
"646 -206 CURVE SMOOTH",
"646 -256 OFFCURVE",
"588 -281 OFFCURVE",
"513 -281 CURVE SMOOTH",
"442 -281 OFFCURVE",
"363 -246 OFFCURVE",
"336 -228 CURVE",
"240 -369 LINE",
"279 -398 OFFCURVE",
"400 -426 OFFCURVE",
"489 -426 CURVE SMOOTH",
"655 -426 OFFCURVE",
"817 -352 OFFCURVE",
"817 -198 CURVE SMOOTH",
"817 -105 OFFCURVE",
"737 -72 OFFCURVE",
"671 -72 CURVE SMOOTH"
);
}
);
width = 1277;
},
{
components = (
{
name = c;
}
);
layerId = "2503C51C-5A6C-4B2C-A968-78FEA18C2585";
paths = (
{
closed = 1;
nodes = (
"499 -158 OFFCURVE",
"453 -175 OFFCURVE",
"438 -200 CURVE",
"438 -210 LINE",
"529 -15 LINE",
"499 -15 LINE",
"406 -214 LINE",
"433 -227 LINE",
"457 -203 OFFCURVE",
"504 -186 OFFCURVE",
"540 -186 CURVE SMOOTH",
"590 -186 OFFCURVE",
"622 -209 OFFCURVE",
"622 -264 CURVE SMOOTH",
"622 -363 OFFCURVE",
"539 -421 OFFCURVE",
"446 -421 CURVE SMOOTH",
"381 -421 OFFCURVE",
"348 -402 OFFCURVE",
"338 -394 CURVE",
"320 -422 LINE",
"329 -430 OFFCURVE",
"376 -449 OFFCURVE",
"442 -449 CURVE SMOOTH",
"552 -449 OFFCURVE",
"652 -383 OFFCURVE",
"652 -261 CURVE SMOOTH",
"652 -186 OFFCURVE",
"603 -158 OFFCURVE",
"545 -158 CURVE SMOOTH"
);
}
);
width = 1217;
},
{
components = (
{
name = c;
}
);
layerId = "BEF1FBB1-ACEC-4AC1-9895-C09886024D55";
paths = (
{
closed = 1;
nodes = (
"553 -115 OFFCURVE",
"489 -143 OFFCURVE",
"473 -171 CURVE",
"501 -177 LINE",
"585 -15 LINE",
"496 -15 LINE",
"403 -193 LINE",
"476 -216 LINE",
"497 -193 OFFCURVE",
"540 -178 OFFCURVE",
"574 -178 CURVE SMOOTH",
"616 -178 OFFCURVE",
"645 -197 OFFCURVE",
"645 -242 CURVE SMOOTH",
"645 -323 OFFCURVE",
"571 -368 OFFCURVE",
"485 -368 CURVE SMOOTH",
"418 -368 OFFCURVE",
"367 -343 OFFCURVE",
"351 -331 CURVE",
"304 -402 LINE",
"324 -418 OFFCURVE",
"399 -440 OFFCURVE",
"473 -440 CURVE SMOOTH",
"604 -440 OFFCURVE",
"728 -371 OFFCURVE",
"728 -237 CURVE SMOOTH",
"728 -155 OFFCURVE",
"667 -115 OFFCURVE",
"606 -115 CURVE SMOOTH"
);
}
);
width = 1242;
}
);
leftKerningGroup = o;
leftMetricsKey = c;
rightKerningGroup = c;
rightMetricsKey = c;
unicode = 00E7;
},
{
glyphname = d;
lastChange = "2020-06-17 15:24:15 +0000";
layers = (
{
anchors = (
{
name = bottom;
position = "{621, 0}";
},
{
name = center;
position = "{1212, 1298}";
},
{
name = top;
position = "{858, 1580}";
},
{
name = topright;
position = "{1472, 1062}";
}
);
layerId = "3FDD6C00-F7FD-4E85-84B0-0136AF7D7529";
paths = (
{
closed = 1;
nodes = (
"682 -26 OFFCURVE",
"931 210 OFFCURVE",
"994 505 CURVE",
"854 515 LINE",
"826 382 OFFCURVE",
"709 314 OFFCURVE",
"613 314 CURVE SMOOTH",
"522 314 OFFCURVE",
"456 375 OFFCURVE",
"456 487 CURVE SMOOTH",
"456 642 OFFCURVE",
"557 757 OFFCURVE",
"707 757 CURVE SMOOTH",
"789 757 OFFCURVE",
"869 709 OFFCURVE",
"869 608 CURVE SMOOTH",
"869 593 OFFCURVE",
"865 564 OFFCURVE",
"861 548 CURVE",
"1003 548 LINE",
"1014 591 OFFCURVE",
"1022 654 OFFCURVE",
"1022 697 CURVE SMOOTH",
"1022 923 OFFCURVE",
"876 1084 OFFCURVE",
"659 1084 CURVE SMOOTH",
"305 1084 OFFCURVE",
"37 778 OFFCURVE",
"37 414 CURVE SMOOTH",
"37 130 OFFCURVE",
"188 -26 OFFCURVE",
"427 -26 CURVE SMOOTH"
);
},
{
closed = 1;
nodes = (
"1148 0 LINE",
"1481 1563 LINE",
"1077 1563 LINE",
"744 0 LINE"
);
}
);
width = 1363;
},
{
anchors = (
{
name = bottom;
position = "{579, 0}";
},
{
name = center;
position = "{1146, 1295}";
},
{
name = top;
position = "{814, 1563}";
},
{
name = topright;
position = "{1171, 1062}";
}
);
layerId = "2503C51C-5A6C-4B2C-A968-78FEA18C2585";
paths = (
{
closed = 1;
nodes = (
"722 -17 OFFCURVE",
"915 172 OFFCURVE",
"960 383 CURVE",
"931 383 LINE",
"889 186 OFFCURVE",
"698 11 OFFCURVE",
"462 11 CURVE SMOOTH",
"254 11 OFFCURVE",
"153 163 OFFCURVE",
"153 389 CURVE SMOOTH",
"153 739 OFFCURVE",
"341 1045 OFFCURVE",
"672 1045 CURVE SMOOTH",
"863 1045 OFFCURVE",
"1000 910 OFFCURVE",
"1000 742 CURVE SMOOTH",
"1000 717 OFFCURVE",
"996 692 OFFCURVE",
"990 661 CURVE",
"1018 657 LINE",
"1020 663 OFFCURVE",
"1030 702 OFFCURVE",
"1030 747 CURVE SMOOTH",
"1030 927 OFFCURVE",
"885 1073 OFFCURVE",
"673 1073 CURVE SMOOTH",
"323 1073 OFFCURVE",
"121 760 OFFCURVE",
"121 387 CURVE SMOOTH",
"121 145 OFFCURVE",
"234 -17 OFFCURVE",
"460 -17 CURVE SMOOTH"
);
},
{
closed = 1;
nodes = (
"879 0 LINE",
"1212 1563 LINE",
"1182 1563 LINE",
"849 0 LINE"
);
}
);
width = 1167;
},
{
anchors = (
{
name = bottom;
position = "{603, 0}";
},
{
name = center;
position = "{1179, 1296}";
},
{
name = top;
position = "{839, 1569}";
},
{
name = topright;
position = "{1292, 1062}";
}
);
layerId = "BEF1FBB1-ACEC-4AC1-9895-C09886024D55";
paths = (
{
closed = 1;
nodes = (
"737 -20 OFFCURVE",
"990 187 OFFCURVE",
"1048 459 CURVE",
"916 462 LINE",
"878 282 OFFCURVE",
"700 141 OFFCURVE",
"523 141 CURVE SMOOTH",
"365 141 OFFCURVE",
"267 231 OFFCURVE",
"267 416 CURVE SMOOTH",
"267 686 OFFCURVE",
"420 922 OFFCURVE",
"689 922 CURVE SMOOTH",
"839 922 OFFCURVE",
"954 816 OFFCURVE",
"954 672 CURVE SMOOTH",
"954 653 OFFCURVE",
"950 619 OFFCURVE",
"945 599 CURVE",
"1058 604 LINE",
"1066 636 OFFCURVE",
"1072 682 OFFCURVE",
"1072 714 CURVE SMOOTH",
"1072 933 OFFCURVE",
"903 1078 OFFCURVE",
"688 1078 CURVE SMOOTH",
"338 1078 OFFCURVE",
"92 767 OFFCURVE",
"92 400 CURVE SMOOTH",
"92 127 OFFCURVE",
"247 -20 OFFCURVE",
"475 -20 CURVE SMOOTH"
);
},
{
closed = 1;
nodes = (
"988 0 LINE",
"1320 1563 LINE",
"1149 1563 LINE",
"817 0 LINE"
);
}
);
width = 1248;
}
);
leftKerningGroup = o;
leftMetricsKey = o;
note = d;
rightKerningGroup = l;
unicode = 0064;
},
{
glyphname = eth;
lastChange = "2020-06-10 15:20:46 +0000";
layers = (
{
layerId = "3FDD6C00-F7FD-4E85-84B0-0136AF7D7529";
paths = (
{
closed = 1;
nodes = (
"629 1103 LINE",
"1017 1468 LINE",
"802 1591 LINE",
"412 1222 LINE"
);
},
{
closed = 1;
nodes = (
"1268 627 LINE",
"1268 1192 OFFCURVE",
"938 1475 OFFCURVE",
"501 1576 CURVE",
"332 1394 LINE",
"672 1306 OFFCURVE",
"874 1172 OFFCURVE",
"874 643 CURVE"
);
},
{
closed = 1;
nodes = (
"957 -26 OFFCURVE",
"1268 241 OFFCURVE",
"1268 627 CURVE SMOOTH",
"1268 901 OFFCURVE",
"1062 1084 OFFCURVE",
"740 1084 CURVE SMOOTH",
"350 1084 OFFCURVE",
"40 819 OFFCURVE",
"40 433 CURVE SMOOTH",
"40 159 OFFCURVE",
"246 -26 OFFCURVE",
"568 -26 CURVE SMOOTH"
);
},
{
closed = 1;
nodes = (
"497 280 OFFCURVE",
"448 349 OFFCURVE",
"448 462 CURVE SMOOTH",
"448 634 OFFCURVE",
"547 778 OFFCURVE",
"707 778 CURVE SMOOTH",
"810 778 OFFCURVE",
"861 710 OFFCURVE",
"861 599 CURVE SMOOTH",
"861 428 OFFCURVE",
"760 280 OFFCURVE",
"601 280 CURVE SMOOTH"
);
}
);
width = 1364;
},
{
layerId = "2503C51C-5A6C-4B2C-A968-78FEA18C2585";
paths = (
{
closed = 1;
nodes = (
"826 1339 LINE",
"1047 1509 LINE",
"1020 1530 LINE",
"799 1360 LINE"
);
},
{
closed = 1;
nodes = (
"1147 657 LINE",
"1147 1154 OFFCURVE",
"973 1479 OFFCURVE",
"727 1554 CURVE",
"704 1531 LINE",
"949 1456 OFFCURVE",
"1116 1133 OFFCURVE",
"1116 651 CURVE"
);
},
{
closed = 1;
nodes = (
"867 -17 OFFCURVE",
"1147 262 OFFCURVE",
"1147 657 CURVE SMOOTH",
"1147 893 OFFCURVE",
"1001 1075 OFFCURVE",
"743 1075 CURVE SMOOTH",
"387 1075 OFFCURVE",
"120 777 OFFCURVE",
"120 406 CURVE SMOOTH",
"120 154 OFFCURVE",
"269 -17 OFFCURVE",
"523 -17 CURVE SMOOTH"
);
},
{
closed = 1;
nodes = (
"283 11 OFFCURVE",
"152 176 OFFCURVE",
"152 412 CURVE SMOOTH",
"152 760 OFFCURVE",
"406 1047 OFFCURVE",
"743 1047 CURVE SMOOTH",
"983 1047 OFFCURVE",
"1115 879 OFFCURVE",
"1115 652 CURVE SMOOTH",
"1115 274 OFFCURVE",
"845 11 OFFCURVE",
"523 11 CURVE SMOOTH"
);
}
);
width = 1312;
},
{
layerId = "BEF1FBB1-ACEC-4AC1-9895-C09886024D55";
paths = (
{
closed = 1;
nodes = (
"747 1221 LINE",
"1080 1484 LINE",
"943 1553 LINE",
"608 1288 LINE"
);
},
{
closed = 1;
nodes = (
"1197 646 LINE",
"1197 1168 OFFCURVE",
"964 1478 OFFCURVE",
"647 1562 CURVE",
"539 1460 LINE",
"820 1380 OFFCURVE",
"1030 1148 OFFCURVE",
"1030 648 CURVE"
);
},
{
closed = 1;
nodes = (
"905 -20 OFFCURVE",
"1197 254 OFFCURVE",
"1197 646 CURVE SMOOTH",
"1197 896 OFFCURVE",
"1028 1078 OFFCURVE",
"746 1078 CURVE SMOOTH",
"378 1078 OFFCURVE",
"94 793 OFFCURVE",
"94 416 CURVE SMOOTH",
"94 156 OFFCURVE",
"265 -20 OFFCURVE",
"544 -20 CURVE SMOOTH"
);
},
{
closed = 1;
nodes = (
"368 132 OFFCURVE",
"267 241 OFFCURVE",
"267 431 CURVE SMOOTH",
"267 713 OFFCURVE",
"463 926 OFFCURVE",
"734 926 CURVE SMOOTH",
"923 926 OFFCURVE",
"1024 816 OFFCURVE",
"1024 632 CURVE SMOOTH",
"1024 332 OFFCURVE",
"818 132 OFFCURVE",
"557 132 CURVE SMOOTH"
);
}
);
width = 1336;
}
);
leftKerningGroup = o;
leftMetricsKey = o;
rightKerningGroup = d;
rightMetricsKey = d;
unicode = 00F0;
},
{
glyphname = dcroat;
lastChange = "2020-06-10 15:20:46 +0000";
layers = (
{
components = (
{
name = d;
}
);
layerId = "3FDD6C00-F7FD-4E85-84B0-0136AF7D7529";
paths = (
{
closed = 1;
nodes = (
"1517 1220 LINE",
"1555 1399 LINE",
"654 1399 LINE",
"616 1220 LINE"
);
}
);
width = 1353;
},
{
components = (
{
name = d;
}
);
layerId = "2503C51C-5A6C-4B2C-A968-78FEA18C2585";
paths = (
{
closed = 1;
nodes = (
"1290 1362 LINE",
"1296 1388 LINE",
"808 1388 LINE",
"802 1362 LINE"
);
}
);
width = 1168;
},
{
components = (
{
alignment = -1;
name = d;
}
);
layerId = "BEF1FBB1-ACEC-4AC1-9895-C09886024D55";
paths = (
{
closed = 1;
nodes = (
"1373 1275 LINE",
"1401 1405 LINE",
"759 1405 LINE",
"731 1275 LINE"
);
}
);
width = 1252;
}
);
leftKerningGroup = o;
leftMetricsKey = o;
rightKerningGroup = l;
unicode = 0111;
},
{
glyphname = e;
lastChange = "2020-06-17 15:32:59 +0000";
layers = (
{
anchors = (
{
name = bottom;
position = "{554, 0}";
},
{
name = ogonek;
position = "{876, 25}";
},
{
name = top;
position = "{753, 1062}";
}
);
layerId = "3FDD6C00-F7FD-4E85-84B0-0136AF7D7529";
paths = (
{
closed = 1;
nodes = (
"1236 421 LINE",
"1257 480 OFFCURVE",
"1270 568 OFFCURVE",
"1270 632 CURVE SMOOTH",
"1270 913 OFFCURVE",
"1071 1084 OFFCURVE",
"742 1084 CURVE SMOOTH",
"349 1084 OFFCURVE",
"40 819 OFFCURVE",
"40 437 CURVE SMOOTH",
"40 166 OFFCURVE",
"232 -26 OFFCURVE",
"566 -26 CURVE SMOOTH",
"937 -26 OFFCURVE",
"1148 148 OFFCURVE",
"1208 336 CURVE",
"810 336 LINE",
"798 303 OFFCURVE",
"737 262 OFFCURVE",
"608 262 CURVE SMOOTH",
"468 262 OFFCURVE",
"426 326 OFFCURVE",
"426 432 CURVE SMOOTH",
"426 639 OFFCURVE",
"521 800 OFFCURVE",
"717 800 CURVE SMOOTH",
"842 800 OFFCURVE",
"885 734 OFFCURVE",
"885 672 CURVE SMOOTH",
"885 657 OFFCURVE",
"881 636 OFFCURVE",
"875 609 CURVE",
"914 661 LINE",
"288 661 LINE",
"239 421 LINE"
);
}
);
width = 1308;
},
{
anchors = (
{
name = bottom;
position = "{520, 0}";
},
{
name = ogonek;
position = "{725, 23}";
},
{
name = top;
position = "{743, 1062}";
}
);
layerId = "2503C51C-5A6C-4B2C-A968-78FEA18C2585";
paths = (
{
closed = 1;
nodes = (
"1100 512 LINE",
"1112 564 OFFCURVE",
"1118 613 OFFCURVE",
"1118 664 CURVE SMOOTH",
"1118 894 OFFCURVE",
"989 1075 OFFCURVE",
"742 1075 CURVE SMOOTH",
"395 1075 OFFCURVE",
"120 771 OFFCURVE",
"120 410 CURVE SMOOTH",
"120 163 OFFCURVE",
"260 -17 OFFCURVE",
"517 -17 CURVE SMOOTH",
"816 -17 OFFCURVE",
"1007 202 OFFCURVE",
"1046 332 CURVE",
"1015 332 LINE",
"979 220 OFFCURVE",
"800 11 OFFCURVE",
"519 11 CURVE SMOOTH",
"268 11 OFFCURVE",
"151 190 OFFCURVE",
"151 416 CURVE SMOOTH",
"151 752 OFFCURVE",
"413 1047 OFFCURVE",
"740 1047 CURVE SMOOTH",
"974 1047 OFFCURVE",
"1087 869 OFFCURVE",
"1087 661 CURVE SMOOTH",
"1087 632 OFFCURVE",
"1081 562 OFFCURVE",
"1074 534 CURVE",
"1089 540 LINE",
"151 540 LINE",
"144 512 LINE"
);
}
);
width = 1244;
},
{
anchors = (
{
name = bottom;
position = "{540, 0}";
},
{
name = ogonek;
position = "{778, 19}";
},
{
name = top;
position = "{749, 1062}";
}
);
layerId = "BEF1FBB1-ACEC-4AC1-9895-C09886024D55";
paths = (
{
closed = 1;
nodes = (
"1155 463 LINE",
"1170 508 OFFCURVE",
"1184 596 OFFCURVE",
"1184 653 CURVE SMOOTH",
"1184 895 OFFCURVE",
"1026 1078 OFFCURVE",
"749 1078 CURVE SMOOTH",
"385 1078 OFFCURVE",
"94 794 OFFCURVE",
"94 421 CURVE SMOOTH",
"94 156 OFFCURVE",
"259 -21 OFFCURVE",
"541 -21 CURVE SMOOTH",
"864 -21 OFFCURVE",
"1076 164 OFFCURVE",
"1114 334 CURVE",
"942 334 LINE",
"912 241 OFFCURVE",
"801 135 OFFCURVE",
"566 135 CURVE SMOOTH",
"357 135 OFFCURVE",
"258 243 OFFCURVE",
"258 424 CURVE SMOOTH",
"258 709 OFFCURVE",
"445 924 OFFCURVE",
"732 924 CURVE SMOOTH",
"930 924 OFFCURVE",
"1020 814 OFFCURVE",
"1020 670 CURVE SMOOTH",
"1020 617 OFFCURVE",
"1015 593 OFFCURVE",
"1007 565 CURVE",
"1037 615 LINE",
"216 615 LINE",
"184 463 LINE"
);
}
);
width = 1275;
}
);
leftKerningGroup = o;
leftMetricsKey = o;
note = e;
rightKerningGroup = o;
rightMetricsKey = o;
unicode = 0065;
},
{
glyphname = ecedilla;
lastChange = "2020-06-08 15:09:29 +0000";
layers = (
{
components = (
{
name = e;
}
);
layerId = "2503C51C-5A6C-4B2C-A968-78FEA18C2585";
paths = (
{
closed = 1;
nodes = (
"506 -143 OFFCURVE",
"460 -160 OFFCURVE",
"445 -185 CURVE",
"445 -195 LINE",
"536 0 LINE",
"506 0 LINE",
"413 -199 LINE",
"440 -212 LINE",
"464 -188 OFFCURVE",
"511 -171 OFFCURVE",
"547 -171 CURVE SMOOTH",
"597 -171 OFFCURVE",
"629 -194 OFFCURVE",
"629 -249 CURVE SMOOTH",
"629 -348 OFFCURVE",
"546 -406 OFFCURVE",
"453 -406 CURVE SMOOTH",
"388 -406 OFFCURVE",
"355 -387 OFFCURVE",
"345 -379 CURVE",
"327 -407 LINE",
"336 -415 OFFCURVE",
"383 -434 OFFCURVE",
"449 -434 CURVE SMOOTH",
"559 -434 OFFCURVE",
"659 -368 OFFCURVE",
"659 -246 CURVE SMOOTH",
"659 -171 OFFCURVE",
"610 -143 OFFCURVE",
"552 -143 CURVE SMOOTH"
);
}
);
width = 1236;
},
{
components = (
{
name = e;
}
);
layerId = "3FDD6C00-F7FD-4E85-84B0-0136AF7D7529";
paths = (
{
closed = 1;
nodes = (
"607 -56 OFFCURVE",
"566 -75 OFFCURVE",
"549 -107 CURVE",
"559 -107 LINE",
"632 0 LINE",
"466 0 LINE",
"372 -143 LINE",
"512 -182 LINE",
"529 -160 OFFCURVE",
"565 -150 OFFCURVE",
"596 -150 CURVE SMOOTH",
"624 -150 OFFCURVE",
"647 -162 OFFCURVE",
"647 -190 CURVE SMOOTH",
"647 -240 OFFCURVE",
"589 -265 OFFCURVE",
"514 -265 CURVE SMOOTH",
"443 -265 OFFCURVE",
"364 -230 OFFCURVE",
"337 -212 CURVE",
"241 -353 LINE",
"280 -382 OFFCURVE",
"401 -410 OFFCURVE",
"490 -410 CURVE SMOOTH",
"656 -410 OFFCURVE",
"818 -336 OFFCURVE",
"818 -182 CURVE SMOOTH",
"818 -89 OFFCURVE",
"738 -56 OFFCURVE",
"672 -56 CURVE SMOOTH"
);
}
);
width = 1288;
},
{
components = (
{
name = e;
}
);
layerId = "BEF1FBB1-ACEC-4AC1-9895-C09886024D55";
paths = (
{
closed = 1;
nodes = (
"564 -100 OFFCURVE",
"500 -128 OFFCURVE",
"484 -156 CURVE",
"512 -162 LINE",
"596 0 LINE",
"507 0 LINE",
"414 -178 LINE",
"487 -201 LINE",
"508 -178 OFFCURVE",
"551 -163 OFFCURVE",
"585 -163 CURVE SMOOTH",
"627 -163 OFFCURVE",
"656 -182 OFFCURVE",
"656 -227 CURVE SMOOTH",
"656 -308 OFFCURVE",
"582 -353 OFFCURVE",
"496 -353 CURVE SMOOTH",
"429 -353 OFFCURVE",
"378 -328 OFFCURVE",
"362 -316 CURVE",
"315 -387 LINE",
"335 -403 OFFCURVE",
"410 -425 OFFCURVE",
"484 -425 CURVE SMOOTH",
"615 -425 OFFCURVE",
"739 -356 OFFCURVE",
"739 -222 CURVE SMOOTH",
"739 -140 OFFCURVE",
"678 -100 OFFCURVE",
"617 -100 CURVE SMOOTH"
);
}
);
width = 1295;
}
);
unicode = 0229;
},
{
glyphname = eogonek;
lastChange = "2020-06-10 15:20:46 +0000";
layers = (
{
components = (
{
name = e;
}
);
layerId = "3FDD6C00-F7FD-4E85-84B0-0136AF7D7529";
paths = (
{
closed = 1;
nodes = (
"816 -248 OFFCURVE",
"789 -251 OFFCURVE",
"765 -251 CURVE SMOOTH",
"717 -251 OFFCURVE",
"678 -242 OFFCURVE",
"678 -197 CURVE SMOOTH",
"678 -136 OFFCURVE",
"812 -15 OFFCURVE",
"866 25 CURVE",
"678 25 LINE",
"594 -27 OFFCURVE",
"460 -159 OFFCURVE",
"460 -273 CURVE SMOOTH",
"460 -389 OFFCURVE",
"580 -437 OFFCURVE",
"724 -437 CURVE SMOOTH",
"758 -437 OFFCURVE",
"790 -435 OFFCURVE",
"818 -432 CURVE",
"838 -245 LINE"
);
}
);
width = 1308;
},
{
components = (
{
name = e;
}
);
layerId = "2503C51C-5A6C-4B2C-A968-78FEA18C2585";
paths = (
{
closed = 1;
nodes = (
"665 -338 OFFCURVE",
"627 -342 OFFCURVE",
"599 -342 CURVE SMOOTH",
"537 -342 OFFCURVE",
"502 -313 OFFCURVE",
"502 -256 CURVE SMOOTH",
"502 -160 OFFCURVE",
"635 -51 OFFCURVE",
"726 23 CURVE",
"698 23 LINE",
"595 -49 OFFCURVE",
"466 -153 OFFCURVE",
"466 -262 CURVE SMOOTH",
"466 -340 OFFCURVE",
"520 -373 OFFCURVE",
"592 -373 CURVE SMOOTH",
"623 -373 OFFCURVE",
"661 -369 OFFCURVE",
"685 -364 CURVE",
"688 -333 LINE"
);
}
);
width = 1244;
},
{
components = (
{
name = e;
}
);
layerId = "BEF1FBB1-ACEC-4AC1-9895-C09886024D55";
paths = (
{
closed = 1;
nodes = (
"729 -320 OFFCURVE",
"696 -324 OFFCURVE",
"670 -324 CURVE SMOOTH",
"609 -324 OFFCURVE",
"576 -303 OFFCURVE",
"576 -250 CURVE SMOOTH",
"576 -169 OFFCURVE",
"709 -45 OFFCURVE",
"788 19 CURVE",
"690 19 LINE",
"600 -44 OFFCURVE",
"472 -154 OFFCURVE",
"472 -262 CURVE SMOOTH",
"472 -360 OFFCURVE",
"543 -413 OFFCURVE",
"649 -413 CURVE SMOOTH",
"681 -413 OFFCURVE",
"717 -410 OFFCURVE",
"743 -406 CURVE",
"752 -316 LINE"
);
}
);
width = 1275;
}
);
leftKerningGroup = o;
leftMetricsKey = e;
rightKerningGroup = e;
rightMetricsKey = e;
unicode = 0119;
},
{
glyphname = schwa;
lastChange = "2020-06-17 15:33:21 +0000";
layers = (
{
layerId = "2503C51C-5A6C-4B2C-A968-78FEA18C2585";
paths = (
{
closed = 1;
nodes = (
"838 -17 OFFCURVE",
"1113 287 OFFCURVE",
"1113 648 CURVE SMOOTH",
"1113 895 OFFCURVE",
"973 1075 OFFCURVE",
"716 1075 CURVE SMOOTH",
"417 1075 OFFCURVE",
"226 856 OFFCURVE",
"187 726 CURVE",
"218 726 LINE",
"254 838 OFFCURVE",
"433 1047 OFFCURVE",
"714 1047 CURVE SMOOTH",
"965 1047 OFFCURVE",
"1082 868 OFFCURVE",
"1082 642 CURVE SMOOTH",
"1082 306 OFFCURVE",
"820 11 OFFCURVE",
"493 11 CURVE SMOOTH",
"259 11 OFFCURVE",
"146 189 OFFCURVE",
"146 397 CURVE SMOOTH",
"146 426 OFFCURVE",
"152 492 OFFCURVE",
"159 520 CURVE",
"144 516 LINE",
"1082 516 LINE",
"1089 546 LINE",
"133 546 LINE",
"121 494 OFFCURVE",
"115 445 OFFCURVE",
"115 394 CURVE SMOOTH",
"115 164 OFFCURVE",
"244 -17 OFFCURVE",
"491 -17 CURVE SMOOTH"
);
}
);
width = 1244;
},
{
layerId = "3FDD6C00-F7FD-4E85-84B0-0136AF7D7529";
paths = (
{
closed = 1;
nodes = (
"960 -21 OFFCURVE",
"1266 244 OFFCURVE",
"1266 635 CURVE SMOOTH",
"1266 904 OFFCURVE",
"1094 1087 OFFCURVE",
"751 1087 CURVE SMOOTH",
"380 1087 OFFCURVE",
"161 914 OFFCURVE",
"101 726 CURVE",
"499 726 LINE",
"520 767 OFFCURVE",
"592 800 OFFCURVE",
"691 800 CURVE SMOOTH",
"841 800 OFFCURVE",
"881 747 OFFCURVE",
"881 647 CURVE SMOOTH",
"881 439 OFFCURVE",
"785 262 OFFCURVE",
"592 262 CURVE SMOOTH",
"472 262 OFFCURVE",
"424 330 OFFCURVE",
"424 393 CURVE SMOOTH",
"424 403 OFFCURVE",
"429 433 OFFCURVE",
"433 453 CURVE",
"393 401 LINE",
"939 401 LINE",
"990 641 LINE",
"73 641 LINE",
"53 585 OFFCURVE",
"36 487 OFFCURVE",
"36 421 CURVE SMOOTH",
"36 148 OFFCURVE",
"242 -21 OFFCURVE",
"559 -21 CURVE SMOOTH"
);
}
);
width = 1305;
},
{
layerId = "BEF1FBB1-ACEC-4AC1-9895-C09886024D55";
paths = (
{
closed = 1;
nodes = (
"891 -21 OFFCURVE",
"1179 257 OFFCURVE",
"1179 634 CURVE SMOOTH",
"1179 900 OFFCURVE",
"1013 1078 OFFCURVE",
"730 1078 CURVE SMOOTH",
"407 1078 OFFCURVE",
"209 893 OFFCURVE",
"159 723 CURVE",
"329 723 LINE",
"359 816 OFFCURVE",
"472 922 OFFCURVE",
"707 922 CURVE SMOOTH",
"916 922 OFFCURVE",
"1015 821 OFFCURVE",
"1015 636 CURVE SMOOTH",
"1015 340 OFFCURVE",
"841 133 OFFCURVE",
"541 133 CURVE SMOOTH",
"346 133 OFFCURVE",
"262 240 OFFCURVE",
"262 381 CURVE SMOOTH",
"262 437 OFFCURVE",
"266 455 OFFCURVE",
"276 492 CURVE",
"236 442 LINE",
"1057 442 LINE",
"1089 594 LINE",
"118 594 LINE",
"102 546 OFFCURVE",
"89 458 OFFCURVE",
"89 397 CURVE SMOOTH",
"89 150 OFFCURVE",
"243 -21 OFFCURVE",
"522 -21 CURVE SMOOTH"
);
}
);
width = 1276;
}
);
leftKerningGroup = o;
leftMetricsKey = e;
rightKerningGroup = o;
rightMetricsKey = e;
unicode = 0259;
},
{
glyphname = f;
lastChange = "2020-06-06 15:56:22 +0000";
layers = (
{
anchors = (
{
name = bottom;
position = "{318, 0}";
},
{
name = top;
position = "{680, 1563}";
}
);
layerId = "3FDD6C00-F7FD-4E85-84B0-0136AF7D7529";
paths = (
{
closed = 1;
nodes = (
"518 0 LINE",
"680 762 LINE",
"949 762 LINE",
"1013 1062 LINE",
"744 1062 LINE",
"750 1089 LINE SMOOTH",
"776 1204 OFFCURVE",
"834 1267 OFFCURVE",
"971 1267 CURVE SMOOTH",
"1020 1267 OFFCURVE",
"1066 1257 OFFCURVE",
"1081 1252 CURVE",
"1148 1557 LINE",
"1131 1563 OFFCURVE",
"1062 1577 OFFCURVE",
"988 1577 CURVE SMOOTH",
"775 1577 OFFCURVE",
"445 1518 OFFCURVE",
"349 1093 CURVE SMOOTH",
"342 1062 LINE",
"118 1062 LINE",
"54 762 LINE",
"278 762 LINE",
"116 0 LINE"
);
}
);
width = 921;
},
{
anchors = (
{
name = bottom;
position = "{176, 0}";
},
{
name = top;
position = "{588, 1563}";
}
);
layerId = "2503C51C-5A6C-4B2C-A968-78FEA18C2585";
paths = (
{
closed = 1;
nodes = (
"193 0 LINE",
"414 1034 LINE",
"732 1034 LINE",
"738 1062 LINE",
"419 1062 LINE",
"455 1230 LINE SMOOTH",
"489 1389 OFFCURVE",
"565 1550 OFFCURVE",
"755 1550 CURVE SMOOTH",
"793 1550 OFFCURVE",
"827 1542 OFFCURVE",
"843 1536 CURVE",
"848 1564 LINE",
"835 1570 OFFCURVE",
"802 1578 OFFCURVE",
"760 1578 CURVE SMOOTH",
"541 1578 OFFCURVE",
"461 1403 OFFCURVE",
"424 1230 CURVE SMOOTH",
"388 1062 LINE",
"139 1062 LINE",
"134 1034 LINE",
"382 1034 LINE",
"162 0 LINE"
);
}
);
width = 687;
},
{
anchors = (
{
name = bottom;
position = "{236, 0}";
},
{
name = top;
position = "{629, 1563}";
}
);
layerId = "BEF1FBB1-ACEC-4AC1-9895-C09886024D55";
paths = (
{
closed = 1;
nodes = (
"322 0 LINE",
"516 912 LINE",
"826 912 LINE",
"858 1062 LINE",
"548 1062 LINE",
"571 1168 LINE SMOOTH",
"599 1301 OFFCURVE",
"659 1425 OFFCURVE",
"841 1425 CURVE SMOOTH",
"884 1425 OFFCURVE",
"923 1416 OFFCURVE",
"938 1411 CURVE",
"970 1561 LINE",
"957 1567 OFFCURVE",
"922 1578 OFFCURVE",
"857 1578 CURVE SMOOTH",
"630 1578 OFFCURVE",
"458 1437 OFFCURVE",
"407 1199 CURVE SMOOTH",
"378 1062 LINE",
"136 1062 LINE",
"104 912 LINE",
"346 912 LINE",
"152 0 LINE"
);
}
);
width = 793;
}
);
leftKerningGroup = f;
leftMetricsKey = t;
note = f;
rightKerningGroup = f;
unicode = 0066;
},
{
glyphname = g;
lastChange = "2020-06-17 13:41:19 +0000";
layers = (
{
anchors = (
{
name = bottom;
position = "{465, -467}";
},
{
name = top;
position = "{742, 1062}";
}
);
layerId = "3FDD6C00-F7FD-4E85-84B0-0136AF7D7529";
paths = (
{
closed = 1;
nodes = (
"760 -457 OFFCURVE",
"1084 -359 OFFCURVE",
"1160 0 CURVE SMOOTH",
"1385 1062 LINE",
"982 1062 LINE",
"757 0 LINE SMOOTH",
"733 -115 OFFCURVE",
"654 -180 OFFCURVE",
"520 -180 CURVE SMOOTH",
"415 -180 OFFCURVE",
"359 -139 OFFCURVE",
"359 -96 CURVE SMOOTH",
"359 -86 OFFCURVE",
"361 -76 OFFCURVE",
"362 -71 CURVE",
"-41 -71 LINE",
"-46 -94 OFFCURVE",
"-51 -122 OFFCURVE",
"-51 -157 CURVE SMOOTH",
"-51 -380 OFFCURVE",
"208 -457 OFFCURVE",
"471 -457 CURVE SMOOTH"
);
},
{
closed = 1;
nodes = (
"703 -26 OFFCURVE",
"937 179 OFFCURVE",
"1004 494 CURVE",
"867 513 LINE",
"839 380 OFFCURVE",
"734 313 OFFCURVE",
"628 313 CURVE SMOOTH",
"535 313 OFFCURVE",
"470 378 OFFCURVE",
"470 498 CURVE SMOOTH",
"470 653 OFFCURVE",
"579 756 OFFCURVE",
"713 756 CURVE SMOOTH",
"796 756 OFFCURVE",
"881 707 OFFCURVE",
"881 605 CURVE SMOOTH",
"881 587 OFFCURVE",
"878 567 OFFCURVE",
"874 549 CURVE",
"1017 557 LINE",
"1027 595 OFFCURVE",
"1034 652 OFFCURVE",
"1034 690 CURVE SMOOTH",
"1034 928 OFFCURVE",
"855 1084 OFFCURVE",
"641 1084 CURVE SMOOTH",
"291 1084 OFFCURVE",
"41 795 OFFCURVE",
"41 434 CURVE SMOOTH",
"41 135 OFFCURVE",
"213 -26 OFFCURVE",
"458 -26 CURVE SMOOTH"
);
}
);
width = 1353;
},
{
anchors = (
{
name = bottom;
position = "{430, -467}";
},
{
name = top;
position = "{755, 1062}";
}
);
layerId = "2503C51C-5A6C-4B2C-A968-78FEA18C2585";
paths = (
{
closed = 1;
nodes = (
"645 -447 OFFCURVE",
"879 -340 OFFCURVE",
"951 0 CURVE SMOOTH",
"1177 1062 LINE",
"1146 1062 LINE",
"920 0 LINE SMOOTH",
"852 -318 OFFCURVE",
"635 -419 OFFCURVE",
"408 -419 CURVE SMOOTH",
"225 -419 OFFCURVE",
"43 -332 OFFCURVE",
"43 -172 CURVE SMOOTH",
"43 -148 OFFCURVE",
"47 -125 OFFCURVE",
"56 -97 CURVE",
"24 -97 LINE",
"16 -122 OFFCURVE",
"10 -152 OFFCURVE",
"10 -181 CURVE SMOOTH",
"10 -361 OFFCURVE",
"217 -447 OFFCURVE",
"408 -447 CURVE SMOOTH"
);
},
{
closed = 1;
nodes = (
"774 -17 OFFCURVE",
"986 166 OFFCURVE",
"1032 383 CURVE",
"1003 383 LINE",
"961 186 OFFCURVE",
"757 11 OFFCURVE",
"518 11 CURVE SMOOTH",
"309 11 OFFCURVE",
"150 156 OFFCURVE",
"150 408 CURVE SMOOTH",
"150 748 OFFCURVE",
"407 1047 OFFCURVE",
"738 1047 CURVE SMOOTH",
"947 1047 OFFCURVE",
"1073 913 OFFCURVE",
"1073 748 CURVE SMOOTH",
"1073 722 OFFCURVE",
"1067 676 OFFCURVE",
"1060 655 CURVE",
"1088 655 LINE",
"1094 674 OFFCURVE",
"1101 724 OFFCURVE",
"1101 754 CURVE SMOOTH",
"1101 934 OFFCURVE",
"962 1075 OFFCURVE",
"738 1075 CURVE SMOOTH",
"388 1075 OFFCURVE",
"119 767 OFFCURVE",
"119 403 CURVE SMOOTH",
"119 130 OFFCURVE",
"293 -17 OFFCURVE",
"518 -17 CURVE SMOOTH"
);
}
);
width = 1234;
},
{
anchors = (
{
name = bottom;
position = "{442, -467}";
},
{
name = top;
position = "{749, 1062}";
}
);
layerId = "BEF1FBB1-ACEC-4AC1-9895-C09886024D55";
paths = (
{
closed = 1;
nodes = (
"687 -451 OFFCURVE",
"960 -319 OFFCURVE",
"1034 30 CURVE SMOOTH",
"1253 1062 LINE",
"1082 1062 LINE",
"863 30 LINE SMOOTH",
"807 -232 OFFCURVE",
"632 -309 OFFCURVE",
"452 -309 CURVE SMOOTH",
"295 -309 OFFCURVE",
"160 -257 OFFCURVE",
"160 -135 CURVE SMOOTH",
"160 -121 OFFCURVE",
"162 -109 OFFCURVE",
"166 -87 CURVE",
"-4 -87 LINE",
"-10 -115 OFFCURVE",
"-13 -136 OFFCURVE",
"-13 -162 CURVE SMOOTH",
"-13 -370 OFFCURVE",
"211 -451 OFFCURVE",
"433 -451 CURVE SMOOTH"
);
},
{
closed = 1;
nodes = (
"776 -20 OFFCURVE",
"1005 137 OFFCURVE",
"1074 461 CURVE",
"957 468 LINE",
"912 255 OFFCURVE",
"732 134 OFFCURVE",
"559 134 CURVE SMOOTH",
"397 134 OFFCURVE",
"273 220 OFFCURVE",
"273 425 CURVE SMOOTH",
"273 706 OFFCURVE",
"440 924 OFFCURVE",
"727 924 CURVE SMOOTH",
"876 924 OFFCURVE",
"993 838 OFFCURVE",
"993 677 CURVE SMOOTH",
"993 653 OFFCURVE",
"988 607 OFFCURVE",
"982 585 CURVE",
"1091 585 LINE",
"1100 622 OFFCURVE",
"1108 686 OFFCURVE",
"1108 725 CURVE SMOOTH",
"1108 960 OFFCURVE",
"944 1078 OFFCURVE",
"730 1078 CURVE SMOOTH",
"365 1078 OFFCURVE",
"94 789 OFFCURVE",
"94 414 CURVE SMOOTH",
"94 116 OFFCURVE",
"295 -20 OFFCURVE",
"527 -20 CURVE SMOOTH"
);
}
);
width = 1277;
}
);
leftKerningGroup = o;
leftMetricsKey = a;
rightKerningGroup = n;
rightMetricsKey = u;
unicode = 0067;
},
{
glyphname = h;
lastChange = "2020-06-10 15:19:30 +0000";
layers = (
{
anchors = (
{
name = bottom;
position = "{544, 0}";
},
{
name = center;
position = "{436, 1298}";
},
{
name = top;
position = "{504, 1563}";
}
);
layerId = "3FDD6C00-F7FD-4E85-84B0-0136AF7D7529";
paths = (
{
closed = 1;
nodes = (
"1109 0 LINE",
"1215 497 LINE",
"1246 642 OFFCURVE",
"1266 740 OFFCURVE",
"1266 808 CURVE SMOOTH",
"1266 921 OFFCURVE",
"1225 1084 OFFCURVE",
"961 1084 CURVE SMOOTH",
"695 1084 OFFCURVE",
"484 903 OFFCURVE",
"422 612 CURVE",
"482 532 LINE",
"511 670 OFFCURVE",
"577 751 OFFCURVE",
"706 751 CURVE SMOOTH",
"809 751 OFFCURVE",
"832 702 OFFCURVE",
"832 641 CURVE SMOOTH",
"832 605 OFFCURVE",
"813 506 OFFCURVE",
"806 475 CURVE",
"706 0 LINE"
);
},
{
closed = 1;
nodes = (
"370 0 LINE",
"702 1563 LINE",
"299 1563 LINE",
"-33 0 LINE"
);
}
);
width = 1302;
},
{
anchors = (
{
name = bottom;
position = "{478, 0}";
},
{
name = center;
position = "{347, 1295}";
},
{
name = top;
position = "{401, 1546}";
}
);
layerId = "2503C51C-5A6C-4B2C-A968-78FEA18C2585";
paths = (
{
closed = 1;
nodes = (
"829 0 LINE",
"950 572 LINE",
"966 648 OFFCURVE",
"985 740 OFFCURVE",
"985 812 CURVE SMOOTH",
"985 893 OFFCURVE",
"978 1075 OFFCURVE",
"719 1075 CURVE SMOOTH",
"458 1075 OFFCURVE",
"246 887 OFFCURVE",
"206 699 CURVE",
"234 693 LINE",
"272 870 OFFCURVE",
"490 1047 OFFCURVE",
"717 1047 CURVE SMOOTH",
"940 1047 OFFCURVE",
"953 888 OFFCURVE",
"953 812 CURVE SMOOTH",
"953 742 OFFCURVE",
"936 642 OFFCURVE",
"921 573 CURVE",
"799 0 LINE"
);
},
{
closed = 1;
nodes = (
"87 0 LINE",
"419 1563 LINE",
"389 1563 LINE",
"57 0 LINE"
);
}
);
width = 1112;
},
{
anchors = (
{
name = bottom;
position = "{502, 0}";
},
{
name = center;
position = "{387, 1296}";
},
{
name = top;
position = "{447, 1552}";
}
);
layerId = "BEF1FBB1-ACEC-4AC1-9895-C09886024D55";
paths = (
{
closed = 1;
nodes = (
"939 0 LINE",
"1026 378 LINE SMOOTH",
"1074 587 OFFCURVE",
"1094 691 OFFCURVE",
"1094 781 CURVE SMOOTH",
"1094 969 OFFCURVE",
"987 1078 OFFCURVE",
"778 1078 CURVE SMOOTH",
"515 1078 OFFCURVE",
"271 893 OFFCURVE",
"222 666 CURVE",
"333 633 LINE",
"368 795 OFFCURVE",
"523 916 OFFCURVE",
"713 916 CURVE SMOOTH",
"858 916 OFFCURVE",
"916 855 OFFCURVE",
"916 734 CURVE SMOOTH",
"916 660 OFFCURVE",
"896 556 OFFCURVE",
"859 395 CURVE SMOOTH",
"769 0 LINE"
);
},
{
closed = 1;
nodes = (
"200 0 LINE",
"532 1563 LINE",
"362 1563 LINE",
"30 0 LINE"
);
}
);
width = 1197;
}
);
leftKerningGroup = h;
note = h;
rightKerningGroup = n;
unicode = 0068;
},
{
glyphname = hbar;
lastChange = "2020-06-05 19:08:14 +0000";
layers = (
{
components = (
{
name = h;
}
);
layerId = "3FDD6C00-F7FD-4E85-84B0-0136AF7D7529";
paths = (
{
closed = 1;
nodes = (
"981 1220 LINE",
"1019 1399 LINE",
"153 1399 LINE",
"115 1220 LINE"
);
}
);
width = 1246;
},
{
components = (
{
name = h;
}
);
layerId = "2503C51C-5A6C-4B2C-A968-78FEA18C2585";
paths = (
{
closed = 1;
nodes = (
"715 1362 LINE",
"721 1388 LINE",
"230 1388 LINE",
"225 1362 LINE"
);
}
);
width = 1161;
},
{
components = (
{
alignment = -1;
name = h;
}
);
layerId = "BEF1FBB1-ACEC-4AC1-9895-C09886024D55";
paths = (
{
closed = 1;
nodes = (
"816 1275 LINE",
"844 1405 LINE",
"212 1405 LINE",
"184 1275 LINE"
);
}
);
width = 1208;
}
);
leftKerningGroup = h;
rightKerningGroup = n;
unicode = 0127;
},
{
glyphname = i;
lastChange = "2020-06-17 15:39:43 +0000";
layers = (
{
anchors = (
{
name = bottom;
position = "{168, 0}";
}
);
layerId = "3FDD6C00-F7FD-4E85-84B0-0136AF7D7529";
paths = (
{
closed = 1;
nodes = (
"369 0 LINE",
"594 1062 LINE",
"193 1062 LINE",
"-32 0 LINE"
);
},
{
closed = 1;
nodes = (
"565 1187 OFFCURVE",
"682 1256 OFFCURVE",
"682 1383 CURVE SMOOTH",
"682 1486 OFFCURVE",
"589 1541 OFFCURVE",
"478 1541 CURVE SMOOTH",
"353 1541 OFFCURVE",
"236 1472 OFFCURVE",
"236 1345 CURVE SMOOTH",
"236 1243 OFFCURVE",
"328 1187 OFFCURVE",
"440 1187 CURVE SMOOTH"
);
}
);
width = 564;
},
{
anchors = (
{
name = bottom;
position = "{98, 0}";
}
);
layerId = "2503C51C-5A6C-4B2C-A968-78FEA18C2585";
paths = (
{
closed = 1;
nodes = (
"113 0 LINE",
"338 1062 LINE",
"308 1062 LINE",
"83 0 LINE"
);
},
{
closed = 1;
nodes = (
"429 1377 OFFCURVE",
"452 1400 OFFCURVE",
"452 1429 CURVE SMOOTH",
"452 1457 OFFCURVE",
"429 1480 OFFCURVE",
"401 1480 CURVE SMOOTH",
"372 1480 OFFCURVE",
"349 1457 OFFCURVE",
"349 1429 CURVE SMOOTH",
"349 1400 OFFCURVE",
"372 1377 OFFCURVE",
"401 1377 CURVE SMOOTH"
);
}
);
width = 425;
},
{
anchors = (
{
name = bottom;
position = "{134, 0}";
}
);
layerId = "BEF1FBB1-ACEC-4AC1-9895-C09886024D55";
paths = (
{
closed = 1;
nodes = (
"219 0 LINE",
"444 1062 LINE",
"275 1062 LINE",
"50 0 LINE"
);
},
{
closed = 1;
nodes = (
"492 1306 OFFCURVE",
"550 1346 OFFCURVE",
"550 1412 CURVE SMOOTH",
"550 1468 OFFCURVE",
"501 1503 OFFCURVE",
"442 1503 CURVE SMOOTH",
"377 1503 OFFCURVE",
"319 1463 OFFCURVE",
"319 1398 CURVE SMOOTH",
"319 1341 OFFCURVE",
"368 1306 OFFCURVE",
"428 1306 CURVE SMOOTH"
);
}
);
width = 497;
}
);
leftKerningGroup = i;
note = i;
rightKerningGroup = i;
unicode = 0069;
},
{
glyphname = idotless;
lastChange = "2020-06-17 15:39:21 +0000";
layers = (
{
anchors = (
{
name = bottom;
position = "{161, 0}";
},
{
name = ogonek;
position = "{369, 0}";
},
{
name = top;
position = "{387, 1062}";
}
);
layerId = "3FDD6C00-F7FD-4E85-84B0-0136AF7D7529";
paths = (
{
closed = 1;
nodes = (
"369 0 LINE",
"594 1062 LINE",
"193 1062 LINE",
"-32 0 LINE"
);
}
);
width = 564;
},
{
anchors = (
{
name = bottom;
position = "{97, 0}";
},
{
name = ogonek;
position = "{113, 0}";
},
{
name = top;
position = "{322, 1062}";
}
);
layerId = "2503C51C-5A6C-4B2C-A968-78FEA18C2585";
paths = (
{
closed = 1;
nodes = (
"113 0 LINE",
"338 1062 LINE",
"308 1062 LINE",
"83 0 LINE"
);
}
);
width = 425;
},
{
anchors = (
{
name = bottom;
position = "{131, 0}";
},
{
name = ogonek;
position = "{219, 0}";
},
{
name = top;
position = "{356, 1062}";
}
);
layerId = "BEF1FBB1-ACEC-4AC1-9895-C09886024D55";
paths = (
{
closed = 1;
nodes = (
"219 0 LINE",
"444 1062 LINE",
"275 1062 LINE",
"50 0 LINE"
);
}
);
width = 497;
}
);
leftKerningGroup = i;
rightKerningGroup = i;
unicode = 0131;
},
{
glyphname = j;
lastChange = "2020-06-17 15:41:16 +0000";
layers = (
{
layerId = "3FDD6C00-F7FD-4E85-84B0-0136AF7D7529";
paths = (
{
closed = 1;
nodes = (
"198 -464 OFFCURVE",
"313 -264 OFFCURVE",
"350 -89 CURVE SMOOTH",
"593 1062 LINE",
"191 1062 LINE",
"-52 -81 LINE SMOOTH",
"-60 -121 OFFCURVE",
"-98 -173 OFFCURVE",
"-193 -173 CURVE SMOOTH",
"-235 -173 OFFCURVE",
"-275 -169 OFFCURVE",
"-302 -165 CURVE",
"-364 -460 LINE",
"-337 -462 OFFCURVE",
"-295 -464 OFFCURVE",
"-255 -464 CURVE SMOOTH"
);
},
{
closed = 1;
nodes = (
"549 1187 OFFCURVE",
"666 1256 OFFCURVE",
"666 1383 CURVE SMOOTH",
"666 1486 OFFCURVE",
"573 1541 OFFCURVE",
"462 1541 CURVE SMOOTH",
"337 1541 OFFCURVE",
"220 1472 OFFCURVE",
"220 1345 CURVE SMOOTH",
"220 1243 OFFCURVE",
"312 1187 OFFCURVE",
"424 1187 CURVE SMOOTH"
);
}
);
width = 559;
},
{
layerId = "2503C51C-5A6C-4B2C-A968-78FEA18C2585";
paths = (
{
closed = 1;
nodes = (
"8 -436 OFFCURVE",
"85 -277 OFFCURVE",
"122 -104 CURVE SMOOTH",
"371 1062 LINE",
"340 1062 LINE",
"93 -95 LINE SMOOTH",
"63 -237 OFFCURVE",
"-6 -408 OFFCURVE",
"-210 -408 CURVE SMOOTH",
"-248 -408 OFFCURVE",
"-264 -402 OFFCURVE",
"-278 -394 CURVE",
"-291 -420 LINE",
"-280 -427 OFFCURVE",
"-255 -436 OFFCURVE",
"-213 -436 CURVE SMOOTH"
);
},
{
closed = 1;
nodes = (
"462 1377 OFFCURVE",
"485 1400 OFFCURVE",
"485 1429 CURVE SMOOTH",
"485 1457 OFFCURVE",
"462 1480 OFFCURVE",
"434 1480 CURVE SMOOTH",
"405 1480 OFFCURVE",
"382 1457 OFFCURVE",
"382 1429 CURVE SMOOTH",
"382 1400 OFFCURVE",
"405 1377 OFFCURVE",
"434 1377 CURVE SMOOTH"
);
}
);
width = 480;
},
{
layerId = "BEF1FBB1-ACEC-4AC1-9895-C09886024D55";
paths = (
{
closed = 1;
nodes = (
"90 -446 OFFCURVE",
"181 -272 OFFCURVE",
"218 -98 CURVE SMOOTH",
"464 1062 LINE",
"294 1062 LINE",
"48 -89 LINE SMOOTH",
"26 -193 OFFCURVE",
"-30 -319 OFFCURVE",
"-200 -319 CURVE SMOOTH",
"-240 -319 OFFCURVE",
"-265 -314 OFFCURVE",
"-284 -308 CURVE",
"-315 -434 LINE",
"-298 -440 OFFCURVE",
"-267 -446 OFFCURVE",
"-226 -446 CURVE SMOOTH"
);
},
{
closed = 1;
nodes = (
"507 1306 OFFCURVE",
"566 1346 OFFCURVE",
"566 1412 CURVE SMOOTH",
"566 1468 OFFCURVE",
"516 1503 OFFCURVE",
"457 1503 CURVE SMOOTH",
"392 1503 OFFCURVE",
"334 1463 OFFCURVE",
"334 1398 CURVE SMOOTH",
"334 1341 OFFCURVE",
"383 1306 OFFCURVE",
"443 1306 CURVE SMOOTH"
);
}
);
width = 512;
}
);
leftKerningGroup = j;
note = j;
rightKerningGroup = j;
unicode = 006A;
},
{
glyphname = jdotless;
lastChange = "2020-06-17 15:41:27 +0000";
layers = (
{
anchors = (
{
name = bottom;
position = "{26, -437}";
},
{
name = top;
position = "{356, 1062}";
}
);
layerId = "2503C51C-5A6C-4B2C-A968-78FEA18C2585";
paths = (
{
closed = 1;
nodes = (
"8 -436 OFFCURVE",
"85 -277 OFFCURVE",
"122 -104 CURVE SMOOTH",
"370 1061 LINE",
"339 1061 LINE",
"93 -95 LINE SMOOTH",
"63 -237 OFFCURVE",
"-6 -408 OFFCURVE",
"-210 -408 CURVE SMOOTH",
"-248 -408 OFFCURVE",
"-264 -402 OFFCURVE",
"-278 -394 CURVE",
"-291 -420 LINE",
"-280 -427 OFFCURVE",
"-255 -436 OFFCURVE",
"-213 -436 CURVE SMOOTH"
);
}
);
width = 480;
},
{
anchors = (
{
name = bottom;
position = "{67, -437}";
},
{
name = top;
position = "{396, 1062}";
}
);
layerId = "3FDD6C00-F7FD-4E85-84B0-0136AF7D7529";
paths = (
{
closed = 1;
nodes = (
"198 -464 OFFCURVE",
"313 -264 OFFCURVE",
"350 -89 CURVE SMOOTH",
"593 1062 LINE",
"191 1062 LINE",
"-52 -81 LINE SMOOTH",
"-60 -121 OFFCURVE",
"-98 -173 OFFCURVE",
"-193 -173 CURVE SMOOTH",
"-235 -173 OFFCURVE",
"-275 -169 OFFCURVE",
"-302 -165 CURVE",
"-364 -460 LINE",
"-337 -462 OFFCURVE",
"-295 -464 OFFCURVE",
"-255 -464 CURVE SMOOTH"
);
}
);
width = 559;
},
{
anchors = (
{
name = bottom;
position = "{49, -437}";
},
{
name = top;
position = "{379, 1062}";
}
);
layerId = "BEF1FBB1-ACEC-4AC1-9895-C09886024D55";
paths = (
{
closed = 1;
nodes = (
"90 -446 OFFCURVE",
"181 -272 OFFCURVE",
"218 -98 CURVE SMOOTH",
"464 1062 LINE",
"294 1062 LINE",
"48 -89 LINE SMOOTH",
"26 -193 OFFCURVE",
"-30 -319 OFFCURVE",
"-200 -319 CURVE SMOOTH",
"-240 -319 OFFCURVE",
"-265 -314 OFFCURVE",
"-284 -308 CURVE",
"-315 -434 LINE",
"-298 -440 OFFCURVE",
"-267 -446 OFFCURVE",
"-226 -446 CURVE SMOOTH"
);
}
);
width = 512;
}
);
leftKerningGroup = j;
rightKerningGroup = j;
unicode = 0237;
},
{
glyphname = k;
lastChange = "2020-06-10 15:19:30 +0000";
layers = (
{
anchors = (
{
name = bottom;
position = "{514, 0}";
},
{
name = top;
position = "{476, 1563}";
}
);
layerId = "3FDD6C00-F7FD-4E85-84B0-0136AF7D7529";
paths = (
{
closed = 1;
nodes = (
"349 0 LINE",
"458 514 LINE",
"385 345 LINE",
"597 510 LINE",
"499 507 LINE",
"684 0 LINE",
"1085 0 LINE",
"798 716 LINE",
"689 577 LINE",
"1329 1062 LINE",
"822 1062 LINE",
"409 748 LINE",
"500 710 LINE",
"681 1563 LINE",
"299 1563 LINE",
"-33 0 LINE"
);
}
);
width = 1205;
},
{
anchors = (
{
name = bottom;
position = "{382, 0}";
},
{
name = top;
position = "{408, 1563}";
}
);
layerId = "2503C51C-5A6C-4B2C-A968-78FEA18C2585";
paths = (
{
closed = 1;
nodes = (
"87 0 LINE",
"200 531 LINE",
"184 507 LINE",
"357 627 LINE",
"345 630 LINE",
"727 0 LINE",
"763 0 LINE",
"367 653 LINE",
"359 630 LINE",
"971 1062 LINE",
"923 1062 LINE",
"189 549 LINE",
"202 542 LINE",
"419 1563 LINE",
"389 1563 LINE",
"57 0 LINE"
);
}
);
width = 985;
},
{
anchors = (
{
name = bottom;
position = "{438, 0}";
},
{
name = top;
position = "{440, 1563}";
}
);
layerId = "BEF1FBB1-ACEC-4AC1-9895-C09886024D55";
paths = (
{
closed = 1;
nodes = (
"192 0 LINE",
"304 525 LINE",
"265 444 LINE",
"454 587 LINE",
"430 597 LINE",
"684 0 LINE",
"860 0 LINE",
"550 697 LINE",
"490 614 LINE",
"1081 1062 LINE",
"856 1062 LINE",
"262 634 LINE",
"320 605 LINE",
"524 1563 LINE",
"362 1563 LINE",
"30 0 LINE"
);
}
);
width = 1018;
}
);
leftKerningGroup = h;
leftMetricsKey = h;
note = k;
rightKerningGroup = k;
unicode = 006B;
},
{
glyphname = kgreenlandic;
lastChange = "2020-06-10 15:19:30 +0000";
layers = (
{
anchors = (
{
name = bottom;
position = "{328, 0}";
},
{
name = top;
position = "{554, 1062}";
}
);
layerId = "2503C51C-5A6C-4B2C-A968-78FEA18C2585";
paths = (
{
closed = 1;
nodes = (
"806 1062 LINE",
"765 1062 LINE",
"164 447 LINE",
"182 446 LINE",
"313 1062 LINE",
"283 1062 LINE",
"57 0 LINE",
"87 0 LINE",
"179 433 LINE",
"168 412 LINE",
"311 555 LINE",
"291 559 LINE",
"579 0 LINE",
"614 0 LINE",
"314 579 LINE",
"317 560 LINE"
);
}
);
width = 836;
},
{
anchors = (
{
name = bottom;
position = "{475, 0}";
},
{
name = top;
position = "{701, 1062}";
}
);
layerId = "3FDD6C00-F7FD-4E85-84B0-0136AF7D7529";
paths = (
{
closed = 1;
nodes = (
"1245 1062 LINE",
"810 1062 LINE",
"402 554 LINE",
"461 532 LINE",
"574 1062 LINE",
"193 1062 LINE",
"-33 0 LINE",
"348 0 LINE",
"433 400 LINE",
"366 163 LINE",
"638 443 LINE",
"439 500 LINE",
"613 0 LINE",
"1009 0 LINE",
"729 722 LINE",
"723 500 LINE"
);
}
);
width = 1121;
},
{
anchors = (
{
name = bottom;
position = "{390, 0}";
},
{
name = top;
position = "{616, 1062}";
}
);
layerId = "BEF1FBB1-ACEC-4AC1-9895-C09886024D55";
paths = (
{
closed = 1;
nodes = (
"978 1062 LINE",
"789 1062 LINE",
"230 505 LINE",
"294 478 LINE",
"418 1062 LINE",
"256 1062 LINE",
"30 0 LINE",
"192 0 LINE",
"281 421 LINE",
"249 319 LINE",
"441 513 LINE",
"353 537 LINE",
"599 0 LINE",
"769 0 LINE",
"477 633 LINE",
"472 538 LINE"
);
}
);
width = 927;
}
);
leftKerningGroup = h;
leftMetricsKey = h;
rightKerningGroup = k;
rightMetricsKey = k;
unicode = 0138;
},
{
glyphname = l;
lastChange = "2020-06-17 16:01:30 +0000";
layers = (
{
anchors = (
{
name = bottom;
position = "{162, 0}";
},
{
name = center;
position = "{328, 782}";
},
{
name = top;
position = "{494, 1563}";
},
{
name = topright;
position = "{646, 1062}";
}
);
layerId = "3FDD6C00-F7FD-4E85-84B0-0136AF7D7529";
paths = (
{
closed = 1;
nodes = (
"299 1563 LINE",
"-33 0 LINE",
"368 0 LINE",
"700 1563 LINE"
);
}
);
width = 561;
},
{
anchors = (
{
name = bottom;
position = "{71, 0}";
},
{
name = center;
position = "{237, 782}";
},
{
name = top;
position = "{403, 1563}";
},
{
name = topright;
position = "{374, 1062}";
}
);
layerId = "2503C51C-5A6C-4B2C-A968-78FEA18C2585";
paths = (
{
closed = 1;
nodes = (
"389 1563 LINE",
"57 0 LINE",
"87 0 LINE",
"419 1563 LINE"
);
}
);
width = 370;
},
{
anchors = (
{
name = bottom;
position = "{112, 0}";
},
{
name = center;
position = "{278, 782}";
},
{
name = top;
position = "{444, 1563}";
},
{
name = topright;
position = "{483, 1062}";
}
);
layerId = "BEF1FBB1-ACEC-4AC1-9895-C09886024D55";
paths = (
{
closed = 1;
nodes = (
"362 1563 LINE",
"30 0 LINE",
"199 0 LINE",
"531 1563 LINE"
);
}
);
width = 449;
}
);
leftKerningGroup = h;
leftMetricsKey = h;
note = l;
rightKerningGroup = l;
rightMetricsKey = h;
unicode = 006C;
},
{
glyphname = lslash;
lastChange = "2020-06-10 15:15:32 +0000";
layers = (
{
components = (
{
name = l;
}
);
layerId = "2503C51C-5A6C-4B2C-A968-78FEA18C2585";
paths = (
{
closed = 1;
nodes = (
"75 774 LINE",
"489 1038 LINE",
"472 1062 LINE",
"58 798 LINE"
);
}
);
width = 451;
},
{
components = (
{
name = l;
}
);
layerId = "BEF1FBB1-ACEC-4AC1-9895-C09886024D55";
paths = (
{
closed = 1;
nodes = (
"72 699 LINE",
"602 978 LINE",
"571 1071 LINE",
"41 792 LINE"
);
}
);
width = 511;
},
{
components = (
{
name = l;
}
);
layerId = "3FDD6C00-F7FD-4E85-84B0-0136AF7D7529";
paths = (
{
closed = 1;
nodes = (
"20 575 LINE",
"743 878 LINE",
"689 1086 LINE",
"-34 782 LINE"
);
}
);
width = 571;
}
);
leftKerningGroup = h;
rightKerningGroup = l;
unicode = 0142;
},
{
glyphname = m;
lastChange = "2020-06-17 15:33:30 +0000";
layers = (
{
anchors = (
{
name = bottom;
position = "{854, 0}";
},
{
name = top;
position = "{1172, 1062}";
}
);
layerId = "3FDD6C00-F7FD-4E85-84B0-0136AF7D7529";
paths = (
{
closed = 1;
nodes = (
"1037 0 LINE",
"1107 330 LINE",
"1162 587 OFFCURVE",
"1187 707 OFFCURVE",
"1187 801 CURVE SMOOTH",
"1187 957 OFFCURVE",
"1120 1084 OFFCURVE",
"904 1084 CURVE SMOOTH",
"651 1084 OFFCURVE",
"485 903 OFFCURVE",
"423 612 CURVE",
"480 522 LINE",
"509 659 OFFCURVE",
"578 751 OFFCURVE",
"672 751 CURVE SMOOTH",
"744 751 OFFCURVE",
"762 708 OFFCURVE",
"762 648 CURVE SMOOTH",
"762 597 OFFCURVE",
"747 513 OFFCURVE",
"716 370 CURVE",
"637 0 LINE"
);
},
{
closed = 1;
nodes = (
"370 0 LINE",
"596 1062 LINE",
"193 1062 LINE",
"-33 0 LINE"
);
},
{
closed = 1;
nodes = (
"1705 0 LINE",
"1780 333 LINE",
"1834 590 OFFCURVE",
"1854 697 OFFCURVE",
"1854 798 CURVE SMOOTH",
"1854 956 OFFCURVE",
"1786 1084 OFFCURVE",
"1570 1084 CURVE SMOOTH",
"1317 1084 OFFCURVE",
"1152 903 OFFCURVE",
"1090 612 CURVE",
"1147 522 LINE",
"1176 659 OFFCURVE",
"1244 751 OFFCURVE",
"1338 751 CURVE SMOOTH",
"1408 751 OFFCURVE",
"1429 713 OFFCURVE",
"1429 651 CURVE SMOOTH",
"1429 602 OFFCURVE",
"1413 522 OFFCURVE",
"1381 371 CURVE",
"1302 0 LINE"
);
}
);
width = 1902;
},
{
anchors = (
{
name = bottom;
position = "{714, 0}";
},
{
name = top;
position = "{940, 1062}";
}
);
layerId = "2503C51C-5A6C-4B2C-A968-78FEA18C2585";
paths = (
{
closed = 1;
nodes = (
"730 0 LINE",
"869 653 LINE SMOOTH",
"886 732 OFFCURVE",
"900 803 OFFCURVE",
"900 853 CURVE SMOOTH",
"900 994 OFFCURVE",
"828 1075 OFFCURVE",
"656 1075 CURVE SMOOTH",
"416 1075 OFFCURVE",
"246 881 OFFCURVE",
"201 673 CURVE",
"227 662 LINE",
"253 788 OFFCURVE",
"390 1047 OFFCURVE",
"659 1047 CURVE SMOOTH",
"828 1047 OFFCURVE",
"869 944 OFFCURVE",
"869 846 CURVE SMOOTH",
"869 804 OFFCURVE",
"858 741 OFFCURVE",
"839 653 CURVE SMOOTH",
"700 0 LINE"
);
},
{
closed = 1;
nodes = (
"87 0 LINE",
"313 1062 LINE",
"283 1062 LINE",
"57 0 LINE"
);
},
{
closed = 1;
nodes = (
"1372 0 LINE",
"1511 653 LINE SMOOTH",
"1527 726 OFFCURVE",
"1541 791 OFFCURVE",
"1541 852 CURVE SMOOTH",
"1541 1002 OFFCURVE",
"1457 1075 OFFCURVE",
"1292 1075 CURVE SMOOTH",
"1050 1075 OFFCURVE",
"890 883 OFFCURVE",
"850 694 CURVE",
"876 687 LINE",
"897 787 OFFCURVE",
"1022 1047 OFFCURVE",
"1295 1047 CURVE SMOOTH",
"1472 1047 OFFCURVE",
"1509 945 OFFCURVE",
"1509 851 CURVE SMOOTH",
"1509 806 OFFCURVE",
"1502 752 OFFCURVE",
"1481 653 CURVE SMOOTH",
"1342 0 LINE"
);
}
);
width = 1655;
},
{
anchors = (
{
name = bottom;
position = "{774, 0}";
},
{
name = top;
position = "{1018, 1062}";
}
);
layerId = "BEF1FBB1-ACEC-4AC1-9895-C09886024D55";
paths = (
{
closed = 1;
nodes = (
"852 0 LINE",
"950 452 LINE",
"989 634 OFFCURVE",
"1013 746 OFFCURVE",
"1013 812 CURVE SMOOTH",
"1013 973 OFFCURVE",
"924 1078 OFFCURVE",
"727 1078 CURVE SMOOTH",
"483 1078 OFFCURVE",
"288 868 OFFCURVE",
"237 629 CURVE",
"325 590 LINE",
"357 740 OFFCURVE",
"464 916 OFFCURVE",
"667 916 CURVE SMOOTH",
"803 916 OFFCURVE",
"836 842 OFFCURVE",
"836 762 CURVE SMOOTH",
"836 708 OFFCURVE",
"818 621 OFFCURVE",
"785 469 CURVE",
"683 0 LINE"
);
},
{
closed = 1;
nodes = (
"200 0 LINE",
"426 1062 LINE",
"256 1062 LINE",
"30 0 LINE"
);
},
{
closed = 1;
nodes = (
"1504 0 LINE",
"1611 463 LINE",
"1650 649 OFFCURVE",
"1667 743 OFFCURVE",
"1667 815 CURVE SMOOTH",
"1667 978 OFFCURVE",
"1567 1078 OFFCURVE",
"1375 1078 CURVE SMOOTH",
"1129 1078 OFFCURVE",
"940 869 OFFCURVE",
"892 642 CURVE",
"980 605 LINE",
"1009 739 OFFCURVE",
"1108 916 OFFCURVE",
"1314 916 CURVE SMOOTH",
"1455 916 OFFCURVE",
"1488 844 OFFCURVE",
"1488 765 CURVE SMOOTH",
"1488 712 OFFCURVE",
"1480 654 OFFCURVE",
"1441 467 CURVE",
"1334 0 LINE"
);
}
);
width = 1762;
}
);
leftKerningGroup = n;
leftMetricsKey = h;
note = m;
rightKerningGroup = n;
rightMetricsKey = h;
unicode = 006D;
},
{
glyphname = n;
lastChange = "2020-06-17 15:33:40 +0000";
layers = (
{
anchors = (
{
name = bottom;
position = "{536, 0}";
},
{
name = top;
position = "{779, 1062}";
}
);
layerId = "3FDD6C00-F7FD-4E85-84B0-0136AF7D7529";
paths = (
{
closed = 1;
nodes = (
"1109 0 LINE",
"1191 375 LINE SMOOTH",
"1235 577 OFFCURVE",
"1262 704 OFFCURVE",
"1262 793 CURVE SMOOTH",
"1262 969 OFFCURVE",
"1171 1084 OFFCURVE",
"953 1084 CURVE SMOOTH",
"697 1084 OFFCURVE",
"484 903 OFFCURVE",
"422 612 CURVE",
"482 532 LINE",
"511 669 OFFCURVE",
"580 751 OFFCURVE",
"707 751 CURVE SMOOTH",
"805 751 OFFCURVE",
"832 700 OFFCURVE",
"832 634 CURVE SMOOTH",
"832 588 OFFCURVE",
"820 523 OFFCURVE",
"796 413 CURVE SMOOTH",
"706 0 LINE"
);
},
{
closed = 1;
nodes = (
"370 0 LINE",
"596 1062 LINE",
"193 1062 LINE",
"-33 0 LINE"
);
}
);
width = 1305;
},
{
anchors = (
{
name = bottom;
position = "{457, 0}";
},
{
name = top;
position = "{717, 1062}";
}
);
layerId = "2503C51C-5A6C-4B2C-A968-78FEA18C2585";
paths = (
{
closed = 1;
nodes = (
"827 0 LINE",
"972 684 LINE SMOOTH",
"979 717 OFFCURVE",
"991 778 OFFCURVE",
"991 828 CURVE SMOOTH",
"991 989 OFFCURVE",
"898 1075 OFFCURVE",
"710 1075 CURVE SMOOTH",
"507 1075 OFFCURVE",
"260 935 OFFCURVE",
"207 701 CURVE",
"233 690 LINE",
"277 898 OFFCURVE",
"511 1047 OFFCURVE",
"708 1047 CURVE SMOOTH",
"886 1047 OFFCURVE",
"960 964 OFFCURVE",
"960 825 CURVE SMOOTH",
"960 786 OFFCURVE",
"957 757 OFFCURVE",
"942 684 CURVE SMOOTH",
"797 0 LINE"
);
},
{
closed = 1;
nodes = (
"87 0 LINE",
"313 1062 LINE",
"283 1062 LINE",
"57 0 LINE"
);
}
);
width = 1110;
},
{
anchors = (
{
name = bottom;
position = "{496, 0}";
},
{
name = top;
position = "{749, 1062}";
}
);
layerId = "BEF1FBB1-ACEC-4AC1-9895-C09886024D55";
paths = (
{
closed = 1;
nodes = (
"940 0 LINE",
"1049 493 LINE SMOOTH",
"1081 636 OFFCURVE",
"1099 725 OFFCURVE",
"1099 798 CURVE SMOOTH",
"1099 975 OFFCURVE",
"988 1078 OFFCURVE",
"782 1078 CURVE SMOOTH",
"539 1078 OFFCURVE",
"280 878 OFFCURVE",
"227 628 CURVE",
"325 591 LINE",
"364 772 OFFCURVE",
"541 916 OFFCURVE",
"712 916 CURVE SMOOTH",
"864 916 OFFCURVE",
"919 849 OFFCURVE",
"919 741 CURVE SMOOTH",
"919 686 OFFCURVE",
"906 624 OFFCURVE",
"881 509 CURVE SMOOTH",
"770 0 LINE"
);
},
{
closed = 1;
nodes = (
"200 0 LINE",
"426 1062 LINE",
"256 1062 LINE",
"30 0 LINE"
);
}
);
width = 1195;
}
);
leftKerningGroup = n;
leftMetricsKey = h;
note = n;
rightKerningGroup = n;
rightMetricsKey = h;
unicode = 006E;
},
{
glyphname = eng;
lastChange = "2020-06-10 15:19:30 +0000";
layers = (
{
layerId = "3FDD6C00-F7FD-4E85-84B0-0136AF7D7529";
paths = (
{
closed = 1;
nodes = (
"818 -456 OFFCURVE",
"1032 -363 OFFCURVE",
"1106 -19 CURVE SMOOTH",
"1191 375 LINE SMOOTH",
"1235 577 OFFCURVE",
"1262 704 OFFCURVE",
"1262 793 CURVE SMOOTH",
"1262 969 OFFCURVE",
"1171 1084 OFFCURVE",
"953 1084 CURVE SMOOTH",
"697 1084 OFFCURVE",
"484 903 OFFCURVE",
"422 612 CURVE",
"482 532 LINE",
"511 669 OFFCURVE",
"580 751 OFFCURVE",
"707 751 CURVE SMOOTH",
"805 751 OFFCURVE",
"832 700 OFFCURVE",
"832 634 CURVE SMOOTH",
"832 588 OFFCURVE",
"820 523 OFFCURVE",
"796 413 CURVE SMOOTH",
"700 -28 LINE SMOOTH",
"674 -148 OFFCURVE",
"556 -169 OFFCURVE",
"439 -169 CURVE",
"385 -456 LINE"
);
},
{
closed = 1;
nodes = (
"370 0 LINE",
"596 1062 LINE",
"193 1062 LINE",
"-33 0 LINE"
);
}
);
width = 1305;
},
{
layerId = "2503C51C-5A6C-4B2C-A968-78FEA18C2585";
paths = (
{
closed = 1;
nodes = (
"694 -457 OFFCURVE",
"773 -255 OFFCURVE",
"807 -96 CURVE SMOOTH",
"972 684 LINE SMOOTH",
"979 717 OFFCURVE",
"991 778 OFFCURVE",
"991 828 CURVE SMOOTH",
"991 989 OFFCURVE",
"898 1075 OFFCURVE",
"710 1075 CURVE SMOOTH",
"507 1075 OFFCURVE",
"260 935 OFFCURVE",
"207 701 CURVE",
"233 690 LINE",
"277 898 OFFCURVE",
"511 1047 OFFCURVE",
"708 1047 CURVE SMOOTH",
"886 1047 OFFCURVE",
"960 964 OFFCURVE",
"960 825 CURVE SMOOTH",
"960 786 OFFCURVE",
"958 757 OFFCURVE",
"942 684 CURVE SMOOTH",
"776 -96 LINE SMOOTH",
"749 -224 OFFCURVE",
"682 -429 OFFCURVE",
"450 -429 CURVE",
"444 -457 LINE"
);
},
{
closed = 1;
nodes = (
"87 0 LINE",
"313 1062 LINE",
"283 1062 LINE",
"57 0 LINE"
);
}
);
width = 1110;
},
{
layerId = "BEF1FBB1-ACEC-4AC1-9895-C09886024D55";
paths = (
{
closed = 1;
nodes = (
"745 -457 OFFCURVE",
"876 -296 OFFCURVE",
"926 -67 CURVE SMOOTH",
"1049 493 LINE SMOOTH",
"1081 640 OFFCURVE",
"1099 725 OFFCURVE",
"1099 797 CURVE SMOOTH",
"1099 975 OFFCURVE",
"987 1078 OFFCURVE",
"781 1078 CURVE SMOOTH",
"538 1078 OFFCURVE",
"280 878 OFFCURVE",
"226 628 CURVE",
"325 591 LINE",
"363 772 OFFCURVE",
"541 916 OFFCURVE",
"712 916 CURVE SMOOTH",
"863 916 OFFCURVE",
"918 850 OFFCURVE",
"918 742 CURVE SMOOTH",
"918 688 OFFCURVE",
"906 622 OFFCURVE",
"881 509 CURVE SMOOTH",
"755 -71 LINE SMOOTH",
"728 -195 OFFCURVE",
"639 -332 OFFCURVE",
"452 -332 CURVE",
"426 -457 LINE"
);
},
{
closed = 1;
nodes = (
"200 0 LINE",
"426 1062 LINE",
"256 1062 LINE",
"30 0 LINE"
);
}
);
width = 1194;
}
);
leftKerningGroup = n;
leftMetricsKey = n;
rightKerningGroup = n;
rightMetricsKey = n;
unicode = 014B;
},
{
glyphname = nhookleft;
lastChange = "2020-06-17 15:44:32 +0000";
layers = (
{
layerId = "2503C51C-5A6C-4B2C-A968-78FEA18C2585";
paths = (
{
closed = 1;
nodes = (
"820 0 LINE",
"965 684 LINE SMOOTH",
"972 717 OFFCURVE",
"984 778 OFFCURVE",
"984 828 CURVE SMOOTH",
"984 989 OFFCURVE",
"891 1075 OFFCURVE",
"703 1075 CURVE SMOOTH",
"500 1075 OFFCURVE",
"253 935 OFFCURVE",
"200 701 CURVE",
"226 690 LINE",
"270 898 OFFCURVE",
"504 1047 OFFCURVE",
"701 1047 CURVE SMOOTH",
"879 1047 OFFCURVE",
"953 964 OFFCURVE",
"953 825 CURVE SMOOTH",
"953 786 OFFCURVE",
"950 757 OFFCURVE",
"935 684 CURVE SMOOTH",
"790 0 LINE"
);
},
{
closed = 1;
nodes = (
"-58 -457 OFFCURVE",
"23 -268 OFFCURVE",
"59 -98 CURVE SMOOTH",
"306 1062 LINE",
"276 1062 LINE",
"28 -96 LINE SMOOTH",
"-2 -225 OFFCURVE",
"-68 -429 OFFCURVE",
"-293 -429 CURVE",
"-299 -457 LINE"
);
}
);
width = 1103;
},
{
layerId = "3FDD6C00-F7FD-4E85-84B0-0136AF7D7529";
paths = (
{
closed = 1;
nodes = (
"1041 0 LINE",
"1123 375 LINE SMOOTH",
"1167 577 OFFCURVE",
"1194 704 OFFCURVE",
"1194 793 CURVE SMOOTH",
"1194 969 OFFCURVE",
"1103 1084 OFFCURVE",
"885 1084 CURVE SMOOTH",
"629 1084 OFFCURVE",
"416 903 OFFCURVE",
"354 612 CURVE",
"414 532 LINE",
"443 669 OFFCURVE",
"512 751 OFFCURVE",
"639 751 CURVE SMOOTH",
"737 751 OFFCURVE",
"764 700 OFFCURVE",
"764 634 CURVE SMOOTH",
"764 588 OFFCURVE",
"752 523 OFFCURVE",
"728 413 CURVE SMOOTH",
"638 0 LINE"
);
},
{
closed = 1;
nodes = (
"97 -465 OFFCURVE",
"238 -302 OFFCURVE",
"295 -33 CURVE SMOOTH",
"528 1062 LINE",
"125 1062 LINE",
"-102 -5 LINE SMOOTH",
"-130 -146 OFFCURVE",
"-251 -187 OFFCURVE",
"-306 -187 CURVE",
"-366 -465 LINE"
);
}
);
width = 1237;
},
{
layerId = "BEF1FBB1-ACEC-4AC1-9895-C09886024D55";
paths = (
{
closed = 1;
nodes = (
"912 0 LINE",
"1021 493 LINE SMOOTH",
"1053 636 OFFCURVE",
"1071 725 OFFCURVE",
"1071 797 CURVE SMOOTH",
"1071 975 OFFCURVE",
"959 1078 OFFCURVE",
"753 1078 CURVE SMOOTH",
"510 1078 OFFCURVE",
"252 878 OFFCURVE",
"199 628 CURVE",
"297 591 LINE",
"335 772 OFFCURVE",
"513 916 OFFCURVE",
"684 916 CURVE SMOOTH",
"836 916 OFFCURVE",
"891 849 OFFCURVE",
"891 741 CURVE SMOOTH",
"891 686 OFFCURVE",
"879 624 OFFCURVE",
"854 509 CURVE SMOOTH",
"742 0 LINE"
);
},
{
closed = 1;
nodes = (
"36 -460 OFFCURVE",
"120 -250 OFFCURVE",
"159 -66 CURVE SMOOTH",
"399 1062 LINE",
"229 1062 LINE",
"-11 -66 LINE SMOOTH",
"-37 -190 OFFCURVE",
"-117 -335 OFFCURVE",
"-294 -335 CURVE",
"-320 -460 LINE"
);
}
);
width = 1167;
}
);
leftKerningGroup = j;
leftMetricsKey = j;
rightKerningGroup = n;
rightMetricsKey = n;
unicode = 0272;
},
{
glyphname = o;
lastChange = "2020-06-17 15:33:50 +0000";
layers = (
{
anchors = (
{
name = bottom;
position = "{554, 0}";
},
{
name = center;
position = "{645, 531}";
},
{
name = ogonek;
position = "{844, 25}";
},
{
name = top;
position = "{748, 1062}";
},
{
name = topright;
position = "{1019, 1023}";
}
);
layerId = "3FDD6C00-F7FD-4E85-84B0-0136AF7D7529";
paths = (
{
closed = 1;
nodes = (
"957 -25 OFFCURVE",
"1268 241 OFFCURVE",
"1268 627 CURVE SMOOTH",
"1268 901 OFFCURVE",
"1062 1084 OFFCURVE",
"740 1084 CURVE SMOOTH",
"350 1084 OFFCURVE",
"40 819 OFFCURVE",
"40 433 CURVE SMOOTH",
"40 159 OFFCURVE",
"246 -25 OFFCURVE",
"568 -25 CURVE SMOOTH"
);
},
{
closed = 1;
nodes = (
"499 280 OFFCURVE",
"452 349 OFFCURVE",
"452 462 CURVE SMOOTH",
"452 634 OFFCURVE",
"546 778 OFFCURVE",
"698 778 CURVE SMOOTH",
"809 778 OFFCURVE",
"857 710 OFFCURVE",
"857 599 CURVE SMOOTH",
"857 428 OFFCURVE",
"762 280 OFFCURVE",
"611 280 CURVE SMOOTH"
);
}
);
width = 1308;
},
{
anchors = (
{
name = bottom;
position = "{518, 0}";
},
{
name = center;
position = "{630, 531}";
},
{
name = ogonek;
position = "{736, 23}";
},
{
name = top;
position = "{750, 1062}";
},
{
name = topright;
position = "{1052, 929}";
}
);
layerId = "2503C51C-5A6C-4B2C-A968-78FEA18C2585";
paths = (
{
closed = 1;
nodes = (
"876 -17 OFFCURVE",
"1138 262 OFFCURVE",
"1138 657 CURVE SMOOTH",
"1138 893 OFFCURVE",
"992 1075 OFFCURVE",
"734 1075 CURVE SMOOTH",
"378 1075 OFFCURVE",
"121 777 OFFCURVE",
"121 406 CURVE SMOOTH",
"121 154 OFFCURVE",
"278 -17 OFFCURVE",
"534 -17 CURVE SMOOTH"
);
},
{
closed = 1;
nodes = (
"294 11 OFFCURVE",
"153 176 OFFCURVE",
"153 412 CURVE SMOOTH",
"153 760 OFFCURVE",
"397 1047 OFFCURVE",
"734 1047 CURVE SMOOTH",
"974 1047 OFFCURVE",
"1106 877 OFFCURVE",
"1106 650 CURVE SMOOTH",
"1106 272 OFFCURVE",
"856 11 OFFCURVE",
"534 11 CURVE SMOOTH"
);
}
);
width = 1270;
},
{
anchors = (
{
name = bottom;
position = "{532, 0}";
},
{
name = center;
position = "{639, 531}";
},
{
name = ogonek;
position = "{767, 19}";
},
{
name = top;
position = "{753, 1062}";
},
{
name = topright;
position = "{1043, 964}";
}
);
layerId = "BEF1FBB1-ACEC-4AC1-9895-C09886024D55";
paths = (
{
closed = 1;
nodes = (
"904 -20 OFFCURVE",
"1197 254 OFFCURVE",
"1197 646 CURVE SMOOTH",
"1197 896 OFFCURVE",
"1028 1078 OFFCURVE",
"746 1078 CURVE SMOOTH",
"378 1078 OFFCURVE",
"94 793 OFFCURVE",
"94 416 CURVE SMOOTH",
"94 156 OFFCURVE",
"264 -20 OFFCURVE",
"544 -20 CURVE SMOOTH"
);
},
{
closed = 1;
nodes = (
"369 132 OFFCURVE",
"267 241 OFFCURVE",
"267 431 CURVE SMOOTH",
"267 713 OFFCURVE",
"462 926 OFFCURVE",
"733 926 CURVE SMOOTH",
"922 926 OFFCURVE",
"1024 814 OFFCURVE",
"1024 631 CURVE SMOOTH",
"1024 331 OFFCURVE",
"819 132 OFFCURVE",
"558 132 CURVE SMOOTH"
);
}
);
width = 1292;
}
);
leftKerningGroup = o;
note = o;
rightKerningGroup = o;
unicode = 006F;
},
{
glyphname = ohorn;
lastChange = "2020-06-17 16:52:04 +0000";
layers = (
{
components = (
{
name = o;
}
);
layerId = "2503C51C-5A6C-4B2C-A968-78FEA18C2585";
paths = (
{
closed = 1;
nodes = (
"1045 901 LINE",
"1198 901 OFFCURVE",
"1272 1010 OFFCURVE",
"1292 1201 CURVE",
"1260 1201 LINE",
"1241 1024 OFFCURVE",
"1186 929 OFFCURVE",
"1052 929 CURVE"
);
}
);
width = 1270;
},
{
components = (
{
alignment = -1;
name = o;
}
);
layerId = "3FDD6C00-F7FD-4E85-84B0-0136AF7D7529";
paths = (
{
closed = 1;
nodes = (
"970 843 LINE",
"1207 843 OFFCURVE",
"1349 930 OFFCURVE",
"1388 1294 CURVE",
"1174 1294 LINE",
"1150 1095 OFFCURVE",
"1130 1023 OFFCURVE",
"1010 1023 CURVE"
);
}
);
width = 1433;
},
{
components = (
{
alignment = -1;
name = o;
}
);
layerId = "BEF1FBB1-ACEC-4AC1-9895-C09886024D55";
paths = (
{
closed = 1;
nodes = (
"1025 879 LINE",
"1209 879 OFFCURVE",
"1309 980 OFFCURVE",
"1336 1236 CURVE",
"1236 1236 LINE",
"1215 1051 OFFCURVE",
"1173 964 OFFCURVE",
"1044 964 CURVE"
);
}
);
width = 1331;
}
);
leftKerningGroup = o;
rightKerningGroup = ohorn;
unicode = 01A1;
},
{
glyphname = oogonek;
lastChange = "2020-06-08 15:13:33 +0000";
layers = (
{
components = (
{
name = o;
}
);
layerId = "2503C51C-5A6C-4B2C-A968-78FEA18C2585";
paths = (
{
closed = 1;
nodes = (
"675 -338 OFFCURVE",
"637 -342 OFFCURVE",
"609 -342 CURVE SMOOTH",
"547 -342 OFFCURVE",
"512 -313 OFFCURVE",
"512 -256 CURVE SMOOTH",
"512 -160 OFFCURVE",
"645 -51 OFFCURVE",
"736 23 CURVE",
"708 23 LINE",
"605 -49 OFFCURVE",
"476 -153 OFFCURVE",
"476 -262 CURVE SMOOTH",
"476 -340 OFFCURVE",
"530 -373 OFFCURVE",
"602 -373 CURVE SMOOTH",
"633 -373 OFFCURVE",
"671 -369 OFFCURVE",
"695 -364 CURVE",
"698 -333 LINE"
);
}
);
width = 1270;
},
{
components = (
{
name = o;
}
);
layerId = "3FDD6C00-F7FD-4E85-84B0-0136AF7D7529";
paths = (
{
closed = 1;
nodes = (
"784 -248 OFFCURVE",
"757 -251 OFFCURVE",
"733 -251 CURVE SMOOTH",
"685 -251 OFFCURVE",
"646 -242 OFFCURVE",
"646 -197 CURVE SMOOTH",
"646 -136 OFFCURVE",
"780 -15 OFFCURVE",
"834 25 CURVE",
"646 25 LINE",
"562 -27 OFFCURVE",
"428 -159 OFFCURVE",
"428 -273 CURVE SMOOTH",
"428 -389 OFFCURVE",
"548 -437 OFFCURVE",
"692 -437 CURVE SMOOTH",
"726 -437 OFFCURVE",
"758 -435 OFFCURVE",
"786 -432 CURVE",
"806 -245 LINE"
);
}
);
width = 1288;
},
{
components = (
{
name = o;
}
);
layerId = "BEF1FBB1-ACEC-4AC1-9895-C09886024D55";
paths = (
{
closed = 1;
nodes = (
"718 -320 OFFCURVE",
"685 -324 OFFCURVE",
"659 -324 CURVE SMOOTH",
"598 -324 OFFCURVE",
"565 -303 OFFCURVE",
"565 -250 CURVE SMOOTH",
"565 -169 OFFCURVE",
"698 -45 OFFCURVE",
"777 19 CURVE",
"679 19 LINE",
"589 -44 OFFCURVE",
"461 -154 OFFCURVE",
"461 -262 CURVE SMOOTH",
"461 -360 OFFCURVE",
"532 -413 OFFCURVE",
"638 -413 CURVE SMOOTH",
"670 -413 OFFCURVE",
"706 -410 OFFCURVE",
"732 -406 CURVE",
"741 -316 LINE"
);
}
);
width = 1312;
}
);
leftKerningGroup = o;
rightKerningGroup = o;
unicode = 01EB;
},
{
glyphname = oslash;
lastChange = "2020-06-10 15:20:46 +0000";
layers = (
{
anchors = (
{
name = top;
position = "{759, 1062}";
}
);
components = (
{
name = o;
}
);
layerId = "3FDD6C00-F7FD-4E85-84B0-0136AF7D7529";
paths = (
{
closed = 1;
nodes = (
"1125 1132 LINE",
"35 34 LINE",
"143 -70 LINE",
"1234 1028 LINE"
);
}
);
width = 1308;
},
{
anchors = (
{
name = top;
position = "{729, 1062}";
}
);
components = (
{
name = o;
}
);
layerId = "2503C51C-5A6C-4B2C-A968-78FEA18C2585";
paths = (
{
closed = 1;
nodes = (
"1034 1085 LINE",
"202 -7 LINE",
"227 -23 LINE",
"1058 1069 LINE"
);
}
);
width = 1270;
},
{
anchors = (
{
name = top;
position = "{740, 1062}";
}
);
components = (
{
name = o;
}
);
layerId = "BEF1FBB1-ACEC-4AC1-9895-C09886024D55";
paths = (
{
closed = 1;
nodes = (
"1071 1108 LINE",
"142 14 LINE",
"221 -48 LINE",
"1150 1046 LINE"
);
}
);
width = 1292;
}
);
leftKerningGroup = o;
leftMetricsKey = o;
rightKerningGroup = o;
rightMetricsKey = o;
unicode = 00F8;
},
{
glyphname = oe;
lastChange = "2020-06-10 15:20:46 +0000";
layers = (
{
anchors = (
{
name = bottom;
position = "{955, 0}";
},
{
name = top;
position = "{1183, 1062}";
}
);
components = (
{
name = o;
}
);
layerId = "3FDD6C00-F7FD-4E85-84B0-0136AF7D7529";
paths = (
{
closed = 1;
nodes = (
"2036 421 LINE",
"2057 480 OFFCURVE",
"2070 568 OFFCURVE",
"2070 632 CURVE SMOOTH",
"2070 913 OFFCURVE",
"1871 1084 OFFCURVE",
"1542 1084 CURVE SMOOTH",
"1149 1084 OFFCURVE",
"840 819 OFFCURVE",
"840 437 CURVE SMOOTH",
"840 166 OFFCURVE",
"1032 -26 OFFCURVE",
"1366 -26 CURVE SMOOTH",
"1737 -26 OFFCURVE",
"1948 148 OFFCURVE",
"2008 336 CURVE",
"1610 336 LINE",
"1598 303 OFFCURVE",
"1537 262 OFFCURVE",
"1408 262 CURVE SMOOTH",
"1268 262 OFFCURVE",
"1226 326 OFFCURVE",
"1226 432 CURVE SMOOTH",
"1226 639 OFFCURVE",
"1321 800 OFFCURVE",
"1517 800 CURVE SMOOTH",
"1642 800 OFFCURVE",
"1685 734 OFFCURVE",
"1685 672 CURVE SMOOTH",
"1685 657 OFFCURVE",
"1681 636 OFFCURVE",
"1675 609 CURVE",
"1714 661 LINE",
"1088 661 LINE",
"1039 421 LINE"
);
}
);
width = 2108;
},
{
anchors = (
{
name = bottom;
position = "{1043, 0}";
},
{
name = top;
position = "{1247, 1062}";
}
);
components = (
{
name = o;
}
);
layerId = "2503C51C-5A6C-4B2C-A968-78FEA18C2585";
paths = (
{
closed = 1;
nodes = (
"2077 512 LINE",
"2089 564 OFFCURVE",
"2095 613 OFFCURVE",
"2095 664 CURVE SMOOTH",
"2095 894 OFFCURVE",
"1966 1075 OFFCURVE",
"1719 1075 CURVE SMOOTH",
"1372 1075 OFFCURVE",
"1097 771 OFFCURVE",
"1097 410 CURVE SMOOTH",
"1097 163 OFFCURVE",
"1237 -17 OFFCURVE",
"1494 -17 CURVE SMOOTH",
"1793 -17 OFFCURVE",
"1984 202 OFFCURVE",
"2023 332 CURVE",
"1992 332 LINE",
"1956 220 OFFCURVE",
"1777 11 OFFCURVE",
"1496 11 CURVE SMOOTH",
"1245 11 OFFCURVE",
"1128 190 OFFCURVE",
"1128 416 CURVE SMOOTH",
"1128 752 OFFCURVE",
"1390 1047 OFFCURVE",
"1717 1047 CURVE SMOOTH",
"1951 1047 OFFCURVE",
"2064 869 OFFCURVE",
"2064 661 CURVE SMOOTH",
"2064 632 OFFCURVE",
"2058 562 OFFCURVE",
"2051 534 CURVE",
"2066 540 LINE",
"1128 540 LINE",
"1121 512 LINE"
);
}
);
width = 2221;
},
{
anchors = (
{
name = bottom;
position = "{1010, 0}";
},
{
name = top;
position = "{1223, 1062}";
}
);
components = (
{
alignment = -1;
name = o;
}
);
layerId = "BEF1FBB1-ACEC-4AC1-9895-C09886024D55";
paths = (
{
closed = 1;
nodes = (
"2079 463 LINE",
"2094 508 OFFCURVE",
"2108 596 OFFCURVE",
"2108 653 CURVE SMOOTH",
"2108 895 OFFCURVE",
"1950 1078 OFFCURVE",
"1673 1078 CURVE SMOOTH",
"1309 1078 OFFCURVE",
"1018 794 OFFCURVE",
"1018 421 CURVE SMOOTH",
"1018 156 OFFCURVE",
"1183 -21 OFFCURVE",
"1465 -21 CURVE SMOOTH",
"1788 -21 OFFCURVE",
"2000 164 OFFCURVE",
"2038 334 CURVE",
"1866 334 LINE",
"1836 241 OFFCURVE",
"1725 135 OFFCURVE",
"1490 135 CURVE SMOOTH",
"1281 135 OFFCURVE",
"1182 243 OFFCURVE",
"1182 424 CURVE SMOOTH",
"1182 709 OFFCURVE",
"1369 924 OFFCURVE",
"1656 924 CURVE SMOOTH",
"1854 924 OFFCURVE",
"1944 814 OFFCURVE",
"1944 670 CURVE SMOOTH",
"1944 617 OFFCURVE",
"1939 593 OFFCURVE",
"1931 565 CURVE",
"1961 615 LINE",
"1140 615 LINE",
"1108 463 LINE"
);
}
);
width = 2199;
}
);
leftKerningGroup = o;
leftMetricsKey = o;
rightKerningGroup = o;
rightMetricsKey = e;
unicode = 0153;
},
{
glyphname = p;
lastChange = "2020-06-17 15:33:56 +0000";
layers = (
{
anchors = (
{
name = bottom;
position = "{695, 0}";
},
{
name = top;
position = "{916, 1062}";
}
);
layerId = "3FDD6C00-F7FD-4E85-84B0-0136AF7D7529";
paths = (
{
closed = 1;
nodes = (
"279 -437 LINE",
"597 1062 LINE",
"193 1062 LINE",
"-125 -437 LINE"
);
},
{
closed = 1;
nodes = (
"1067 -26 OFFCURVE",
"1304 252 OFFCURVE",
"1304 628 CURVE SMOOTH",
"1304 917 OFFCURVE",
"1135 1084 OFFCURVE",
"894 1084 CURVE SMOOTH",
"639 1084 OFFCURVE",
"414 866 OFFCURVE",
"351 571 CURVE",
"490 561 LINE",
"518 694 OFFCURVE",
"636 757 OFFCURVE",
"730 757 CURVE SMOOTH",
"824 757 OFFCURVE",
"887 706 OFFCURVE",
"887 593 CURVE SMOOTH",
"887 434 OFFCURVE",
"803 314 OFFCURVE",
"636 314 CURVE SMOOTH",
"552 314 OFFCURVE",
"476 366 OFFCURVE",
"476 467 CURVE SMOOTH",
"476 482 OFFCURVE",
"479 512 OFFCURVE",
"483 528 CURVE",
"341 525 LINE",
"332 501 OFFCURVE",
"324 457 OFFCURVE",
"324 386 CURVE SMOOTH",
"324 151 OFFCURVE",
"483 -26 OFFCURVE",
"702 -26 CURVE SMOOTH"
);
}
);
width = 1347;
},
{
anchors = (
{
name = bottom;
position = "{475, 0}";
},
{
name = top;
position = "{702, 1062}";
}
);
layerId = "2503C51C-5A6C-4B2C-A968-78FEA18C2585";
paths = (
{
closed = 1;
nodes = (
"-5 -437 LINE",
"313 1062 LINE",
"283 1062 LINE",
"-35 -437 LINE"
);
},
{
closed = 1;
nodes = (
"836 -17 OFFCURVE",
"1041 295 OFFCURVE",
"1041 664 CURVE SMOOTH",
"1041 920 OFFCURVE",
"939 1075 OFFCURVE",
"711 1075 CURVE SMOOTH",
"471 1075 OFFCURVE",
"247 886 OFFCURVE",
"202 675 CURVE",
"230 675 LINE",
"272 872 OFFCURVE",
"495 1047 OFFCURVE",
"711 1047 CURVE SMOOTH",
"920 1047 OFFCURVE",
"1010 902 OFFCURVE",
"1010 663 CURVE SMOOTH",
"1010 317 OFFCURVE",
"819 11 OFFCURVE",
"491 11 CURVE SMOOTH",
"300 11 OFFCURVE",
"163 148 OFFCURVE",
"163 316 CURVE SMOOTH",
"163 347 OFFCURVE",
"168 383 OFFCURVE",
"170 390 CURVE",
"141 390 LINE",
"140 386 OFFCURVE",
"132 344 OFFCURVE",
"132 311 CURVE SMOOTH",
"132 131 OFFCURVE",
"279 -17 OFFCURVE",
"491 -17 CURVE SMOOTH"
);
}
);
width = 1174;
},
{
anchors = (
{
name = bottom;
position = "{555, 0}";
},
{
name = top;
position = "{777, 1062}";
}
);
layerId = "BEF1FBB1-ACEC-4AC1-9895-C09886024D55";
paths = (
{
closed = 1;
nodes = (
"107 -437 LINE",
"426 1062 LINE",
"256 1062 LINE",
"-63 -437 LINE"
);
},
{
closed = 1;
nodes = (
"905 -20 OFFCURVE",
"1151 289 OFFCURVE",
"1151 657 CURVE SMOOTH",
"1151 928 OFFCURVE",
"994 1078 OFFCURVE",
"768 1078 CURVE SMOOTH",
"522 1078 OFFCURVE",
"258 889 OFFCURVE",
"200 616 CURVE",
"330 612 LINE",
"367 785 OFFCURVE",
"551 922 OFFCURVE",
"721 922 CURVE SMOOTH",
"880 922 OFFCURVE",
"977 834 OFFCURVE",
"977 649 CURVE SMOOTH",
"977 379 OFFCURVE",
"823 141 OFFCURVE",
"555 141 CURVE SMOOTH",
"404 141 OFFCURVE",
"289 249 OFFCURVE",
"289 393 CURVE SMOOTH",
"289 410 OFFCURVE",
"294 444 OFFCURVE",
"298 462 CURVE",
"186 459 LINE",
"181 444 OFFCURVE",
"173 402 OFFCURVE",
"173 350 CURVE SMOOTH",
"173 130 OFFCURVE",
"340 -20 OFFCURVE",
"555 -20 CURVE SMOOTH"
);
}
);
width = 1245;
}
);
leftKerningGroup = p;
leftMetricsKey = h;
note = p;
rightKerningGroup = o;
rightMetricsKey = o;
unicode = 0070;
},
{
glyphname = thorn;
lastChange = "2020-06-10 15:20:46 +0000";
layers = (
{
anchors = (
{
name = bottom;
position = "{705, 0}";
},
{
name = top;
position = "{894, 1062}";
}
);
layerId = "3FDD6C00-F7FD-4E85-84B0-0136AF7D7529";
paths = (
{
closed = 1;
nodes = (
"1070 -25 OFFCURVE",
"1307 252 OFFCURVE",
"1307 628 CURVE SMOOTH",
"1307 917 OFFCURVE",
"1138 1083 OFFCURVE",
"897 1083 CURVE SMOOTH",
"642 1083 OFFCURVE",
"417 866 OFFCURVE",
"354 571 CURVE",
"493 561 LINE",
"521 694 OFFCURVE",
"639 757 OFFCURVE",
"733 757 CURVE SMOOTH",
"827 757 OFFCURVE",
"890 706 OFFCURVE",
"890 593 CURVE SMOOTH",
"890 434 OFFCURVE",
"806 314 OFFCURVE",
"639 314 CURVE SMOOTH",
"555 314 OFFCURVE",
"479 366 OFFCURVE",
"479 467 CURVE SMOOTH",
"479 482 OFFCURVE",
"482 512 OFFCURVE",
"486 528 CURVE",
"344 525 LINE",
"335 501 OFFCURVE",
"327 457 OFFCURVE",
"327 386 CURVE SMOOTH",
"327 151 OFFCURVE",
"486 -25 OFFCURVE",
"705 -25 CURVE SMOOTH"
);
},
{
closed = 1;
nodes = (
"280 -437 LINE",
"707 1563 LINE",
"303 1563 LINE",
"-126 -437 LINE"
);
}
);
width = 1350;
},
{
anchors = (
{
name = bottom;
position = "{470, 0}";
},
{
name = top;
position = "{696, 1062}";
}
);
layerId = "2503C51C-5A6C-4B2C-A968-78FEA18C2585";
paths = (
{
closed = 1;
nodes = (
"841 -17 OFFCURVE",
"1046 295 OFFCURVE",
"1046 664 CURVE SMOOTH",
"1046 920 OFFCURVE",
"944 1075 OFFCURVE",
"716 1075 CURVE SMOOTH",
"476 1075 OFFCURVE",
"252 886 OFFCURVE",
"207 675 CURVE",
"236 675 LINE",
"278 872 OFFCURVE",
"500 1047 OFFCURVE",
"716 1047 CURVE SMOOTH",
"925 1047 OFFCURVE",
"1015 902 OFFCURVE",
"1015 663 CURVE SMOOTH",
"1015 317 OFFCURVE",
"824 11 OFFCURVE",
"496 11 CURVE SMOOTH",
"305 11 OFFCURVE",
"168 148 OFFCURVE",
"168 316 CURVE SMOOTH",
"168 347 OFFCURVE",
"175 386 OFFCURVE",
"176 390 CURVE",
"146 390 LINE",
"145 387 OFFCURVE",
"137 344 OFFCURVE",
"137 311 CURVE SMOOTH",
"137 131 OFFCURVE",
"284 -17 OFFCURVE",
"496 -17 CURVE SMOOTH"
);
},
{
closed = 1;
nodes = (
"0 -437 LINE",
"426 1563 LINE",
"395 1563 LINE",
"-36 -437 LINE"
);
}
);
width = 1179;
},
{
anchors = (
{
name = bottom;
position = "{560, 0}";
},
{
name = top;
position = "{772, 1062}";
}
);
layerId = "BEF1FBB1-ACEC-4AC1-9895-C09886024D55";
paths = (
{
closed = 1;
nodes = (
"902 -20 OFFCURVE",
"1150 289 OFFCURVE",
"1150 653 CURVE SMOOTH",
"1150 927 OFFCURVE",
"984 1078 OFFCURVE",
"757 1078 CURVE SMOOTH",
"511 1078 OFFCURVE",
"257 889 OFFCURVE",
"199 616 CURVE",
"329 612 LINE",
"366 785 OFFCURVE",
"550 922 OFFCURVE",
"720 922 CURVE SMOOTH",
"878 922 OFFCURVE",
"976 834 OFFCURVE",
"976 650 CURVE SMOOTH",
"976 381 OFFCURVE",
"822 141 OFFCURVE",
"554 141 CURVE SMOOTH",
"404 141 OFFCURVE",
"290 248 OFFCURVE",
"290 392 CURVE SMOOTH",
"290 406 OFFCURVE",
"293 448 OFFCURVE",
"298 462 CURVE",
"186 459 LINE",
"179 431 OFFCURVE",
"173 379 OFFCURVE",
"173 349 CURVE SMOOTH",
"173 129 OFFCURVE",
"339 -20 OFFCURVE",
"554 -20 CURVE SMOOTH"
);
},
{
closed = 1;
nodes = (
"107 -437 LINE",
"533 1563 LINE",
"363 1563 LINE",
"-63 -437 LINE"
);
}
);
width = 1245;
}
);
leftKerningGroup = h;
leftMetricsKey = b;
note = thorn;
rightKerningGroup = o;
rightMetricsKey = b;
unicode = 00FE;
},
{
glyphname = q;
lastChange = "2020-06-17 15:34:12 +0000";
layers = (
{
anchors = (
{
name = bottom;
position = "{426, 0}";
},
{
name = top;
position = "{642, 1062}";
}
);
layerId = "3FDD6C00-F7FD-4E85-84B0-0136AF7D7529";
paths = (
{
closed = 1;
nodes = (
"682 -26 OFFCURVE",
"931 210 OFFCURVE",
"994 505 CURVE",
"854 515 LINE",
"826 382 OFFCURVE",
"709 314 OFFCURVE",
"613 314 CURVE SMOOTH",
"522 314 OFFCURVE",
"456 375 OFFCURVE",
"456 487 CURVE SMOOTH",
"456 642 OFFCURVE",
"557 757 OFFCURVE",
"707 757 CURVE SMOOTH",
"789 757 OFFCURVE",
"869 709 OFFCURVE",
"869 608 CURVE SMOOTH",
"869 593 OFFCURVE",
"865 564 OFFCURVE",
"861 548 CURVE",
"1003 548 LINE",
"1014 591 OFFCURVE",
"1022 654 OFFCURVE",
"1022 697 CURVE SMOOTH",
"1022 923 OFFCURVE",
"876 1084 OFFCURVE",
"659 1084 CURVE SMOOTH",
"305 1084 OFFCURVE",
"37 778 OFFCURVE",
"37 414 CURVE SMOOTH",
"37 130 OFFCURVE",
"188 -26 OFFCURVE",
"427 -26 CURVE SMOOTH"
);
},
{
closed = 1;
nodes = (
"1055 -437 LINE",
"1373 1062 LINE",
"969 1062 LINE",
"651 -437 LINE"
);
}
);
width = 1362;
},
{
anchors = (
{
name = bottom;
position = "{461, 0}";
},
{
name = top;
position = "{673, 1062}";
}
);
layerId = "2503C51C-5A6C-4B2C-A968-78FEA18C2585";
paths = (
{
closed = 1;
nodes = (
"722 -17 OFFCURVE",
"916 173 OFFCURVE",
"961 384 CURVE",
"931 383 LINE",
"889 186 OFFCURVE",
"698 11 OFFCURVE",
"462 11 CURVE SMOOTH",
"254 11 OFFCURVE",
"153 163 OFFCURVE",
"153 389 CURVE SMOOTH",
"153 739 OFFCURVE",
"341 1047 OFFCURVE",
"672 1047 CURVE SMOOTH",
"863 1047 OFFCURVE",
"1000 910 OFFCURVE",
"1000 742 CURVE SMOOTH",
"1000 717 OFFCURVE",
"996 692 OFFCURVE",
"990 661 CURVE",
"1018 657 LINE",
"1019 660 OFFCURVE",
"1030 702 OFFCURVE",
"1030 747 CURVE SMOOTH",
"1030 927 OFFCURVE",
"885 1075 OFFCURVE",
"673 1075 CURVE SMOOTH",
"323 1075 OFFCURVE",
"121 760 OFFCURVE",
"121 387 CURVE SMOOTH",
"121 145 OFFCURVE",
"234 -17 OFFCURVE",
"460 -17 CURVE SMOOTH"
);
},
{
closed = 1;
nodes = (
"787 -437 LINE",
"1105 1062 LINE",
"1075 1062 LINE",
"757 -437 LINE"
);
}
);
width = 1167;
},
{
anchors = (
{
name = bottom;
position = "{469, 0}";
},
{
name = top;
position = "{669, 1062}";
}
);
layerId = "BEF1FBB1-ACEC-4AC1-9895-C09886024D55";
paths = (
{
closed = 1;
nodes = (
"737 -20 OFFCURVE",
"990 187 OFFCURVE",
"1047 459 CURVE",
"916 462 LINE",
"878 282 OFFCURVE",
"700 141 OFFCURVE",
"523 141 CURVE SMOOTH",
"365 141 OFFCURVE",
"267 231 OFFCURVE",
"267 416 CURVE SMOOTH",
"267 686 OFFCURVE",
"420 922 OFFCURVE",
"689 922 CURVE SMOOTH",
"839 922 OFFCURVE",
"954 816 OFFCURVE",
"954 672 CURVE SMOOTH",
"954 653 OFFCURVE",
"950 619 OFFCURVE",
"945 599 CURVE",
"1058 604 LINE",
"1066 636 OFFCURVE",
"1072 682 OFFCURVE",
"1072 714 CURVE SMOOTH",
"1072 933 OFFCURVE",
"903 1078 OFFCURVE",
"688 1078 CURVE SMOOTH",
"338 1078 OFFCURVE",
"92 767 OFFCURVE",
"92 400 CURVE SMOOTH",
"92 127 OFFCURVE",
"247 -20 OFFCURVE",
"475 -20 CURVE SMOOTH"
);
},
{
closed = 1;
nodes = (
"894 -437 LINE",
"1213 1062 LINE",
"1043 1062 LINE",
"724 -437 LINE"
);
}
);
width = 1247;
}
);
leftKerningGroup = o;
leftMetricsKey = o;
note = q;
rightKerningGroup = q;
rightMetricsKey = d;
unicode = 0071;
},
{
glyphname = r;
lastChange = "2020-06-17 15:34:27 +0000";
layers = (
{
anchors = (
{
name = bottom;
position = "{176, 0}";
},
{
name = top;
position = "{654, 1062}";
}
);
layerId = "3FDD6C00-F7FD-4E85-84B0-0136AF7D7529";
paths = (
{
closed = 1;
nodes = (
"372 0 LINE",
"467 450 LINE SMOOTH",
"497 592 OFFCURVE",
"651 716 OFFCURVE",
"859 716 CURVE SMOOTH",
"918 716 OFFCURVE",
"958 697 OFFCURVE",
"968 690 CURVE",
"1119 1062 LINE",
"1110 1068 OFFCURVE",
"1072 1084 OFFCURVE",
"986 1084 CURVE SMOOTH",
"779 1084 OFFCURVE",
"544 949 OFFCURVE",
"456 723 CURVE",
"514 669 LINE",
"597 1062 LINE",
"193 1062 LINE",
"-32 0 LINE"
);
}
);
width = 1006;
},
{
anchors = (
{
name = bottom;
position = "{71, 0}";
},
{
name = top;
position = "{528, 1062}";
}
);
layerId = "2503C51C-5A6C-4B2C-A968-78FEA18C2585";
paths = (
{
closed = 1;
nodes = (
"88 0 LINE",
"235 691 LINE SMOOTH",
"262 816 OFFCURVE",
"458 1047 OFFCURVE",
"687 1047 CURVE SMOOTH",
"771 1047 OFFCURVE",
"813 1026 OFFCURVE",
"827 1018 CURVE",
"846 1044 LINE",
"832 1052 OFFCURVE",
"772 1075 OFFCURVE",
"688 1075 CURVE SMOOTH",
"445 1075 OFFCURVE",
"274 861 OFFCURVE",
"240 776 CURVE",
"253 776 LINE",
"313 1062 LINE",
"283 1062 LINE",
"58 0 LINE"
);
}
);
width = 780;
},
{
anchors = (
{
name = bottom;
position = "{117, 0}";
},
{
name = top;
position = "{599, 1062}";
}
);
layerId = "BEF1FBB1-ACEC-4AC1-9895-C09886024D55";
paths = (
{
closed = 1;
nodes = (
"200 0 LINE",
"324 581 LINE SMOOTH",
"356 732 OFFCURVE",
"533 913 OFFCURVE",
"755 913 CURVE SMOOTH",
"829 913 OFFCURVE",
"865 893 OFFCURVE",
"876 884 CURVE",
"956 1051 LINE",
"945 1059 OFFCURVE",
"892 1078 OFFCURVE",
"807 1078 CURVE SMOOTH",
"577 1078 OFFCURVE",
"346 914 OFFCURVE",
"295 756 CURVE",
"357 736 LINE",
"426 1062 LINE",
"256 1062 LINE",
"30 0 LINE"
);
}
);
width = 878;
}
);
leftKerningGroup = n;
leftMetricsKey = h;
note = r;
rightKerningGroup = r;
unicode = 0072;
},
{
glyphname = s;
lastChange = "2020-06-17 15:34:35 +0000";
layers = (
{
anchors = (
{
name = bottom;
position = "{454, 0}";
},
{
name = top;
position = "{672, 1062}";
}
);
layerId = "3FDD6C00-F7FD-4E85-84B0-0136AF7D7529";
paths = (
{
closed = 1;
nodes = (
"760 -26 OFFCURVE",
"1052 106 OFFCURVE",
"1052 385 CURVE SMOOTH",
"1052 595 OFFCURVE",
"792 645 OFFCURVE",
"656 665 CURVE SMOOTH",
"555 680 OFFCURVE",
"496 698 OFFCURVE",
"496 732 CURVE SMOOTH",
"496 784 OFFCURVE",
"581 796 OFFCURVE",
"624 796 CURVE SMOOTH",
"670 796 OFFCURVE",
"722 778 OFFCURVE",
"722 733 CURVE SMOOTH",
"722 724 OFFCURVE",
"720 714 OFFCURVE",
"718 709 CURVE",
"1113 709 LINE",
"1116 721 OFFCURVE",
"1121 751 OFFCURVE",
"1121 775 CURVE SMOOTH",
"1121 966 OFFCURVE",
"897 1084 OFFCURVE",
"668 1084 CURVE SMOOTH",
"377 1084 OFFCURVE",
"99 963 OFFCURVE",
"99 698 CURVE SMOOTH",
"99 495 OFFCURVE",
"299 434 OFFCURVE",
"468 406 CURVE SMOOTH",
"596 385 OFFCURVE",
"659 372 OFFCURVE",
"659 340 CURVE SMOOTH",
"659 283 OFFCURVE",
"576 265 OFFCURVE",
"521 265 CURVE SMOOTH",
"448 265 OFFCURVE",
"402 281 OFFCURVE",
"402 325 CURVE SMOOTH",
"402 333 OFFCURVE",
"404 343 OFFCURVE",
"406 351 CURVE",
"7 351 LINE",
"3 336 OFFCURVE",
"-2 309 OFFCURVE",
"-2 281 CURVE SMOOTH",
"-2 74 OFFCURVE",
"247 -26 OFFCURVE",
"467 -26 CURVE SMOOTH"
);
}
);
width = 1136;
},
{
anchors = (
{
name = bottom;
position = "{417, 0}";
},
{
name = top;
position = "{638, 1062}";
}
);
layerId = "2503C51C-5A6C-4B2C-A968-78FEA18C2585";
paths = (
{
closed = 1;
nodes = (
"670 -17 OFFCURVE",
"886 96 OFFCURVE",
"886 316 CURVE SMOOTH",
"886 450 OFFCURVE",
"764 506 OFFCURVE",
"543 546 CURVE SMOOTH",
"358 580 OFFCURVE",
"233 630 OFFCURVE",
"233 758 CURVE SMOOTH",
"233 947 OFFCURVE",
"433 1047 OFFCURVE",
"645 1047 CURVE SMOOTH",
"809 1047 OFFCURVE",
"947 997 OFFCURVE",
"947 847 CURVE SMOOTH",
"947 804 OFFCURVE",
"940 777 OFFCURVE",
"935 759 CURVE",
"966 759 LINE",
"971 780 OFFCURVE",
"978 826 OFFCURVE",
"978 850 CURVE SMOOTH",
"978 1011 OFFCURVE",
"828 1075 OFFCURVE",
"645 1075 CURVE SMOOTH",
"417 1075 OFFCURVE",
"202 960 OFFCURVE",
"202 752 CURVE SMOOTH",
"202 610 OFFCURVE",
"341 554 OFFCURVE",
"543 518 CURVE SMOOTH",
"744 482 OFFCURVE",
"854 434 OFFCURVE",
"854 311 CURVE SMOOTH",
"854 114 OFFCURVE",
"652 11 OFFCURVE",
"422 11 CURVE SMOOTH",
"213 11 OFFCURVE",
"102 89 OFFCURVE",
"102 219 CURVE SMOOTH",
"102 245 OFFCURVE",
"106 278 OFFCURVE",
"113 305 CURVE",
"82 305 LINE",
"76 281 OFFCURVE",
"71 250 OFFCURVE",
"71 216 CURVE SMOOTH",
"71 70 OFFCURVE",
"191 -17 OFFCURVE",
"422 -17 CURVE SMOOTH"
);
}
);
width = 1079;
},
{
anchors = (
{
name = bottom;
position = "{435, 0}";
},
{
name = top;
position = "{657, 1062}";
}
);
layerId = "BEF1FBB1-ACEC-4AC1-9895-C09886024D55";
paths = (
{
closed = 1;
nodes = (
"698 -20 OFFCURVE",
"951 78 OFFCURVE",
"951 331 CURVE SMOOTH",
"951 506 OFFCURVE",
"792 566 OFFCURVE",
"594 605 CURVE SMOOTH",
"433 637 OFFCURVE",
"339 670 OFFCURVE",
"339 765 CURVE SMOOTH",
"339 877 OFFCURVE",
"491 925 OFFCURVE",
"635 925 CURVE SMOOTH",
"756 925 OFFCURVE",
"861 881 OFFCURVE",
"861 786 CURVE SMOOTH",
"861 769 OFFCURVE",
"860 759 OFFCURVE",
"855 740 CURVE",
"1025 740 LINE",
"1032 761 OFFCURVE",
"1035 780 OFFCURVE",
"1035 818 CURVE SMOOTH",
"1035 976 OFFCURVE",
"861 1078 OFFCURVE",
"653 1078 CURVE SMOOTH",
"411 1078 OFFCURVE",
"168 969 OFFCURVE",
"168 738 CURVE SMOOTH",
"168 565 OFFCURVE",
"326 494 OFFCURVE",
"522 462 CURVE SMOOTH",
"706 432 OFFCURVE",
"781 397 OFFCURVE",
"781 305 CURVE SMOOTH",
"781 174 OFFCURVE",
"618 134 OFFCURVE",
"469 134 CURVE SMOOTH",
"312 134 OFFCURVE",
"221 181 OFFCURVE",
"221 269 CURVE SMOOTH",
"221 282 OFFCURVE",
"225 310 OFFCURVE",
"229 322 CURVE",
"58 322 LINE",
"52 303 OFFCURVE",
"45 262 OFFCURVE",
"45 235 CURVE SMOOTH",
"45 80 OFFCURVE",
"215 -20 OFFCURVE",
"445 -20 CURVE SMOOTH"
);
}
);
width = 1104;
}
);
leftKerningGroup = o;
leftMetricsKey = o;
note = s;
rightKerningGroup = o;
rightMetricsKey = o;
unicode = 0073;
},
{
glyphname = scedilla;
lastChange = "2020-06-08 15:15:49 +0000";
layers = (
{
components = (
{
name = s;
}
);
layerId = "3FDD6C00-F7FD-4E85-84B0-0136AF7D7529";
paths = (
{
closed = 1;
nodes = (
"507 -73 OFFCURVE",
"466 -92 OFFCURVE",
"449 -124 CURVE",
"459 -124 LINE",
"532 -17 LINE",
"366 -17 LINE",
"272 -160 LINE",
"412 -199 LINE",
"429 -177 OFFCURVE",
"465 -167 OFFCURVE",
"496 -167 CURVE SMOOTH",
"524 -167 OFFCURVE",
"547 -179 OFFCURVE",
"547 -207 CURVE SMOOTH",
"547 -257 OFFCURVE",
"489 -282 OFFCURVE",
"414 -282 CURVE SMOOTH",
"343 -282 OFFCURVE",
"264 -247 OFFCURVE",
"237 -229 CURVE",
"141 -370 LINE",
"180 -399 OFFCURVE",
"301 -427 OFFCURVE",
"390 -427 CURVE SMOOTH",
"556 -427 OFFCURVE",
"718 -353 OFFCURVE",
"718 -199 CURVE SMOOTH",
"718 -106 OFFCURVE",
"638 -73 OFFCURVE",
"572 -73 CURVE SMOOTH"
);
}
);
width = 1116;
},
{
components = (
{
name = s;
}
);
layerId = "2503C51C-5A6C-4B2C-A968-78FEA18C2585";
paths = (
{
closed = 1;
nodes = (
"403 -155 OFFCURVE",
"357 -172 OFFCURVE",
"342 -197 CURVE",
"342 -207 LINE",
"433 -12 LINE",
"403 -12 LINE",
"310 -211 LINE",
"337 -224 LINE",
"361 -200 OFFCURVE",
"408 -183 OFFCURVE",
"444 -183 CURVE SMOOTH",
"494 -183 OFFCURVE",
"526 -206 OFFCURVE",
"526 -261 CURVE SMOOTH",
"526 -360 OFFCURVE",
"443 -418 OFFCURVE",
"350 -418 CURVE SMOOTH",
"285 -418 OFFCURVE",
"252 -399 OFFCURVE",
"242 -391 CURVE",
"224 -419 LINE",
"233 -427 OFFCURVE",
"280 -446 OFFCURVE",
"346 -446 CURVE SMOOTH",
"456 -446 OFFCURVE",
"556 -380 OFFCURVE",
"556 -258 CURVE SMOOTH",
"556 -183 OFFCURVE",
"507 -155 OFFCURVE",
"449 -155 CURVE SMOOTH"
);
}
);
width = 1071;
},
{
components = (
{
name = s;
}
);
layerId = "BEF1FBB1-ACEC-4AC1-9895-C09886024D55";
paths = (
{
closed = 1;
nodes = (
"459 -114 OFFCURVE",
"395 -142 OFFCURVE",
"379 -170 CURVE",
"407 -176 LINE",
"491 -14 LINE",
"402 -14 LINE",
"309 -192 LINE",
"382 -215 LINE",
"403 -192 OFFCURVE",
"446 -177 OFFCURVE",
"480 -177 CURVE SMOOTH",
"522 -177 OFFCURVE",
"551 -196 OFFCURVE",
"551 -241 CURVE SMOOTH",
"551 -322 OFFCURVE",
"477 -367 OFFCURVE",
"391 -367 CURVE SMOOTH",
"324 -367 OFFCURVE",
"273 -342 OFFCURVE",
"257 -330 CURVE",
"210 -401 LINE",
"230 -417 OFFCURVE",
"305 -439 OFFCURVE",
"379 -439 CURVE SMOOTH",
"510 -439 OFFCURVE",
"634 -370 OFFCURVE",
"634 -236 CURVE SMOOTH",
"634 -154 OFFCURVE",
"573 -114 OFFCURVE",
"512 -114 CURVE SMOOTH"
);
}
);
width = 1124;
}
);
leftKerningGroup = s;
rightKerningGroup = s;
unicode = 015F;
},
{
glyphname = germandbls;
lastChange = "2020-06-10 15:20:46 +0000";
layers = (
{
layerId = "3FDD6C00-F7FD-4E85-84B0-0136AF7D7529";
paths = (
{
closed = 1;
nodes = (
"357 0 LINE",
"544 881 LINE SMOOTH",
"593 1111 OFFCURVE",
"665 1188 OFFCURVE",
"804 1188 CURVE SMOOTH",
"886 1188 OFFCURVE",
"914 1150 OFFCURVE",
"914 1102 CURVE SMOOTH",
"914 1044 OFFCURVE",
"871 1008 OFFCURVE",
"814 965 CURVE SMOOTH",
"739 909 OFFCURVE",
"694 841 OFFCURVE",
"694 740 CURVE SMOOTH",
"694 663 OFFCURVE",
"738 601 OFFCURVE",
"780 550 CURVE SMOOTH",
"817 505 OFFCURVE",
"834 464 OFFCURVE",
"834 418 CURVE SMOOTH",
"834 326 OFFCURVE",
"778 278 OFFCURVE",
"674 278 CURVE SMOOTH",
"620 278 OFFCURVE",
"578 294 OFFCURVE",
"557 302 CURVE",
"446 7 LINE",
"477 -4 OFFCURVE",
"578 -13 OFFCURVE",
"640 -13 CURVE SMOOTH",
"999 -13 OFFCURVE",
"1237 155 OFFCURVE",
"1237 477 CURVE SMOOTH",
"1237 573 OFFCURVE",
"1182 638 OFFCURVE",
"1136 684 CURVE SMOOTH",
"1098 722 OFFCURVE",
"1076 755 OFFCURVE",
"1076 787 CURVE SMOOTH",
"1076 822 OFFCURVE",
"1111 852 OFFCURVE",
"1154 885 CURVE SMOOTH",
"1250 959 OFFCURVE",
"1300 1063 OFFCURVE",
"1300 1180 CURVE SMOOTH",
"1300 1377 OFFCURVE",
"1085 1489 OFFCURVE",
"848 1489 CURVE SMOOTH",
"606 1489 OFFCURVE",
"260 1423 OFFCURVE",
"156 933 CURVE SMOOTH",
"-42 0 LINE"
);
}
);
width = 1307;
},
{
layerId = "2503C51C-5A6C-4B2C-A968-78FEA18C2585";
paths = (
{
closed = 1;
nodes = (
"68 0 LINE",
"285 1018 LINE SMOOTH",
"348 1312 OFFCURVE",
"503 1460 OFFCURVE",
"721 1460 CURVE SMOOTH",
"886 1460 OFFCURVE",
"955 1378 OFFCURVE",
"955 1270 CURVE SMOOTH",
"955 1119 OFFCURVE",
"877 1039 OFFCURVE",
"749 962 CURVE SMOOTH",
"688 925 OFFCURVE",
"640 878 OFFCURVE",
"640 814 CURVE SMOOTH",
"640 750 OFFCURVE",
"703 700 OFFCURVE",
"772 655 CURVE SMOOTH",
"847 606 OFFCURVE",
"915 544 OFFCURVE",
"915 426 CURVE SMOOTH",
"915 186 OFFCURVE",
"703 15 OFFCURVE",
"451 15 CURVE SMOOTH",
"384 15 OFFCURVE",
"314 36 OFFCURVE",
"292 47 CURVE",
"272 17 LINE",
"298 5 OFFCURVE",
"372 -13 OFFCURVE",
"452 -13 CURVE SMOOTH",
"725 -13 OFFCURVE",
"948 171 OFFCURVE",
"948 432 CURVE SMOOTH",
"948 555 OFFCURVE",
"867 629 OFFCURVE",
"790 679 CURVE SMOOTH",
"724 722 OFFCURVE",
"673 765 OFFCURVE",
"673 817 CURVE SMOOTH",
"673 876 OFFCURVE",
"730 914 OFFCURVE",
"783 949 CURVE SMOOTH",
"909 1031 OFFCURVE",
"987 1115 OFFCURVE",
"987 1275 CURVE SMOOTH",
"987 1405 OFFCURVE",
"882 1489 OFFCURVE",
"725 1489 CURVE SMOOTH",
"482 1489 OFFCURVE",
"319 1328 OFFCURVE",
"252 1013 CURVE SMOOTH",
"37 0 LINE"
);
}
);
width = 1119;
},
{
layerId = "BEF1FBB1-ACEC-4AC1-9895-C09886024D55";
paths = (
{
closed = 1;
nodes = (
"184 0 LINE",
"392 979 LINE SMOOTH",
"449 1249 OFFCURVE",
"571 1358 OFFCURVE",
"759 1358 CURVE SMOOTH",
"901 1358 OFFCURVE",
"947 1298 OFFCURVE",
"947 1217 CURVE SMOOTH",
"947 1120 OFFCURVE",
"874 1050 OFFCURVE",
"787 982 CURVE SMOOTH",
"735 942 OFFCURVE",
"671 880 OFFCURVE",
"671 799 CURVE SMOOTH",
"671 727 OFFCURVE",
"728 654 OFFCURVE",
"785 599 CURVE SMOOTH",
"837 549 OFFCURVE",
"885 481 OFFCURVE",
"885 391 CURVE SMOOTH",
"885 217 OFFCURVE",
"741 141 OFFCURVE",
"548 141 CURVE SMOOTH",
"466 141 OFFCURVE",
"406 160 OFFCURVE",
"385 170 CURVE",
"324 13 LINE",
"352 2 OFFCURVE",
"422 -13 OFFCURVE",
"516 -13 CURVE SMOOTH",
"818 -13 OFFCURVE",
"1059 146 OFFCURVE",
"1059 424 CURVE SMOOTH",
"1059 553 OFFCURVE",
"988 631 OFFCURVE",
"927 691 CURVE SMOOTH",
"874 743 OFFCURVE",
"845 783 OFFCURVE",
"845 812 CURVE SMOOTH",
"845 853 OFFCURVE",
"889 897 OFFCURVE",
"928 929 CURVE SMOOTH",
"1025 1009 OFFCURVE",
"1108 1090 OFFCURVE",
"1108 1226 CURVE SMOOTH",
"1108 1396 OFFCURVE",
"982 1509 OFFCURVE",
"784 1509 CURVE SMOOTH",
"541 1509 OFFCURVE",
"308 1376 OFFCURVE",
"227 996 CURVE SMOOTH",
"15 0 LINE"
);
}
);
width = 1195;
}
);
leftKerningGroup = h;
note = germandbls;
rightKerningGroup = s;
rightMetricsKey = s;
unicode = 00DF;
},
